<mxfile host="Electron" agent="Mozilla/5.0 (Windows NT 10.0; Win64; x64) AppleWebKit/537.36 (KHTML, like Gecko) draw.io/26.0.9 Chrome/128.0.6613.186 Electron/32.2.5 Safari/537.36" version="26.0.9" pages="9">
  <diagram name="Componentes v2" id="Hr5Lzy8-_08L1F_6YtW8">
    <mxGraphModel dx="4633" dy="1747" grid="1" gridSize="10" guides="1" tooltips="1" connect="1" arrows="1" fold="1" page="1" pageScale="1" pageWidth="850" pageHeight="1100" math="0" shadow="0">
      <root>
        <mxCell id="ibalX00g9vt64yQpozJs-0" />
        <mxCell id="ibalX00g9vt64yQpozJs-1" parent="ibalX00g9vt64yQpozJs-0" />
        <mxCell id="ibalX00g9vt64yQpozJs-13" value="&lt;div&gt;&lt;br&gt;&lt;/div&gt;" style="html=1;dropTarget=0;whiteSpace=wrap;" parent="ibalX00g9vt64yQpozJs-1" vertex="1">
          <mxGeometry x="-790" y="230" width="230" height="160" as="geometry" />
        </mxCell>
        <mxCell id="ibalX00g9vt64yQpozJs-14" value="" style="shape=module;jettyWidth=8;jettyHeight=4;" parent="ibalX00g9vt64yQpozJs-13" vertex="1">
          <mxGeometry x="1" width="20" height="20" relative="1" as="geometry">
            <mxPoint x="-27" y="7" as="offset" />
          </mxGeometry>
        </mxCell>
        <mxCell id="ibalX00g9vt64yQpozJs-2" value="&lt;div&gt;&lt;br&gt;&lt;/div&gt;" style="html=1;dropTarget=0;whiteSpace=wrap;" parent="ibalX00g9vt64yQpozJs-1" vertex="1">
          <mxGeometry x="-500" y="170" width="300" height="560" as="geometry" />
        </mxCell>
        <mxCell id="ibalX00g9vt64yQpozJs-3" value="" style="shape=module;jettyWidth=8;jettyHeight=4;" parent="ibalX00g9vt64yQpozJs-2" vertex="1">
          <mxGeometry x="1" width="20" height="20" relative="1" as="geometry">
            <mxPoint x="-27" y="7" as="offset" />
          </mxGeometry>
        </mxCell>
        <mxCell id="ibalX00g9vt64yQpozJs-4" value="&lt;div&gt;&lt;br&gt;&lt;/div&gt;" style="html=1;dropTarget=0;whiteSpace=wrap;" parent="ibalX00g9vt64yQpozJs-1" vertex="1">
          <mxGeometry x="-1000" y="498" width="230" height="152" as="geometry" />
        </mxCell>
        <mxCell id="ibalX00g9vt64yQpozJs-5" value="" style="shape=module;jettyWidth=8;jettyHeight=4;" parent="ibalX00g9vt64yQpozJs-4" vertex="1">
          <mxGeometry x="1" width="20" height="20" relative="1" as="geometry">
            <mxPoint x="-27" y="7" as="offset" />
          </mxGeometry>
        </mxCell>
        <mxCell id="UevffBtBP-o2EY0w1ZIJ-2" value="" style="rounded=0;orthogonalLoop=1;jettySize=auto;html=1;" parent="ibalX00g9vt64yQpozJs-1" source="ibalX00g9vt64yQpozJs-6" target="k2TCZtdQKbIll1BBhbGv-1" edge="1">
          <mxGeometry relative="1" as="geometry" />
        </mxCell>
        <mxCell id="CGJvHUNieDKuwBb52tQV-4" style="edgeStyle=orthogonalEdgeStyle;rounded=0;orthogonalLoop=1;jettySize=auto;html=1;entryX=0;entryY=0.25;entryDx=0;entryDy=0;exitX=0.5;exitY=1;exitDx=0;exitDy=0;startArrow=classic;startFill=1;" parent="ibalX00g9vt64yQpozJs-1" source="ibalX00g9vt64yQpozJs-6" target="YT_dUnnxunZ9NrD1JXKK-0" edge="1">
          <mxGeometry relative="1" as="geometry" />
        </mxCell>
        <mxCell id="ibalX00g9vt64yQpozJs-6" value="&lt;div&gt;«Microservicio»&lt;b&gt;&lt;br&gt;&lt;/b&gt;&lt;/div&gt;&lt;div&gt;&lt;b&gt;device-block&lt;/b&gt;&lt;/div&gt;&lt;div&gt;&lt;b&gt;+MPA2&lt;br&gt;+LMWM&lt;/b&gt;&lt;/div&gt;&lt;div&gt;&lt;b&gt;&lt;br&gt;&lt;/b&gt;&lt;/div&gt;&lt;div&gt;&lt;b&gt;&lt;br&gt;&lt;/b&gt;&lt;/div&gt;&lt;div&gt;&lt;b&gt;&lt;br&gt;&lt;/b&gt;&lt;/div&gt;&lt;div&gt;&lt;b&gt;&lt;br&gt;&lt;/b&gt;&lt;/div&gt;&lt;div&gt;&lt;b&gt;&lt;br&gt;&lt;/b&gt;&lt;/div&gt;&lt;div&gt;&lt;b&gt;&lt;br&gt;&lt;/b&gt;&lt;/div&gt;&lt;div&gt;&lt;b&gt;&lt;br&gt;&lt;/b&gt;&lt;/div&gt;&lt;div&gt;&lt;b&gt;&lt;br&gt;&lt;/b&gt;&lt;/div&gt;&lt;div&gt;&lt;b&gt;&lt;br&gt;&lt;/b&gt;&lt;/div&gt;" style="html=1;dropTarget=0;whiteSpace=wrap;fillColor=#f8cecc;strokeColor=#b85450;" parent="ibalX00g9vt64yQpozJs-1" vertex="1">
          <mxGeometry x="-440" y="230" width="180" height="195" as="geometry" />
        </mxCell>
        <mxCell id="ibalX00g9vt64yQpozJs-7" value="" style="shape=module;jettyWidth=8;jettyHeight=4;" parent="ibalX00g9vt64yQpozJs-6" vertex="1">
          <mxGeometry x="1" width="20" height="20" relative="1" as="geometry">
            <mxPoint x="-27" y="7" as="offset" />
          </mxGeometry>
        </mxCell>
        <mxCell id="ibalX00g9vt64yQpozJs-21" value="&lt;div&gt;«Log component»&lt;b&gt;&lt;br&gt;&lt;/b&gt;&lt;/div&gt;&lt;div&gt;&lt;b&gt;Kafka Cluster&lt;/b&gt;&lt;/div&gt;" style="html=1;dropTarget=0;whiteSpace=wrap;fillColor=#e1d5e7;strokeColor=#9673a6;" parent="ibalX00g9vt64yQpozJs-1" vertex="1">
          <mxGeometry x="-70" y="318" width="180" height="90" as="geometry" />
        </mxCell>
        <mxCell id="ibalX00g9vt64yQpozJs-22" value="" style="shape=module;jettyWidth=8;jettyHeight=4;" parent="ibalX00g9vt64yQpozJs-21" vertex="1">
          <mxGeometry x="1" width="20" height="20" relative="1" as="geometry">
            <mxPoint x="-27" y="7" as="offset" />
          </mxGeometry>
        </mxCell>
        <mxCell id="ibalX00g9vt64yQpozJs-23" value="" style="group" parent="ibalX00g9vt64yQpozJs-1" vertex="1" connectable="0">
          <mxGeometry x="-760" y="623" width="20" height="20" as="geometry" />
        </mxCell>
        <mxCell id="ibalX00g9vt64yQpozJs-24" value="" style="ellipse;whiteSpace=wrap;html=1;aspect=fixed;fillColor=#e3c800;strokeColor=#B09500;fontColor=#000000;" parent="ibalX00g9vt64yQpozJs-23" vertex="1">
          <mxGeometry width="20" height="20" as="geometry" />
        </mxCell>
        <mxCell id="ibalX00g9vt64yQpozJs-25" value="1" style="text;html=1;align=center;verticalAlign=middle;whiteSpace=wrap;rounded=0;" parent="ibalX00g9vt64yQpozJs-23" vertex="1">
          <mxGeometry width="20" height="20" as="geometry" />
        </mxCell>
        <mxCell id="ibalX00g9vt64yQpozJs-26" value="" style="group" parent="ibalX00g9vt64yQpozJs-1" vertex="1" connectable="0">
          <mxGeometry x="-260" y="480" width="20" height="20" as="geometry" />
        </mxCell>
        <mxCell id="ibalX00g9vt64yQpozJs-27" value="" style="ellipse;whiteSpace=wrap;html=1;aspect=fixed;fillColor=#e3c800;strokeColor=#B09500;fontColor=#000000;" parent="ibalX00g9vt64yQpozJs-26" vertex="1">
          <mxGeometry width="20" height="20" as="geometry" />
        </mxCell>
        <mxCell id="ibalX00g9vt64yQpozJs-28" value="2" style="text;html=1;align=center;verticalAlign=middle;whiteSpace=wrap;rounded=0;" parent="ibalX00g9vt64yQpozJs-26" vertex="1">
          <mxGeometry width="20" height="20" as="geometry" />
        </mxCell>
        <mxCell id="mw78Khjm8ICX6KQG7Wsu-0" value="«Canales Santander MX»" style="text;html=1;align=center;verticalAlign=middle;whiteSpace=wrap;rounded=0;" parent="ibalX00g9vt64yQpozJs-1" vertex="1">
          <mxGeometry x="-955" y="498" width="140" height="30" as="geometry" />
        </mxCell>
        <mxCell id="mw78Khjm8ICX6KQG7Wsu-1" value="&lt;div&gt;«Plataforma MQ»&lt;b&gt;&lt;br&gt;&lt;/b&gt;&lt;/div&gt;&lt;div&gt;&lt;b&gt;ATM&lt;br&gt;&lt;/b&gt;&lt;b&gt;Sucursales (TF)&lt;br&gt;&lt;/b&gt;&lt;b&gt;Centel&lt;/b&gt;&lt;/div&gt;" style="html=1;dropTarget=0;whiteSpace=wrap;fillColor=#fff2cc;strokeColor=#d6b656;" parent="ibalX00g9vt64yQpozJs-1" vertex="1">
          <mxGeometry x="-975" y="543" width="180" height="90" as="geometry" />
        </mxCell>
        <mxCell id="mw78Khjm8ICX6KQG7Wsu-2" value="" style="shape=module;jettyWidth=8;jettyHeight=4;" parent="mw78Khjm8ICX6KQG7Wsu-1" vertex="1">
          <mxGeometry x="1" width="20" height="20" relative="1" as="geometry">
            <mxPoint x="-27" y="7" as="offset" />
          </mxGeometry>
        </mxCell>
        <mxCell id="mw78Khjm8ICX6KQG7Wsu-7" value="" style="html=1;verticalAlign=bottom;endArrow=block;rounded=0;edgeStyle=orthogonalEdgeStyle;" parent="ibalX00g9vt64yQpozJs-1" source="mw78Khjm8ICX6KQG7Wsu-1" target="CGJvHUNieDKuwBb52tQV-0" edge="1">
          <mxGeometry x="0.0016" width="80" relative="1" as="geometry">
            <mxPoint x="-705" y="595" as="sourcePoint" />
            <mxPoint x="-350" y="439" as="targetPoint" />
            <mxPoint as="offset" />
          </mxGeometry>
        </mxCell>
        <mxCell id="CGJvHUNieDKuwBb52tQV-2" style="edgeStyle=orthogonalEdgeStyle;rounded=0;orthogonalLoop=1;jettySize=auto;html=1;" parent="ibalX00g9vt64yQpozJs-1" source="mw78Khjm8ICX6KQG7Wsu-5" target="CGJvHUNieDKuwBb52tQV-0" edge="1">
          <mxGeometry relative="1" as="geometry" />
        </mxCell>
        <mxCell id="CGJvHUNieDKuwBb52tQV-3" style="edgeStyle=orthogonalEdgeStyle;rounded=0;orthogonalLoop=1;jettySize=auto;html=1;" parent="ibalX00g9vt64yQpozJs-1" source="mw78Khjm8ICX6KQG7Wsu-5" target="CGJvHUNieDKuwBb52tQV-1" edge="1">
          <mxGeometry relative="1" as="geometry" />
        </mxCell>
        <mxCell id="WAyySOAWvUpvXSL9j0dH-3" style="edgeStyle=orthogonalEdgeStyle;rounded=0;orthogonalLoop=1;jettySize=auto;html=1;" parent="ibalX00g9vt64yQpozJs-1" source="mw78Khjm8ICX6KQG7Wsu-5" target="WAyySOAWvUpvXSL9j0dH-2" edge="1">
          <mxGeometry relative="1" as="geometry" />
        </mxCell>
        <mxCell id="mw78Khjm8ICX6KQG7Wsu-5" value="&lt;div&gt;«Microservicio»&lt;b&gt;&lt;br&gt;&lt;/b&gt;&lt;/div&gt;&lt;div&gt;&lt;b&gt;Launcher&lt;/b&gt;&lt;/div&gt;&lt;div&gt;&lt;b&gt;&lt;br&gt;&lt;/b&gt;&lt;/div&gt;&lt;div&gt;&lt;b&gt;&lt;br&gt;&lt;/b&gt;&lt;/div&gt;&lt;div&gt;&lt;b&gt;&lt;br&gt;&lt;/b&gt;&lt;/div&gt;" style="html=1;dropTarget=0;whiteSpace=wrap;fillColor=#fff2cc;strokeColor=#d6b656;" parent="ibalX00g9vt64yQpozJs-1" vertex="1">
          <mxGeometry x="-440" y="590" width="180" height="90" as="geometry" />
        </mxCell>
        <mxCell id="mw78Khjm8ICX6KQG7Wsu-6" value="" style="shape=module;jettyWidth=8;jettyHeight=4;" parent="mw78Khjm8ICX6KQG7Wsu-5" vertex="1">
          <mxGeometry x="1" width="20" height="20" relative="1" as="geometry">
            <mxPoint x="-27" y="7" as="offset" />
          </mxGeometry>
        </mxCell>
        <mxCell id="YT_dUnnxunZ9NrD1JXKK-2" style="edgeStyle=orthogonalEdgeStyle;rounded=0;orthogonalLoop=1;jettySize=auto;html=1;entryX=0;entryY=0.75;entryDx=0;entryDy=0;startArrow=classic;startFill=1;exitX=0.5;exitY=0;exitDx=0;exitDy=0;" parent="ibalX00g9vt64yQpozJs-1" source="mw78Khjm8ICX6KQG7Wsu-5" target="YT_dUnnxunZ9NrD1JXKK-0" edge="1">
          <mxGeometry relative="1" as="geometry">
            <mxPoint x="-290" y="513" as="sourcePoint" />
          </mxGeometry>
        </mxCell>
        <mxCell id="mw78Khjm8ICX6KQG7Wsu-16" value="&lt;div&gt;«Capa de Integración»&lt;/div&gt;" style="text;html=1;align=center;verticalAlign=middle;whiteSpace=wrap;rounded=0;" parent="ibalX00g9vt64yQpozJs-1" vertex="1">
          <mxGeometry x="-420" y="170" width="140" height="30" as="geometry" />
        </mxCell>
        <mxCell id="k2TCZtdQKbIll1BBhbGv-0" value="&lt;div&gt;«Plataforma PLARD»&lt;/div&gt;" style="text;html=1;align=center;verticalAlign=middle;whiteSpace=wrap;rounded=0;" parent="ibalX00g9vt64yQpozJs-1" vertex="1">
          <mxGeometry x="-735" y="230" width="120" height="30" as="geometry" />
        </mxCell>
        <mxCell id="k2TCZtdQKbIll1BBhbGv-1" value="&lt;div&gt;«Service»&lt;b&gt;&lt;br&gt;&lt;/b&gt;&lt;/div&gt;&lt;div&gt;&lt;div style=&quot;&quot;&gt;&lt;b&gt;Device Life Cycle&lt;/b&gt;&lt;/div&gt;&lt;/div&gt;" style="html=1;dropTarget=0;whiteSpace=wrap;fillColor=#fff2cc;strokeColor=#d6b656;" parent="ibalX00g9vt64yQpozJs-1" vertex="1">
          <mxGeometry x="-765" y="282.5" width="180" height="90" as="geometry" />
        </mxCell>
        <mxCell id="k2TCZtdQKbIll1BBhbGv-2" value="" style="shape=module;jettyWidth=8;jettyHeight=4;" parent="k2TCZtdQKbIll1BBhbGv-1" vertex="1">
          <mxGeometry x="1" width="20" height="20" relative="1" as="geometry">
            <mxPoint x="-27" y="7" as="offset" />
          </mxGeometry>
        </mxCell>
        <mxCell id="UevffBtBP-o2EY0w1ZIJ-12" value="" style="group" parent="ibalX00g9vt64yQpozJs-1" vertex="1" connectable="0">
          <mxGeometry x="-100" y="330" width="20" height="20" as="geometry" />
        </mxCell>
        <mxCell id="UevffBtBP-o2EY0w1ZIJ-13" value="" style="ellipse;whiteSpace=wrap;html=1;aspect=fixed;fillColor=#e3c800;strokeColor=#B09500;fontColor=#000000;" parent="UevffBtBP-o2EY0w1ZIJ-12" vertex="1">
          <mxGeometry width="20" height="20" as="geometry" />
        </mxCell>
        <mxCell id="UevffBtBP-o2EY0w1ZIJ-14" value="4" style="text;html=1;align=center;verticalAlign=middle;whiteSpace=wrap;rounded=0;" parent="UevffBtBP-o2EY0w1ZIJ-12" vertex="1">
          <mxGeometry width="20" height="20" as="geometry" />
        </mxCell>
        <mxCell id="UevffBtBP-o2EY0w1ZIJ-15" value="1 - Se genera petición en el canal y se publica en MQ. El Launcher toma la petición la analiza y si es una petición hacia PLARD la deriva a un Stream de Redis, enviando el deviceId asociado.&lt;div&gt;2 - El Servicio de device-block toma el mensaje del Stream de Redis e inicia su procesado.&lt;/div&gt;&lt;div&gt;&lt;span style=&quot;background-color: initial;&quot;&gt;3 - Se realiza el llamado al API de PLARD.&lt;/span&gt;&lt;br&gt;&lt;/div&gt;&lt;div&gt;4 - Se guarda en Kafka la pista de auditoría correspondiente al proceso.&lt;/div&gt;&lt;div&gt;5 - Se regresa el mensaje de respuesta a un Stream de Redis para que el Launcher lo pueda tomar y regresarlo al Canal.&lt;/div&gt;&lt;div&gt;&lt;br&gt;&lt;/div&gt;" style="text;html=1;align=left;verticalAlign=top;whiteSpace=wrap;rounded=0;" parent="ibalX00g9vt64yQpozJs-1" vertex="1">
          <mxGeometry x="200" y="170" width="220" height="240" as="geometry" />
        </mxCell>
        <mxCell id="CGJvHUNieDKuwBb52tQV-0" value="&lt;div&gt;«Message Queue»&lt;b&gt;&lt;br&gt;&lt;/b&gt;&lt;/div&gt;&lt;div&gt;&lt;b&gt;MQ Canal&lt;/b&gt;&lt;/div&gt;" style="rounded=0;whiteSpace=wrap;html=1;" parent="ibalX00g9vt64yQpozJs-1" vertex="1">
          <mxGeometry x="-710" y="558" width="120" height="60" as="geometry" />
        </mxCell>
        <mxCell id="P5pLYkH1LWKFuAj6E5QO-2" style="edgeStyle=orthogonalEdgeStyle;rounded=0;orthogonalLoop=1;jettySize=auto;html=1;" edge="1" parent="ibalX00g9vt64yQpozJs-1" source="CGJvHUNieDKuwBb52tQV-1" target="mw78Khjm8ICX6KQG7Wsu-1">
          <mxGeometry relative="1" as="geometry" />
        </mxCell>
        <mxCell id="CGJvHUNieDKuwBb52tQV-1" value="&lt;div&gt;«Message Queue»&lt;b&gt;&lt;br&gt;&lt;/b&gt;&lt;/div&gt;&lt;div&gt;&lt;b&gt;MQ Canal&lt;/b&gt;&lt;/div&gt;" style="rounded=0;whiteSpace=wrap;html=1;" parent="ibalX00g9vt64yQpozJs-1" vertex="1">
          <mxGeometry x="-710" y="658" width="120" height="60" as="geometry" />
        </mxCell>
        <mxCell id="WAyySOAWvUpvXSL9j0dH-7" style="edgeStyle=orthogonalEdgeStyle;rounded=0;orthogonalLoop=1;jettySize=auto;html=1;" parent="ibalX00g9vt64yQpozJs-1" source="WAyySOAWvUpvXSL9j0dH-0" target="WAyySOAWvUpvXSL9j0dH-2" edge="1">
          <mxGeometry relative="1" as="geometry" />
        </mxCell>
        <mxCell id="WAyySOAWvUpvXSL9j0dH-0" value="" style="html=1;dropTarget=0;whiteSpace=wrap;" parent="ibalX00g9vt64yQpozJs-1" vertex="1">
          <mxGeometry x="10" y="633" width="210" height="185" as="geometry" />
        </mxCell>
        <mxCell id="WAyySOAWvUpvXSL9j0dH-1" value="" style="shape=module;jettyWidth=8;jettyHeight=4;" parent="WAyySOAWvUpvXSL9j0dH-0" vertex="1">
          <mxGeometry x="1" width="20" height="20" relative="1" as="geometry">
            <mxPoint x="-27" y="7" as="offset" />
          </mxGeometry>
        </mxCell>
        <mxCell id="WAyySOAWvUpvXSL9j0dH-2" value="&lt;div&gt;«Message Queue»&lt;b&gt;&lt;br&gt;&lt;/b&gt;&lt;/div&gt;&lt;div&gt;&lt;b&gt;MQ 390&lt;/b&gt;&lt;/div&gt;" style="rounded=0;whiteSpace=wrap;html=1;" parent="ibalX00g9vt64yQpozJs-1" vertex="1">
          <mxGeometry x="-150" y="695.5" width="120" height="60" as="geometry" />
        </mxCell>
        <mxCell id="WAyySOAWvUpvXSL9j0dH-8" value="&lt;div&gt;«Mainframe»&lt;/div&gt;" style="text;html=1;align=center;verticalAlign=middle;whiteSpace=wrap;rounded=0;" parent="ibalX00g9vt64yQpozJs-1" vertex="1">
          <mxGeometry x="50" y="633" width="120" height="30" as="geometry" />
        </mxCell>
        <mxCell id="WAyySOAWvUpvXSL9j0dH-9" value="&lt;div&gt;«PAMPA»&lt;b&gt;&lt;br&gt;&lt;/b&gt;&lt;/div&gt;&lt;div&gt;&lt;b&gt;MPA2&lt;br&gt;LMWM&lt;/b&gt;&lt;/div&gt;" style="html=1;dropTarget=0;whiteSpace=wrap;fillColor=#fff2cc;strokeColor=#d6b656;" parent="ibalX00g9vt64yQpozJs-1" vertex="1">
          <mxGeometry x="25" y="695.5" width="180" height="90" as="geometry" />
        </mxCell>
        <mxCell id="WAyySOAWvUpvXSL9j0dH-10" value="" style="shape=module;jettyWidth=8;jettyHeight=4;" parent="WAyySOAWvUpvXSL9j0dH-9" vertex="1">
          <mxGeometry x="1" width="20" height="20" relative="1" as="geometry">
            <mxPoint x="-27" y="7" as="offset" />
          </mxGeometry>
        </mxCell>
        <mxCell id="YT_dUnnxunZ9NrD1JXKK-0" value="&lt;div&gt;«Event component»&lt;b&gt;&lt;br&gt;&lt;/b&gt;&lt;/div&gt;&lt;div&gt;&lt;b&gt;Redis Streams&lt;/b&gt;&lt;/div&gt;" style="html=1;dropTarget=0;whiteSpace=wrap;fillColor=#e1d5e7;strokeColor=#9673a6;" parent="ibalX00g9vt64yQpozJs-1" vertex="1">
          <mxGeometry x="-70" y="446" width="180" height="90" as="geometry" />
        </mxCell>
        <mxCell id="YT_dUnnxunZ9NrD1JXKK-1" value="" style="shape=module;jettyWidth=8;jettyHeight=4;" parent="YT_dUnnxunZ9NrD1JXKK-0" vertex="1">
          <mxGeometry x="1" width="20" height="20" relative="1" as="geometry">
            <mxPoint x="-27" y="7" as="offset" />
          </mxGeometry>
        </mxCell>
        <mxCell id="YT_dUnnxunZ9NrD1JXKK-7" value="" style="group" parent="ibalX00g9vt64yQpozJs-1" vertex="1" connectable="0">
          <mxGeometry x="-550" y="330" width="20" height="20" as="geometry" />
        </mxCell>
        <mxCell id="YT_dUnnxunZ9NrD1JXKK-8" value="" style="ellipse;whiteSpace=wrap;html=1;aspect=fixed;fillColor=#e3c800;strokeColor=#B09500;fontColor=#000000;" parent="YT_dUnnxunZ9NrD1JXKK-7" vertex="1">
          <mxGeometry width="20" height="20" as="geometry" />
        </mxCell>
        <mxCell id="YT_dUnnxunZ9NrD1JXKK-9" value="3" style="text;html=1;align=center;verticalAlign=middle;whiteSpace=wrap;rounded=0;" parent="YT_dUnnxunZ9NrD1JXKK-7" vertex="1">
          <mxGeometry width="20" height="20" as="geometry" />
        </mxCell>
        <mxCell id="YT_dUnnxunZ9NrD1JXKK-10" value="" style="group" parent="ibalX00g9vt64yQpozJs-1" vertex="1" connectable="0">
          <mxGeometry x="-110" y="440" width="20" height="20" as="geometry" />
        </mxCell>
        <mxCell id="YT_dUnnxunZ9NrD1JXKK-11" value="" style="ellipse;whiteSpace=wrap;html=1;aspect=fixed;fillColor=#e3c800;strokeColor=#B09500;fontColor=#000000;" parent="YT_dUnnxunZ9NrD1JXKK-10" vertex="1">
          <mxGeometry width="20" height="20" as="geometry" />
        </mxCell>
        <mxCell id="YT_dUnnxunZ9NrD1JXKK-12" value="5" style="text;html=1;align=center;verticalAlign=middle;whiteSpace=wrap;rounded=0;" parent="YT_dUnnxunZ9NrD1JXKK-10" vertex="1">
          <mxGeometry width="20" height="20" as="geometry" />
        </mxCell>
        <mxCell id="P5pLYkH1LWKFuAj6E5QO-3" style="edgeStyle=orthogonalEdgeStyle;rounded=0;orthogonalLoop=1;jettySize=auto;html=1;" edge="1" parent="ibalX00g9vt64yQpozJs-1" target="P5pLYkH1LWKFuAj6E5QO-4">
          <mxGeometry relative="1" as="geometry">
            <mxPoint x="-350" y="676" as="sourcePoint" />
          </mxGeometry>
        </mxCell>
        <mxCell id="P5pLYkH1LWKFuAj6E5QO-4" value="&lt;div&gt;«Microservicio»&lt;b&gt;&lt;br&gt;&lt;/b&gt;&lt;/div&gt;&lt;div&gt;&lt;b&gt;CardPlaceLocator&lt;/b&gt;&lt;/div&gt;" style="html=1;dropTarget=0;whiteSpace=wrap;fillColor=#fff2cc;strokeColor=#d6b656;" vertex="1" parent="ibalX00g9vt64yQpozJs-1">
          <mxGeometry x="-440" y="746" width="180" height="90" as="geometry" />
        </mxCell>
        <mxCell id="P5pLYkH1LWKFuAj6E5QO-5" value="" style="shape=module;jettyWidth=8;jettyHeight=4;" vertex="1" parent="P5pLYkH1LWKFuAj6E5QO-4">
          <mxGeometry x="1" width="20" height="20" relative="1" as="geometry">
            <mxPoint x="-27" y="7" as="offset" />
          </mxGeometry>
        </mxCell>
        <mxCell id="P5pLYkH1LWKFuAj6E5QO-6" value="&amp;lt;&amp;lt;Componente&amp;gt;&amp;gt;&lt;div&gt;CardPlaceLocatorLibrary&lt;/div&gt;" style="rounded=0;whiteSpace=wrap;html=1;fillColor=#fff2cc;strokeColor=#d6b656;" vertex="1" parent="ibalX00g9vt64yQpozJs-1">
          <mxGeometry x="-414" y="638.5" width="150" height="35" as="geometry" />
        </mxCell>
        <mxCell id="P5pLYkH1LWKFuAj6E5QO-11" value="" style="html=1;verticalAlign=bottom;endArrow=block;rounded=0;" edge="1" parent="ibalX00g9vt64yQpozJs-1" source="P5pLYkH1LWKFuAj6E5QO-30" target="ibalX00g9vt64yQpozJs-21">
          <mxGeometry width="80" relative="1" as="geometry">
            <mxPoint x="-265" y="489" as="sourcePoint" />
            <mxPoint x="-175" y="363" as="targetPoint" />
            <mxPoint as="offset" />
          </mxGeometry>
        </mxCell>
        <mxCell id="P5pLYkH1LWKFuAj6E5QO-29" value="&amp;lt;&amp;lt;Componente&amp;gt;&amp;gt;&lt;div&gt;multi-redis-factory&lt;/div&gt;" style="rounded=0;whiteSpace=wrap;html=1;fillColor=#fff2cc;strokeColor=#d6b656;" vertex="1" parent="ibalX00g9vt64yQpozJs-1">
          <mxGeometry x="-415" y="386" width="150" height="35" as="geometry" />
        </mxCell>
        <mxCell id="P5pLYkH1LWKFuAj6E5QO-30" value="&amp;lt;&amp;lt;Componente&amp;gt;&amp;gt;&lt;div&gt;&lt;span data-teams=&quot;true&quot;&gt;kafka-message-logging&lt;/span&gt;&lt;br&gt;&lt;/div&gt;" style="rounded=0;whiteSpace=wrap;html=1;fillColor=#fff2cc;strokeColor=#d6b656;" vertex="1" parent="ibalX00g9vt64yQpozJs-1">
          <mxGeometry x="-415" y="345.5" width="150" height="35" as="geometry" />
        </mxCell>
        <mxCell id="P5pLYkH1LWKFuAj6E5QO-31" value="&amp;lt;&amp;lt;Componente&amp;gt;&amp;gt;&lt;div&gt;message-format&lt;br&gt;&lt;/div&gt;" style="rounded=0;whiteSpace=wrap;html=1;fillColor=#fff2cc;strokeColor=#d6b656;" vertex="1" parent="ibalX00g9vt64yQpozJs-1">
          <mxGeometry x="-415" y="306" width="150" height="35" as="geometry" />
        </mxCell>
        <mxCell id="P5pLYkH1LWKFuAj6E5QO-32" value="&lt;div style=&quot;text-align: left;&quot;&gt;&lt;a style=&quot;font-size: 12px; box-sizing: border-box; display: inline; cursor: pointer; text-decoration-line: inherit; font-weight: 600;&quot; class=&quot;nostyle&quot;&gt;(Post)&amp;nbsp;&lt;/a&gt;&lt;a style=&quot;box-sizing: border-box; display: inline; cursor: pointer; text-decoration-line: inherit; font-size: 16px;&quot; class=&quot;nostyle&quot;&gt;&lt;span style=&quot;box-sizing: border-box;&quot;&gt;&lt;font style=&quot;font-size: 12px;&quot; face=&quot;Helvetica&quot;&gt;&lt;b&gt;/life-cycle&lt;wbr style=&quot;box-sizing: border-box;&quot;&gt;/v3&lt;wbr style=&quot;box-sizing: border-box;&quot;&gt;/devices&lt;wbr style=&quot;box-sizing: border-box;&quot;&gt;/blocks&lt;/b&gt;&lt;/font&gt;&lt;/span&gt;&lt;/a&gt;&lt;br&gt;&lt;/div&gt;" style="rounded=0;whiteSpace=wrap;html=1;align=left;fontSize=11;" vertex="1" parent="ibalX00g9vt64yQpozJs-1">
          <mxGeometry x="-1051" y="298" width="251" height="27" as="geometry" />
        </mxCell>
        <mxCell id="P5pLYkH1LWKFuAj6E5QO-33" value="3" style="rounded=0;whiteSpace=wrap;html=1;fillColor=#bac8d3;strokeColor=#23445d;fontStyle=1" vertex="1" parent="ibalX00g9vt64yQpozJs-1">
          <mxGeometry x="-1091" y="298" width="40" height="27" as="geometry" />
        </mxCell>
        <mxCell id="P5pLYkH1LWKFuAj6E5QO-34" value="&lt;div style=&quot;text-align: left;&quot;&gt;&lt;a style=&quot;box-sizing: border-box; display: inline; cursor: pointer; text-decoration-line: inherit; font-size: 16px;&quot; class=&quot;nostyle&quot;&gt;&lt;span style=&quot;box-sizing: border-box;&quot;&gt;&lt;font style=&quot;font-size: 12px;&quot; face=&quot;Helvetica&quot;&gt;&lt;b&gt;(Get)&amp;nbsp;&lt;/b&gt;&lt;/font&gt;&lt;/span&gt;&lt;/a&gt;&lt;span style=&quot;font-size: 12px; text-align: center; background-color: transparent;&quot;&gt;&lt;b&gt;/life-cycle/v3/devices/blocks&lt;/b&gt;&lt;/span&gt;&lt;br&gt;&lt;/div&gt;" style="rounded=0;whiteSpace=wrap;html=1;align=left;fontSize=11;" vertex="1" parent="ibalX00g9vt64yQpozJs-1">
          <mxGeometry x="-1051" y="325" width="251" height="27" as="geometry" />
        </mxCell>
        <mxCell id="P5pLYkH1LWKFuAj6E5QO-35" value="3" style="rounded=0;whiteSpace=wrap;html=1;fillColor=#bac8d3;strokeColor=#23445d;fontStyle=1" vertex="1" parent="ibalX00g9vt64yQpozJs-1">
          <mxGeometry x="-1091" y="325" width="40" height="27" as="geometry" />
        </mxCell>
        <mxCell id="P5pLYkH1LWKFuAj6E5QO-36" value="&lt;b style=&quot;font-size: 12px;&quot;&gt;device-block_input&lt;/b&gt;" style="rounded=0;whiteSpace=wrap;html=1;align=left;fontSize=11;" vertex="1" parent="ibalX00g9vt64yQpozJs-1">
          <mxGeometry x="130" y="490.25" width="220" height="20" as="geometry" />
        </mxCell>
        <mxCell id="P5pLYkH1LWKFuAj6E5QO-37" value="Input" style="rounded=0;whiteSpace=wrap;html=1;fillColor=#bac8d3;strokeColor=#23445d;fontStyle=1" vertex="1" parent="ibalX00g9vt64yQpozJs-1">
          <mxGeometry x="130" y="470.25" width="220" height="20" as="geometry" />
        </mxCell>
        <mxCell id="P5pLYkH1LWKFuAj6E5QO-38" value="&lt;b style=&quot;font-size: 12px;&quot;&gt;device-block_output&lt;/b&gt;" style="rounded=0;whiteSpace=wrap;html=1;align=left;fontSize=11;" vertex="1" parent="ibalX00g9vt64yQpozJs-1">
          <mxGeometry x="350" y="490.25" width="220" height="20" as="geometry" />
        </mxCell>
        <mxCell id="P5pLYkH1LWKFuAj6E5QO-39" value="Output" style="rounded=0;whiteSpace=wrap;html=1;fillColor=#bac8d3;strokeColor=#23445d;fontStyle=1" vertex="1" parent="ibalX00g9vt64yQpozJs-1">
          <mxGeometry x="350" y="470.25" width="220" height="19.75" as="geometry" />
        </mxCell>
        <mxCell id="P5pLYkH1LWKFuAj6E5QO-40" value="Redis Stream" style="rounded=0;whiteSpace=wrap;html=1;fillColor=#bac8d3;strokeColor=#23445d;fontStyle=1" vertex="1" parent="ibalX00g9vt64yQpozJs-1">
          <mxGeometry x="130" y="450.25" width="440" height="20" as="geometry" />
        </mxCell>
        <mxCell id="P5pLYkH1LWKFuAj6E5QO-41" value="&lt;font style=&quot;color: rgb(0, 0, 0);&quot;&gt;&lt;b style=&quot;font-size: 12px; text-align: center;&quot;&gt;request-&lt;/b&gt;&lt;b style=&quot;font-size: 12px; text-align: center;&quot;&gt;device-block-lmwm&lt;/b&gt;&lt;b style=&quot;font-size: 12px;&quot;&gt;-stream&lt;/b&gt;&lt;/font&gt;" style="rounded=0;whiteSpace=wrap;html=1;align=left;fontSize=11;" vertex="1" parent="ibalX00g9vt64yQpozJs-1">
          <mxGeometry x="130" y="509.75" width="220" height="20" as="geometry" />
        </mxCell>
        <mxCell id="P5pLYkH1LWKFuAj6E5QO-42" value="&lt;font style=&quot;color: rgb(0, 0, 0);&quot;&gt;&lt;b style=&quot;font-size: 12px; text-align: center;&quot;&gt;response-&lt;/b&gt;&lt;/font&gt;&lt;b style=&quot;font-size: 12px; text-align: center;&quot;&gt;device-block&lt;/b&gt;&lt;b style=&quot;font-size: 12px; text-align: center;&quot;&gt;-lmwm&lt;/b&gt;&lt;b style=&quot;font-size: 12px;&quot;&gt;-stream&lt;/b&gt;" style="rounded=0;whiteSpace=wrap;html=1;align=left;fontSize=11;" vertex="1" parent="ibalX00g9vt64yQpozJs-1">
          <mxGeometry x="350" y="509.75" width="220" height="20" as="geometry" />
        </mxCell>
        <mxCell id="P5pLYkH1LWKFuAj6E5QO-46" value="" style="edgeStyle=orthogonalEdgeStyle;rounded=0;orthogonalLoop=1;jettySize=auto;html=1;" edge="1" parent="ibalX00g9vt64yQpozJs-1" source="P5pLYkH1LWKFuAj6E5QO-45" target="P5pLYkH1LWKFuAj6E5QO-38">
          <mxGeometry relative="1" as="geometry" />
        </mxCell>
        <mxCell id="P5pLYkH1LWKFuAj6E5QO-45" value="Los grupos para la generación del bloqueo con la trx MPA2 no cumplen con el estandar debido a la antiguedad del desarrollo" style="text;html=1;align=left;verticalAlign=middle;whiteSpace=wrap;rounded=0;" vertex="1" parent="ibalX00g9vt64yQpozJs-1">
          <mxGeometry x="620" y="457.63" width="140" height="85.25" as="geometry" />
        </mxCell>
        <mxCell id="P5pLYkH1LWKFuAj6E5QO-47" value="" style="rounded=0;whiteSpace=wrap;html=1;fillColor=#d5e8d4;strokeColor=#82b366;" vertex="1" parent="ibalX00g9vt64yQpozJs-1">
          <mxGeometry x="-1090" y="89" width="50" height="20" as="geometry" />
        </mxCell>
        <mxCell id="P5pLYkH1LWKFuAj6E5QO-48" value="Componente Nuevo" style="text;html=1;strokeColor=none;fillColor=none;align=left;verticalAlign=middle;whiteSpace=wrap;rounded=0;" vertex="1" parent="ibalX00g9vt64yQpozJs-1">
          <mxGeometry x="-1030" y="89" width="110" height="20" as="geometry" />
        </mxCell>
        <mxCell id="P5pLYkH1LWKFuAj6E5QO-49" value="" style="rounded=0;whiteSpace=wrap;html=1;fillColor=#fff2cc;strokeColor=#d6b656;" vertex="1" parent="ibalX00g9vt64yQpozJs-1">
          <mxGeometry x="-1090" y="119" width="50" height="20" as="geometry" />
        </mxCell>
        <mxCell id="P5pLYkH1LWKFuAj6E5QO-50" value="Componente reutilizado" style="text;html=1;strokeColor=none;fillColor=none;align=left;verticalAlign=middle;whiteSpace=wrap;rounded=0;" vertex="1" parent="ibalX00g9vt64yQpozJs-1">
          <mxGeometry x="-1030" y="119" width="130" height="20" as="geometry" />
        </mxCell>
        <mxCell id="P5pLYkH1LWKFuAj6E5QO-51" value="" style="rounded=0;whiteSpace=wrap;html=1;fillColor=#e1d5e7;strokeColor=#9673a6;" vertex="1" parent="ibalX00g9vt64yQpozJs-1">
          <mxGeometry x="-1090" y="180" width="50" height="20" as="geometry" />
        </mxCell>
        <mxCell id="P5pLYkH1LWKFuAj6E5QO-52" value="" style="verticalLabelPosition=bottom;verticalAlign=top;html=1;shape=mxgraph.basic.star;fillColor=#f0a30a;fontColor=#000000;strokeColor=#BD7000;aspect=fixed;" vertex="1" parent="ibalX00g9vt64yQpozJs-1">
          <mxGeometry x="-1085" y="39" width="40" height="38" as="geometry" />
        </mxCell>
        <mxCell id="P5pLYkH1LWKFuAj6E5QO-53" value="Fuera del alcance" style="text;html=1;strokeColor=none;fillColor=none;align=left;verticalAlign=middle;whiteSpace=wrap;rounded=0;" vertex="1" parent="ibalX00g9vt64yQpozJs-1">
          <mxGeometry x="-1030" y="48" width="110" height="20" as="geometry" />
        </mxCell>
        <mxCell id="P5pLYkH1LWKFuAj6E5QO-54" value="" style="rounded=0;whiteSpace=wrap;html=1;fillColor=#f8cecc;strokeColor=#b85450;" vertex="1" parent="ibalX00g9vt64yQpozJs-1">
          <mxGeometry x="-1090" y="150" width="50" height="20" as="geometry" />
        </mxCell>
        <mxCell id="P5pLYkH1LWKFuAj6E5QO-55" value="Componente reutilizado con modificaciones" style="text;html=1;strokeColor=none;fillColor=none;align=left;verticalAlign=middle;whiteSpace=wrap;rounded=0;" vertex="1" parent="ibalX00g9vt64yQpozJs-1">
          <mxGeometry x="-1030" y="150" width="240" height="20" as="geometry" />
        </mxCell>
        <mxCell id="P5pLYkH1LWKFuAj6E5QO-56" value="Componentes / estructuras nuevas en infraestructura transversal" style="text;html=1;strokeColor=none;fillColor=none;align=left;verticalAlign=middle;whiteSpace=wrap;rounded=0;" vertex="1" parent="ibalX00g9vt64yQpozJs-1">
          <mxGeometry x="-1030" y="180" width="350" height="20" as="geometry" />
        </mxCell>
      </root>
    </mxGraphModel>
  </diagram>
  <diagram id="P0uca078UgwhhpQkU-cd" name="Streams">
    <mxGraphModel dx="1707" dy="524" grid="1" gridSize="10" guides="1" tooltips="1" connect="1" arrows="1" fold="1" page="1" pageScale="1" pageWidth="827" pageHeight="1169" math="0" shadow="0">
      <root>
        <mxCell id="0" />
        <mxCell id="1" parent="0" />
        <mxCell id="4vSoQlsN3PBgfnXqHqy_-5" value="" style="rounded=0;whiteSpace=wrap;html=1;" parent="1" vertex="1">
          <mxGeometry x="30" y="310" width="280" height="220" as="geometry" />
        </mxCell>
        <mxCell id="5n5ed3i6qj8840SfcFoe-3" style="rounded=0;orthogonalLoop=1;jettySize=auto;html=1;entryX=0.5;entryY=0;entryDx=0;entryDy=0;entryPerimeter=0;" edge="1" parent="1" source="4vSoQlsN3PBgfnXqHqy_-1" target="fhgWYbVwehgQsr0_otlm-1">
          <mxGeometry relative="1" as="geometry" />
        </mxCell>
        <mxCell id="4vSoQlsN3PBgfnXqHqy_-1" value="&lt;div&gt;«Microservicio»&lt;b&gt;&lt;br&gt;&lt;/b&gt;&lt;/div&gt;&lt;div&gt;&lt;b&gt;device-block&lt;/b&gt;&lt;/div&gt;" style="html=1;dropTarget=0;whiteSpace=wrap;fillColor=#d5e8d4;strokeColor=#82b366;" parent="1" vertex="1">
          <mxGeometry x="400" y="390" width="180" height="90" as="geometry" />
        </mxCell>
        <mxCell id="4vSoQlsN3PBgfnXqHqy_-2" value="" style="shape=module;jettyWidth=8;jettyHeight=4;" parent="4vSoQlsN3PBgfnXqHqy_-1" vertex="1">
          <mxGeometry x="1" width="20" height="20" relative="1" as="geometry">
            <mxPoint x="-27" y="7" as="offset" />
          </mxGeometry>
        </mxCell>
        <mxCell id="5n5ed3i6qj8840SfcFoe-1" style="rounded=0;orthogonalLoop=1;jettySize=auto;html=1;entryX=0.5;entryY=1;entryDx=0;entryDy=0;entryPerimeter=0;" edge="1" parent="1" source="4vSoQlsN3PBgfnXqHqy_-3" target="fhgWYbVwehgQsr0_otlm-1">
          <mxGeometry relative="1" as="geometry" />
        </mxCell>
        <mxCell id="4vSoQlsN3PBgfnXqHqy_-3" value="&lt;div&gt;«Microservicio»&lt;b&gt;&lt;br&gt;&lt;/b&gt;&lt;/div&gt;&lt;div&gt;&lt;b&gt;Launcher&lt;/b&gt;&lt;/div&gt;" style="html=1;dropTarget=0;whiteSpace=wrap;" parent="1" vertex="1">
          <mxGeometry x="-220" y="390" width="180" height="90" as="geometry" />
        </mxCell>
        <mxCell id="4vSoQlsN3PBgfnXqHqy_-4" value="" style="shape=module;jettyWidth=8;jettyHeight=4;" parent="4vSoQlsN3PBgfnXqHqy_-3" vertex="1">
          <mxGeometry x="1" width="20" height="20" relative="1" as="geometry">
            <mxPoint x="-27" y="7" as="offset" />
          </mxGeometry>
        </mxCell>
        <mxCell id="4vSoQlsN3PBgfnXqHqy_-6" value="&lt;b style=&quot;text-align: left;&quot;&gt;device-block_input&lt;/b&gt;" style="shape=cylinder3;whiteSpace=wrap;html=1;boundedLbl=1;backgroundOutline=1;size=15;rotation=0;direction=south;fillColor=#e1d5e7;strokeColor=#9673a6;" parent="1" vertex="1">
          <mxGeometry x="50" y="353" width="250" height="30" as="geometry" />
        </mxCell>
        <mxCell id="4vSoQlsN3PBgfnXqHqy_-7" value="&lt;b style=&quot;text-align: left;&quot;&gt;device-block_output&lt;/b&gt;" style="shape=cylinder3;whiteSpace=wrap;html=1;boundedLbl=1;backgroundOutline=1;size=15;direction=south;fillColor=#f8cecc;strokeColor=#b85450;" parent="1" vertex="1">
          <mxGeometry x="50" y="398" width="250" height="30" as="geometry" />
        </mxCell>
        <mxCell id="BM0YD6f-yyeIX_410Jj9-1" value="&lt;div&gt;«Event component»&lt;b&gt;&lt;br&gt;&lt;/b&gt;&lt;/div&gt;&lt;div&gt;&lt;b&gt;Redis Streams&lt;/b&gt;&lt;/div&gt;" style="text;html=1;align=center;verticalAlign=middle;whiteSpace=wrap;rounded=0;" parent="1" vertex="1">
          <mxGeometry x="110" y="310" width="120" height="30" as="geometry" />
        </mxCell>
        <mxCell id="BM0YD6f-yyeIX_410Jj9-2" value="" style="endArrow=classic;html=1;rounded=0;entryX=0.5;entryY=1;entryDx=0;entryDy=0;entryPerimeter=0;" parent="1" source="4vSoQlsN3PBgfnXqHqy_-3" target="4vSoQlsN3PBgfnXqHqy_-6" edge="1">
          <mxGeometry width="50" height="50" relative="1" as="geometry">
            <mxPoint y="320" as="sourcePoint" />
            <mxPoint x="60" y="350" as="targetPoint" />
          </mxGeometry>
        </mxCell>
        <mxCell id="BM0YD6f-yyeIX_410Jj9-3" value="" style="endArrow=classic;html=1;rounded=0;exitX=0.5;exitY=0;exitDx=0;exitDy=0;exitPerimeter=0;" parent="1" source="4vSoQlsN3PBgfnXqHqy_-6" target="4vSoQlsN3PBgfnXqHqy_-1" edge="1">
          <mxGeometry width="50" height="50" relative="1" as="geometry">
            <mxPoint x="370" y="363" as="sourcePoint" />
            <mxPoint x="420" y="415" as="targetPoint" />
          </mxGeometry>
        </mxCell>
        <mxCell id="BM0YD6f-yyeIX_410Jj9-4" value="" style="endArrow=classic;html=1;rounded=0;entryX=0.5;entryY=0;entryDx=0;entryDy=0;entryPerimeter=0;" parent="1" source="4vSoQlsN3PBgfnXqHqy_-1" target="4vSoQlsN3PBgfnXqHqy_-7" edge="1">
          <mxGeometry width="50" height="50" relative="1" as="geometry">
            <mxPoint x="170" y="395" as="sourcePoint" />
            <mxPoint x="370" y="408" as="targetPoint" />
          </mxGeometry>
        </mxCell>
        <mxCell id="BM0YD6f-yyeIX_410Jj9-5" value="" style="endArrow=classic;html=1;rounded=0;exitX=0.5;exitY=1;exitDx=0;exitDy=0;exitPerimeter=0;" parent="1" source="4vSoQlsN3PBgfnXqHqy_-7" target="4vSoQlsN3PBgfnXqHqy_-3" edge="1">
          <mxGeometry width="50" height="50" relative="1" as="geometry">
            <mxPoint x="310" y="423" as="sourcePoint" />
            <mxPoint x="220" y="425" as="targetPoint" />
          </mxGeometry>
        </mxCell>
        <mxCell id="fhgWYbVwehgQsr0_otlm-1" value="&lt;b&gt;request-&lt;/b&gt;&lt;b&gt;device-block-lmwm&lt;/b&gt;&lt;b style=&quot;text-align: left;&quot;&gt;-stream&lt;/b&gt;" style="shape=cylinder3;whiteSpace=wrap;html=1;boundedLbl=1;backgroundOutline=1;size=15;rotation=0;direction=south;fillColor=#e1d5e7;strokeColor=#9673a6;" vertex="1" parent="1">
          <mxGeometry x="50" y="440" width="250" height="30" as="geometry" />
        </mxCell>
        <mxCell id="5n5ed3i6qj8840SfcFoe-2" style="rounded=0;orthogonalLoop=1;jettySize=auto;html=1;exitX=0.5;exitY=1;exitDx=0;exitDy=0;exitPerimeter=0;" edge="1" parent="1" source="fhgWYbVwehgQsr0_otlm-2" target="4vSoQlsN3PBgfnXqHqy_-3">
          <mxGeometry relative="1" as="geometry" />
        </mxCell>
        <mxCell id="5n5ed3i6qj8840SfcFoe-4" style="rounded=0;orthogonalLoop=1;jettySize=auto;html=1;exitX=0.5;exitY=0;exitDx=0;exitDy=0;exitPerimeter=0;" edge="1" parent="1" source="fhgWYbVwehgQsr0_otlm-2" target="4vSoQlsN3PBgfnXqHqy_-1">
          <mxGeometry relative="1" as="geometry" />
        </mxCell>
        <mxCell id="fhgWYbVwehgQsr0_otlm-2" value="&lt;font style=&quot;color: rgb(0, 0, 0); font-size: 11px; text-align: left;&quot;&gt;&lt;b style=&quot;font-size: 12px; text-align: center;&quot;&gt;response-&lt;/b&gt;&lt;/font&gt;&lt;b&gt;device-block&lt;/b&gt;&lt;b&gt;-lmwm&lt;/b&gt;&lt;b style=&quot;text-align: left;&quot;&gt;-stream&lt;/b&gt;" style="shape=cylinder3;whiteSpace=wrap;html=1;boundedLbl=1;backgroundOutline=1;size=15;direction=south;fillColor=#f8cecc;strokeColor=#b85450;" vertex="1" parent="1">
          <mxGeometry x="50" y="485" width="250" height="30" as="geometry" />
        </mxCell>
      </root>
    </mxGraphModel>
  </diagram>
  <diagram name="Clases device-block v2" id="JI-Ba7dgbz5-PsdGXbbj">
    <mxGraphModel dx="30" dy="1624" grid="1" gridSize="10" guides="1" tooltips="1" connect="1" arrows="1" fold="1" page="1" pageScale="1" pageWidth="850" pageHeight="1100" math="0" shadow="0">
      <root>
        <mxCell id="TqTWGrb2bTzUi5G6ksyU-0" />
        <mxCell id="TqTWGrb2bTzUi5G6ksyU-1" parent="TqTWGrb2bTzUi5G6ksyU-0" />
        <mxCell id="TqTWGrb2bTzUi5G6ksyU-11" value="com.mx.santander.plard.acl.microservice" style="shape=folder;fontStyle=1;spacingTop=10;tabWidth=40;tabHeight=14;tabPosition=left;html=1;whiteSpace=wrap;align=left;verticalAlign=top;" parent="TqTWGrb2bTzUi5G6ksyU-1" vertex="1">
          <mxGeometry x="1110" y="-80" width="1220" height="1620" as="geometry" />
        </mxCell>
        <mxCell id="TqTWGrb2bTzUi5G6ksyU-16" value="infraestructure" style="shape=folder;fontStyle=1;spacingTop=10;tabWidth=40;tabHeight=14;tabPosition=left;html=1;whiteSpace=wrap;align=left;verticalAlign=top;" parent="TqTWGrb2bTzUi5G6ksyU-1" vertex="1">
          <mxGeometry x="1240" y="877.5" width="1070" height="642.5" as="geometry" />
        </mxCell>
        <mxCell id="TqTWGrb2bTzUi5G6ksyU-12" value="domain" style="shape=folder;fontStyle=1;spacingTop=10;tabWidth=40;tabHeight=14;tabPosition=left;html=1;whiteSpace=wrap;align=left;verticalAlign=top;" parent="TqTWGrb2bTzUi5G6ksyU-1" vertex="1">
          <mxGeometry x="2000" y="360" width="310" height="393.5" as="geometry" />
        </mxCell>
        <mxCell id="TqTWGrb2bTzUi5G6ksyU-13" value="outbound" style="shape=folder;fontStyle=1;spacingTop=10;tabWidth=40;tabHeight=14;tabPosition=left;html=1;whiteSpace=wrap;align=left;verticalAlign=top;" parent="TqTWGrb2bTzUi5G6ksyU-1" vertex="1">
          <mxGeometry x="2020" y="552.75" width="260" height="180" as="geometry" />
        </mxCell>
        <mxCell id="TqTWGrb2bTzUi5G6ksyU-14" value="application" style="shape=folder;fontStyle=1;spacingTop=10;tabWidth=40;tabHeight=14;tabPosition=left;html=1;whiteSpace=wrap;align=left;verticalAlign=top;" parent="TqTWGrb2bTzUi5G6ksyU-1" vertex="1">
          <mxGeometry x="1160" y="550" width="800" height="310" as="geometry" />
        </mxCell>
        <mxCell id="TqTWGrb2bTzUi5G6ksyU-15" value="service" style="shape=folder;fontStyle=1;spacingTop=10;tabWidth=40;tabHeight=14;tabPosition=left;html=1;whiteSpace=wrap;align=left;verticalAlign=top;" parent="TqTWGrb2bTzUi5G6ksyU-1" vertex="1">
          <mxGeometry x="1390" y="570" width="550" height="270" as="geometry" />
        </mxCell>
        <mxCell id="TqTWGrb2bTzUi5G6ksyU-17" value="model" style="shape=folder;fontStyle=1;spacingTop=10;tabWidth=40;tabHeight=14;tabPosition=left;html=1;whiteSpace=wrap;align=left;verticalAlign=top;" parent="TqTWGrb2bTzUi5G6ksyU-1" vertex="1">
          <mxGeometry x="1421" y="1380" width="863" height="120" as="geometry" />
        </mxCell>
        <mxCell id="TqTWGrb2bTzUi5G6ksyU-18" value="transform" style="shape=folder;fontStyle=1;spacingTop=10;tabWidth=40;tabHeight=14;tabPosition=left;html=1;whiteSpace=wrap;align=left;verticalAlign=top;" parent="TqTWGrb2bTzUi5G6ksyU-1" vertex="1">
          <mxGeometry x="1424" y="1137.5" width="860" height="202.5" as="geometry" />
        </mxCell>
        <mxCell id="TqTWGrb2bTzUi5G6ksyU-20" value="interface" style="shape=folder;fontStyle=1;spacingTop=10;tabWidth=40;tabHeight=14;tabPosition=left;html=1;whiteSpace=wrap;align=left;verticalAlign=top;" parent="TqTWGrb2bTzUi5G6ksyU-1" vertex="1">
          <mxGeometry x="1440" y="-40" width="520" height="590" as="geometry" />
        </mxCell>
        <mxCell id="TqTWGrb2bTzUi5G6ksyU-21" value="model" style="shape=folder;fontStyle=1;spacingTop=10;tabWidth=40;tabHeight=14;tabPosition=left;html=1;whiteSpace=wrap;align=left;verticalAlign=top;" parent="TqTWGrb2bTzUi5G6ksyU-1" vertex="1">
          <mxGeometry x="1460" y="4" width="480" height="116" as="geometry" />
        </mxCell>
        <mxCell id="TqTWGrb2bTzUi5G6ksyU-22" value="transform" style="shape=folder;fontStyle=1;spacingTop=10;tabWidth=40;tabHeight=14;tabPosition=left;html=1;whiteSpace=wrap;align=left;verticalAlign=top;" parent="TqTWGrb2bTzUi5G6ksyU-1" vertex="1">
          <mxGeometry x="1460" y="150" width="480" height="170" as="geometry" />
        </mxCell>
        <mxCell id="TqTWGrb2bTzUi5G6ksyU-23" value="events" style="shape=folder;fontStyle=1;spacingTop=10;tabWidth=40;tabHeight=14;tabPosition=left;html=1;whiteSpace=wrap;align=left;verticalAlign=top;" parent="TqTWGrb2bTzUi5G6ksyU-1" vertex="1">
          <mxGeometry x="1460" y="360" width="480" height="170" as="geometry" />
        </mxCell>
        <mxCell id="TqTWGrb2bTzUi5G6ksyU-24" value="model" style="shape=folder;fontStyle=1;spacingTop=10;tabWidth=40;tabHeight=14;tabPosition=left;html=1;whiteSpace=wrap;align=left;verticalAlign=top;" parent="TqTWGrb2bTzUi5G6ksyU-1" vertex="1">
          <mxGeometry x="2020" y="411.5" width="190" height="118.5" as="geometry" />
        </mxCell>
        <mxCell id="TqTWGrb2bTzUi5G6ksyU-25" value="BlockCardModelDto" style="swimlane;fontStyle=1;align=center;verticalAlign=middle;childLayout=stackLayout;horizontal=1;startSize=29;horizontalStack=0;resizeParent=1;resizeParentMax=0;resizeLast=0;collapsible=0;marginBottom=0;html=1;whiteSpace=wrap;" parent="TqTWGrb2bTzUi5G6ksyU-1" vertex="1">
          <mxGeometry x="1570" y="49.5" width="180" height="54" as="geometry" />
        </mxCell>
        <mxCell id="TqTWGrb2bTzUi5G6ksyU-26" value="&amp;lt;&amp;lt;Java Bean&amp;gt;&amp;gt;" style="text;html=1;strokeColor=none;fillColor=none;align=center;verticalAlign=middle;spacingLeft=4;spacingRight=4;overflow=hidden;rotatable=0;points=[[0,0.5],[1,0.5]];portConstraint=eastwest;whiteSpace=wrap;" parent="TqTWGrb2bTzUi5G6ksyU-25" vertex="1">
          <mxGeometry y="29" width="180" height="25" as="geometry" />
        </mxCell>
        <mxCell id="TqTWGrb2bTzUi5G6ksyU-29" value="BlockCardModelDto" style="swimlane;fontStyle=1;align=center;verticalAlign=middle;childLayout=stackLayout;horizontal=1;startSize=29;horizontalStack=0;resizeParent=1;resizeParentMax=0;resizeLast=0;collapsible=0;marginBottom=0;html=1;whiteSpace=wrap;" parent="TqTWGrb2bTzUi5G6ksyU-1" vertex="1">
          <mxGeometry x="2040" y="460" width="150" height="54" as="geometry" />
        </mxCell>
        <mxCell id="TqTWGrb2bTzUi5G6ksyU-30" value="&amp;lt;&amp;lt;Java Bean&amp;gt;&amp;gt;" style="text;html=1;strokeColor=none;fillColor=none;align=center;verticalAlign=middle;spacingLeft=4;spacingRight=4;overflow=hidden;rotatable=0;points=[[0,0.5],[1,0.5]];portConstraint=eastwest;whiteSpace=wrap;" parent="TqTWGrb2bTzUi5G6ksyU-29" vertex="1">
          <mxGeometry y="29" width="150" height="25" as="geometry" />
        </mxCell>
        <mxCell id="TqTWGrb2bTzUi5G6ksyU-32" value="&amp;lt;&amp;lt;Interface&amp;gt;&amp;gt;&lt;br&gt;&lt;b style=&quot;border-color: var(--border-color);&quot;&gt;I&lt;/b&gt;&lt;b style=&quot;border-color: var(--border-color);&quot;&gt;BlockCardUserCaseService&lt;/b&gt;" style="swimlane;fontStyle=0;align=center;verticalAlign=top;childLayout=stackLayout;horizontal=1;startSize=55;horizontalStack=0;resizeParent=1;resizeParentMax=0;resizeLast=0;collapsible=0;marginBottom=0;html=1;whiteSpace=wrap;" parent="TqTWGrb2bTzUi5G6ksyU-1" vertex="1">
          <mxGeometry x="1730" y="732.75" width="190" height="100" as="geometry" />
        </mxCell>
        <mxCell id="TqTWGrb2bTzUi5G6ksyU-33" value="" style="line;strokeWidth=1;fillColor=none;align=left;verticalAlign=middle;spacingTop=-1;spacingLeft=3;spacingRight=3;rotatable=0;labelPosition=right;points=[];portConstraint=eastwest;" parent="TqTWGrb2bTzUi5G6ksyU-32" vertex="1">
          <mxGeometry y="55" width="190" height="8" as="geometry" />
        </mxCell>
        <mxCell id="TqTWGrb2bTzUi5G6ksyU-34" value="operations" style="text;html=1;strokeColor=none;fillColor=none;align=center;verticalAlign=middle;spacingLeft=4;spacingRight=4;overflow=hidden;rotatable=0;points=[[0,0.5],[1,0.5]];portConstraint=eastwest;whiteSpace=wrap;" parent="TqTWGrb2bTzUi5G6ksyU-32" vertex="1">
          <mxGeometry y="63" width="190" height="20" as="geometry" />
        </mxCell>
        <mxCell id="TqTWGrb2bTzUi5G6ksyU-35" value="addBlock(BlockCardModelDto)&lt;div&gt;&lt;div&gt;&lt;br&gt;&lt;/div&gt;&lt;/div&gt;" style="text;html=1;strokeColor=none;fillColor=none;align=left;verticalAlign=middle;spacingLeft=4;spacingRight=4;overflow=hidden;rotatable=0;points=[[0,0.5],[1,0.5]];portConstraint=eastwest;whiteSpace=wrap;" parent="TqTWGrb2bTzUi5G6ksyU-32" vertex="1">
          <mxGeometry y="83" width="190" height="17" as="geometry" />
        </mxCell>
        <mxCell id="TqTWGrb2bTzUi5G6ksyU-36" value="&lt;b style=&quot;border-color: var(--border-color);&quot;&gt;BlockCardUserCaseService&lt;/b&gt;" style="swimlane;fontStyle=1;align=center;verticalAlign=middle;childLayout=stackLayout;horizontal=1;startSize=29;horizontalStack=0;resizeParent=1;resizeParentMax=0;resizeLast=0;collapsible=0;marginBottom=0;html=1;whiteSpace=wrap;" parent="TqTWGrb2bTzUi5G6ksyU-1" vertex="1">
          <mxGeometry x="1480" y="760" width="180" height="54" as="geometry" />
        </mxCell>
        <mxCell id="TqTWGrb2bTzUi5G6ksyU-37" value="&amp;lt;&amp;lt;Java Component&amp;gt;&amp;gt;" style="text;html=1;strokeColor=none;fillColor=none;align=center;verticalAlign=middle;spacingLeft=4;spacingRight=4;overflow=hidden;rotatable=0;points=[[0,0.5],[1,0.5]];portConstraint=eastwest;whiteSpace=wrap;" parent="TqTWGrb2bTzUi5G6ksyU-36" vertex="1">
          <mxGeometry y="29" width="180" height="25" as="geometry" />
        </mxCell>
        <mxCell id="TqTWGrb2bTzUi5G6ksyU-38" value="" style="endArrow=block;startArrow=none;endFill=0;startFill=0;endSize=8;html=1;verticalAlign=bottom;dashed=1;labelBackgroundColor=none;rounded=0;" parent="TqTWGrb2bTzUi5G6ksyU-1" source="TqTWGrb2bTzUi5G6ksyU-36" target="TqTWGrb2bTzUi5G6ksyU-32" edge="1">
          <mxGeometry width="160" relative="1" as="geometry">
            <mxPoint x="1640" y="782" as="sourcePoint" />
            <mxPoint x="1800" y="782" as="targetPoint" />
          </mxGeometry>
        </mxCell>
        <mxCell id="TqTWGrb2bTzUi5G6ksyU-45" value="&amp;lt;&amp;lt;Component&amp;gt;&amp;gt;&lt;br&gt;&lt;b&gt;MessageTranslator&lt;/b&gt;" style="swimlane;fontStyle=0;align=center;verticalAlign=top;childLayout=stackLayout;horizontal=1;startSize=55;horizontalStack=0;resizeParent=1;resizeParentMax=0;resizeLast=0;collapsible=0;marginBottom=0;html=1;whiteSpace=wrap;" parent="TqTWGrb2bTzUi5G6ksyU-1" vertex="1">
          <mxGeometry x="1480" y="190" width="350" height="120" as="geometry" />
        </mxCell>
        <mxCell id="TqTWGrb2bTzUi5G6ksyU-46" value="" style="line;strokeWidth=1;fillColor=none;align=left;verticalAlign=middle;spacingTop=-1;spacingLeft=3;spacingRight=3;rotatable=0;labelPosition=right;points=[];portConstraint=eastwest;" parent="TqTWGrb2bTzUi5G6ksyU-45" vertex="1">
          <mxGeometry y="55" width="350" height="8" as="geometry" />
        </mxCell>
        <mxCell id="TqTWGrb2bTzUi5G6ksyU-47" value="operations" style="text;html=1;strokeColor=none;fillColor=none;align=center;verticalAlign=middle;spacingLeft=4;spacingRight=4;overflow=hidden;rotatable=0;points=[[0,0.5],[1,0.5]];portConstraint=eastwest;whiteSpace=wrap;" parent="TqTWGrb2bTzUi5G6ksyU-45" vertex="1">
          <mxGeometry y="63" width="350" height="20" as="geometry" />
        </mxCell>
        <mxCell id="TqTWGrb2bTzUi5G6ksyU-48" value="messageToBlockCard(string):&amp;nbsp;BlockCardModelDto&lt;br&gt;messageToBlocksInqWallet(string):&amp;nbsp;BlockCardModelDto" style="text;html=1;strokeColor=none;fillColor=none;align=left;verticalAlign=middle;spacingLeft=4;spacingRight=4;overflow=hidden;rotatable=0;points=[[0,0.5],[1,0.5]];portConstraint=eastwest;whiteSpace=wrap;" parent="TqTWGrb2bTzUi5G6ksyU-45" vertex="1">
          <mxGeometry y="83" width="350" height="37" as="geometry" />
        </mxCell>
        <mxCell id="TqTWGrb2bTzUi5G6ksyU-49" value="Use" style="endArrow=open;endSize=12;dashed=1;html=1;rounded=0;" parent="TqTWGrb2bTzUi5G6ksyU-1" source="Wa79eNEVvEBotGruCxM4-0" target="TqTWGrb2bTzUi5G6ksyU-45" edge="1">
          <mxGeometry width="160" relative="1" as="geometry">
            <mxPoint x="1660" y="403" as="sourcePoint" />
            <mxPoint x="2050" y="350" as="targetPoint" />
          </mxGeometry>
        </mxCell>
        <mxCell id="TqTWGrb2bTzUi5G6ksyU-50" value="Use" style="endArrow=open;endSize=12;dashed=1;html=1;rounded=0;exitX=0;exitY=0;exitDx=295;exitDy=14;exitPerimeter=0;entryX=0.5;entryY=1;entryDx=0;entryDy=0;entryPerimeter=0;" parent="TqTWGrb2bTzUi5G6ksyU-1" source="TqTWGrb2bTzUi5G6ksyU-15" target="TqTWGrb2bTzUi5G6ksyU-23" edge="1">
          <mxGeometry width="160" relative="1" as="geometry">
            <mxPoint x="1602" y="420" as="sourcePoint" />
            <mxPoint x="1674.3224299065419" y="513" as="targetPoint" />
          </mxGeometry>
        </mxCell>
        <mxCell id="TqTWGrb2bTzUi5G6ksyU-53" value="&amp;lt;&amp;lt;Component&amp;gt;&amp;gt;&lt;br&gt;&lt;b&gt;EventMessageTranslator&lt;/b&gt;" style="swimlane;fontStyle=0;align=center;verticalAlign=top;childLayout=stackLayout;horizontal=1;startSize=55;horizontalStack=0;resizeParent=1;resizeParentMax=0;resizeLast=0;collapsible=0;marginBottom=0;html=1;whiteSpace=wrap;" parent="TqTWGrb2bTzUi5G6ksyU-1" vertex="1">
          <mxGeometry x="2073" y="1177.5" width="200" height="120" as="geometry" />
        </mxCell>
        <mxCell id="TqTWGrb2bTzUi5G6ksyU-54" value="" style="line;strokeWidth=1;fillColor=none;align=left;verticalAlign=middle;spacingTop=-1;spacingLeft=3;spacingRight=3;rotatable=0;labelPosition=right;points=[];portConstraint=eastwest;" parent="TqTWGrb2bTzUi5G6ksyU-53" vertex="1">
          <mxGeometry y="55" width="200" height="8" as="geometry" />
        </mxCell>
        <mxCell id="TqTWGrb2bTzUi5G6ksyU-55" value="operations" style="text;html=1;strokeColor=none;fillColor=none;align=center;verticalAlign=middle;spacingLeft=4;spacingRight=4;overflow=hidden;rotatable=0;points=[[0,0.5],[1,0.5]];portConstraint=eastwest;whiteSpace=wrap;" parent="TqTWGrb2bTzUi5G6ksyU-53" vertex="1">
          <mxGeometry y="63" width="200" height="20" as="geometry" />
        </mxCell>
        <mxCell id="TqTWGrb2bTzUi5G6ksyU-56" value="&lt;div&gt;auditoriaToEvent(BlockCardModel): string&lt;br&gt;&lt;/div&gt;" style="text;html=1;strokeColor=none;fillColor=none;align=left;verticalAlign=middle;spacingLeft=4;spacingRight=4;overflow=hidden;rotatable=0;points=[[0,0.5],[1,0.5]];portConstraint=eastwest;whiteSpace=wrap;fontColor=#000000;" parent="TqTWGrb2bTzUi5G6ksyU-53" vertex="1">
          <mxGeometry y="83" width="200" height="37" as="geometry" />
        </mxCell>
        <mxCell id="TqTWGrb2bTzUi5G6ksyU-92" value="com.mx.santander.plard.acl.microservice" style="shape=folder;fontStyle=1;spacingTop=10;tabWidth=40;tabHeight=14;tabPosition=left;html=1;whiteSpace=wrap;align=left;verticalAlign=top;" parent="TqTWGrb2bTzUi5G6ksyU-1" vertex="1">
          <mxGeometry x="1210" y="1930" width="510" height="640" as="geometry" />
        </mxCell>
        <mxCell id="TqTWGrb2bTzUi5G6ksyU-93" value="Infraestructure" style="shape=folder;fontStyle=1;spacingTop=10;tabWidth=40;tabHeight=14;tabPosition=left;html=1;whiteSpace=wrap;align=left;verticalAlign=top;" parent="TqTWGrb2bTzUi5G6ksyU-1" vertex="1">
          <mxGeometry x="1230" y="2280" width="470" height="130" as="geometry" />
        </mxCell>
        <mxCell id="TqTWGrb2bTzUi5G6ksyU-94" value="domain" style="shape=folder;fontStyle=1;spacingTop=10;tabWidth=40;tabHeight=14;tabPosition=left;html=1;whiteSpace=wrap;align=left;verticalAlign=top;" parent="TqTWGrb2bTzUi5G6ksyU-1" vertex="1">
          <mxGeometry x="1230" y="2430" width="470" height="120" as="geometry" />
        </mxCell>
        <mxCell id="TqTWGrb2bTzUi5G6ksyU-95" value="application" style="shape=folder;fontStyle=1;spacingTop=10;tabWidth=40;tabHeight=14;tabPosition=left;html=1;whiteSpace=wrap;align=left;verticalAlign=top;" parent="TqTWGrb2bTzUi5G6ksyU-1" vertex="1">
          <mxGeometry x="1230" y="2130" width="470" height="130" as="geometry" />
        </mxCell>
        <mxCell id="TqTWGrb2bTzUi5G6ksyU-96" value="interface" style="shape=folder;fontStyle=1;spacingTop=10;tabWidth=40;tabHeight=14;tabPosition=left;html=1;whiteSpace=wrap;align=left;verticalAlign=top;" parent="TqTWGrb2bTzUi5G6ksyU-1" vertex="1">
          <mxGeometry x="1230" y="1980" width="470" height="130" as="geometry" />
        </mxCell>
        <mxCell id="TqTWGrb2bTzUi5G6ksyU-97" value="model" style="shape=folder;fontStyle=1;spacingTop=10;tabWidth=40;tabHeight=14;tabPosition=left;html=1;whiteSpace=wrap;align=left;verticalAlign=top;" parent="TqTWGrb2bTzUi5G6ksyU-1" vertex="1">
          <mxGeometry x="1250" y="2470" width="130" height="60" as="geometry" />
        </mxCell>
        <mxCell id="TqTWGrb2bTzUi5G6ksyU-98" value="model" style="shape=folder;fontStyle=1;spacingTop=10;tabWidth=40;tabHeight=14;tabPosition=left;html=1;whiteSpace=wrap;align=left;verticalAlign=top;" parent="TqTWGrb2bTzUi5G6ksyU-1" vertex="1">
          <mxGeometry x="1250" y="2030" width="100" height="60" as="geometry" />
        </mxCell>
        <mxCell id="TqTWGrb2bTzUi5G6ksyU-99" value="transform" style="shape=folder;fontStyle=1;spacingTop=10;tabWidth=40;tabHeight=14;tabPosition=left;html=1;whiteSpace=wrap;align=left;verticalAlign=top;" parent="TqTWGrb2bTzUi5G6ksyU-1" vertex="1">
          <mxGeometry x="1360" y="2030" width="100" height="60" as="geometry" />
        </mxCell>
        <mxCell id="TqTWGrb2bTzUi5G6ksyU-100" value="events" style="shape=folder;fontStyle=1;spacingTop=10;tabWidth=40;tabHeight=14;tabPosition=left;html=1;whiteSpace=wrap;align=left;verticalAlign=top;" parent="TqTWGrb2bTzUi5G6ksyU-1" vertex="1">
          <mxGeometry x="1470" y="2030" width="100" height="60" as="geometry" />
        </mxCell>
        <mxCell id="TqTWGrb2bTzUi5G6ksyU-101" value="outbound" style="shape=folder;fontStyle=1;spacingTop=10;tabWidth=40;tabHeight=14;tabPosition=left;html=1;whiteSpace=wrap;align=left;verticalAlign=top;" parent="TqTWGrb2bTzUi5G6ksyU-1" vertex="1">
          <mxGeometry x="1390" y="2470" width="100" height="60" as="geometry" />
        </mxCell>
        <mxCell id="TqTWGrb2bTzUi5G6ksyU-102" value="service" style="shape=folder;fontStyle=1;spacingTop=10;tabWidth=40;tabHeight=14;tabPosition=left;html=1;whiteSpace=wrap;align=left;verticalAlign=top;" parent="TqTWGrb2bTzUi5G6ksyU-1" vertex="1">
          <mxGeometry x="1250" y="2180" width="100" height="60" as="geometry" />
        </mxCell>
        <mxCell id="TqTWGrb2bTzUi5G6ksyU-103" value="model" style="shape=folder;fontStyle=1;spacingTop=10;tabWidth=40;tabHeight=14;tabPosition=left;html=1;whiteSpace=wrap;align=left;verticalAlign=top;" parent="TqTWGrb2bTzUi5G6ksyU-1" vertex="1">
          <mxGeometry x="1250" y="2330" width="100" height="60" as="geometry" />
        </mxCell>
        <mxCell id="TqTWGrb2bTzUi5G6ksyU-104" value="transform" style="shape=folder;fontStyle=1;spacingTop=10;tabWidth=40;tabHeight=14;tabPosition=left;html=1;whiteSpace=wrap;align=left;verticalAlign=top;" parent="TqTWGrb2bTzUi5G6ksyU-1" vertex="1">
          <mxGeometry x="1360" y="2330" width="100" height="60" as="geometry" />
        </mxCell>
        <mxCell id="TqTWGrb2bTzUi5G6ksyU-113" value="" style="endArrow=open;endSize=12;dashed=1;html=1;rounded=0;" parent="TqTWGrb2bTzUi5G6ksyU-1" source="TqTWGrb2bTzUi5G6ksyU-45" target="TqTWGrb2bTzUi5G6ksyU-25" edge="1">
          <mxGeometry width="160" relative="1" as="geometry">
            <mxPoint x="1670" y="413" as="sourcePoint" />
            <mxPoint x="1667" y="320" as="targetPoint" />
          </mxGeometry>
        </mxCell>
        <mxCell id="TqTWGrb2bTzUi5G6ksyU-117" value="AuditoriaDto" style="swimlane;fontStyle=1;align=center;verticalAlign=middle;childLayout=stackLayout;horizontal=1;startSize=29;horizontalStack=0;resizeParent=1;resizeParentMax=0;resizeLast=0;collapsible=0;marginBottom=0;html=1;whiteSpace=wrap;" parent="TqTWGrb2bTzUi5G6ksyU-1" vertex="1">
          <mxGeometry x="2088" y="1431" width="170" height="54" as="geometry" />
        </mxCell>
        <mxCell id="TqTWGrb2bTzUi5G6ksyU-118" value="&amp;lt;&amp;lt;Java Bean&amp;gt;&amp;gt;" style="text;html=1;strokeColor=none;fillColor=none;align=center;verticalAlign=middle;spacingLeft=4;spacingRight=4;overflow=hidden;rotatable=0;points=[[0,0.5],[1,0.5]];portConstraint=eastwest;whiteSpace=wrap;" parent="TqTWGrb2bTzUi5G6ksyU-117" vertex="1">
          <mxGeometry y="29" width="170" height="25" as="geometry" />
        </mxCell>
        <mxCell id="TqTWGrb2bTzUi5G6ksyU-119" value="" style="endArrow=open;endSize=12;dashed=1;html=1;rounded=0;" parent="TqTWGrb2bTzUi5G6ksyU-1" source="TqTWGrb2bTzUi5G6ksyU-53" target="TqTWGrb2bTzUi5G6ksyU-117" edge="1">
          <mxGeometry width="160" relative="1" as="geometry">
            <mxPoint x="1850" y="1476" as="sourcePoint" />
            <mxPoint x="1866" y="1390" as="targetPoint" />
          </mxGeometry>
        </mxCell>
        <mxCell id="Wa79eNEVvEBotGruCxM4-0" value="RedisStreamSubscriber" style="swimlane;fontStyle=1;align=center;verticalAlign=middle;childLayout=stackLayout;horizontal=1;startSize=29;horizontalStack=0;resizeParent=1;resizeParentMax=0;resizeLast=0;collapsible=0;marginBottom=0;html=1;whiteSpace=wrap;" parent="TqTWGrb2bTzUi5G6ksyU-1" vertex="1">
          <mxGeometry x="1495" y="424" width="150" height="54" as="geometry" />
        </mxCell>
        <mxCell id="Wa79eNEVvEBotGruCxM4-1" value="&amp;lt;&amp;lt;Java Component&amp;gt;&amp;gt;" style="text;html=1;strokeColor=none;fillColor=none;align=center;verticalAlign=middle;spacingLeft=4;spacingRight=4;overflow=hidden;rotatable=0;points=[[0,0.5],[1,0.5]];portConstraint=eastwest;whiteSpace=wrap;" parent="Wa79eNEVvEBotGruCxM4-0" vertex="1">
          <mxGeometry y="29" width="150" height="25" as="geometry" />
        </mxCell>
        <mxCell id="uKvE9XzDcgqIhU-lzOA2-2" value="&amp;lt;&amp;lt;Component&amp;gt;&amp;gt;&lt;br&gt;&lt;b&gt;MessageTranslator&lt;/b&gt;" style="swimlane;fontStyle=0;align=center;verticalAlign=top;childLayout=stackLayout;horizontal=1;startSize=55;horizontalStack=0;resizeParent=1;resizeParentMax=0;resizeLast=0;collapsible=0;marginBottom=0;html=1;whiteSpace=wrap;" parent="TqTWGrb2bTzUi5G6ksyU-1" vertex="1">
          <mxGeometry x="1791" y="1177.5" width="260" height="150" as="geometry" />
        </mxCell>
        <mxCell id="uKvE9XzDcgqIhU-lzOA2-3" value="" style="line;strokeWidth=1;fillColor=none;align=left;verticalAlign=middle;spacingTop=-1;spacingLeft=3;spacingRight=3;rotatable=0;labelPosition=right;points=[];portConstraint=eastwest;" parent="uKvE9XzDcgqIhU-lzOA2-2" vertex="1">
          <mxGeometry y="55" width="260" height="8" as="geometry" />
        </mxCell>
        <mxCell id="uKvE9XzDcgqIhU-lzOA2-4" value="operations" style="text;html=1;strokeColor=none;fillColor=none;align=center;verticalAlign=middle;spacingLeft=4;spacingRight=4;overflow=hidden;rotatable=0;points=[[0,0.5],[1,0.5]];portConstraint=eastwest;whiteSpace=wrap;" parent="uKvE9XzDcgqIhU-lzOA2-2" vertex="1">
          <mxGeometry y="63" width="260" height="20" as="geometry" />
        </mxCell>
        <mxCell id="uKvE9XzDcgqIhU-lzOA2-5" value="+blockCardMessage(BlockCardModel): messagePS7&lt;br&gt;+blockCardMessageLmwm(BlockCardModel): String [messagePS7]" style="text;html=1;strokeColor=none;fillColor=none;align=left;verticalAlign=middle;spacingLeft=4;spacingRight=4;overflow=hidden;rotatable=0;points=[[0,0.5],[1,0.5]];portConstraint=eastwest;whiteSpace=wrap;" parent="uKvE9XzDcgqIhU-lzOA2-2" vertex="1">
          <mxGeometry y="83" width="260" height="67" as="geometry" />
        </mxCell>
        <mxCell id="Agan_0GuKT_bURaeCjEb-0" value="rest" style="shape=folder;fontStyle=1;spacingTop=10;tabWidth=40;tabHeight=14;tabPosition=left;html=1;whiteSpace=wrap;align=left;verticalAlign=top;" parent="TqTWGrb2bTzUi5G6ksyU-1" vertex="1">
          <mxGeometry x="1574" y="938.5" width="190" height="150" as="geometry" />
        </mxCell>
        <mxCell id="N7KQ2YR4q44mEdK_9DSB-34" value="&lt;b style=&quot;border-color: var(--border-color);&quot;&gt;DeviceLifeCycleClient&lt;/b&gt;" style="swimlane;fontStyle=1;align=center;verticalAlign=middle;childLayout=stackLayout;horizontal=1;startSize=29;horizontalStack=0;resizeParent=1;resizeParentMax=0;resizeLast=0;collapsible=0;marginBottom=0;html=1;whiteSpace=wrap;" parent="TqTWGrb2bTzUi5G6ksyU-1" vertex="1">
          <mxGeometry x="1596" y="997.5" width="150" height="54" as="geometry" />
        </mxCell>
        <mxCell id="N7KQ2YR4q44mEdK_9DSB-35" value="&amp;lt;&amp;lt;API Client&amp;gt;&amp;gt;" style="text;html=1;strokeColor=none;fillColor=none;align=center;verticalAlign=middle;spacingLeft=4;spacingRight=4;overflow=hidden;rotatable=0;points=[[0,0.5],[1,0.5]];portConstraint=eastwest;whiteSpace=wrap;" parent="N7KQ2YR4q44mEdK_9DSB-34" vertex="1">
          <mxGeometry y="29" width="150" height="25" as="geometry" />
        </mxCell>
        <mxCell id="N7KQ2YR4q44mEdK_9DSB-44" value="&amp;lt;&amp;lt;Interface&amp;gt;&amp;gt;&lt;br&gt;&lt;b style=&quot;border-color: var(--border-color);&quot;&gt;I&lt;/b&gt;&lt;b style=&quot;border-color: var(--border-color);&quot;&gt;DeviceLifeCycleClient&lt;/b&gt;" style="swimlane;fontStyle=0;align=center;verticalAlign=top;childLayout=stackLayout;horizontal=1;startSize=55;horizontalStack=0;resizeParent=1;resizeParentMax=0;resizeLast=0;collapsible=0;marginBottom=0;html=1;whiteSpace=wrap;" parent="TqTWGrb2bTzUi5G6ksyU-1" vertex="1">
          <mxGeometry x="2039" y="595" width="211" height="120" as="geometry" />
        </mxCell>
        <mxCell id="N7KQ2YR4q44mEdK_9DSB-45" value="" style="line;strokeWidth=1;fillColor=none;align=left;verticalAlign=middle;spacingTop=-1;spacingLeft=3;spacingRight=3;rotatable=0;labelPosition=right;points=[];portConstraint=eastwest;" parent="N7KQ2YR4q44mEdK_9DSB-44" vertex="1">
          <mxGeometry y="55" width="211" height="8" as="geometry" />
        </mxCell>
        <mxCell id="N7KQ2YR4q44mEdK_9DSB-46" value="operations" style="text;html=1;strokeColor=none;fillColor=none;align=center;verticalAlign=middle;spacingLeft=4;spacingRight=4;overflow=hidden;rotatable=0;points=[[0,0.5],[1,0.5]];portConstraint=eastwest;whiteSpace=wrap;" parent="N7KQ2YR4q44mEdK_9DSB-44" vertex="1">
          <mxGeometry y="63" width="211" height="20" as="geometry" />
        </mxCell>
        <mxCell id="N7KQ2YR4q44mEdK_9DSB-47" value="+setBlock(BlockCardModel)&lt;div&gt;+getWalletBlocks(BlockCardModel)&lt;/div&gt;" style="text;html=1;strokeColor=none;fillColor=none;align=left;verticalAlign=middle;spacingLeft=4;spacingRight=4;overflow=hidden;rotatable=0;points=[[0,0.5],[1,0.5]];portConstraint=eastwest;whiteSpace=wrap;" parent="N7KQ2YR4q44mEdK_9DSB-44" vertex="1">
          <mxGeometry y="83" width="211" height="37" as="geometry" />
        </mxCell>
        <mxCell id="zznQSsJsS7UD_fJxzLRp-2" value="&lt;span style=&quot;text-align: left;&quot;&gt;IncludeDeviceBlockRequestDto&lt;/span&gt;" style="swimlane;fontStyle=1;align=center;verticalAlign=middle;childLayout=stackLayout;horizontal=1;startSize=29;horizontalStack=0;resizeParent=1;resizeParentMax=0;resizeLast=0;collapsible=0;marginBottom=0;html=1;whiteSpace=wrap;" parent="TqTWGrb2bTzUi5G6ksyU-1" vertex="1">
          <mxGeometry x="1439" y="1431" width="188" height="53" as="geometry" />
        </mxCell>
        <mxCell id="zznQSsJsS7UD_fJxzLRp-3" value="&amp;lt;&amp;lt;Java Bean&amp;gt;&amp;gt;" style="text;html=1;strokeColor=none;fillColor=none;align=center;verticalAlign=middle;spacingLeft=4;spacingRight=4;overflow=hidden;rotatable=0;points=[[0,0.5],[1,0.5]];portConstraint=eastwest;whiteSpace=wrap;" parent="zznQSsJsS7UD_fJxzLRp-2" vertex="1">
          <mxGeometry y="29" width="188" height="24" as="geometry" />
        </mxCell>
        <mxCell id="zznQSsJsS7UD_fJxzLRp-21" value="&amp;lt;&amp;lt;Component&amp;gt;&amp;gt;&lt;br&gt;&lt;b&gt;DeviceTranslator&lt;/b&gt;" style="swimlane;fontStyle=0;align=center;verticalAlign=top;childLayout=stackLayout;horizontal=1;startSize=55;horizontalStack=0;resizeParent=1;resizeParentMax=0;resizeLast=0;collapsible=0;marginBottom=0;html=1;whiteSpace=wrap;" parent="TqTWGrb2bTzUi5G6ksyU-1" vertex="1">
          <mxGeometry x="1473" y="1177.5" width="300" height="150" as="geometry" />
        </mxCell>
        <mxCell id="zznQSsJsS7UD_fJxzLRp-22" value="" style="line;strokeWidth=1;fillColor=none;align=left;verticalAlign=middle;spacingTop=-1;spacingLeft=3;spacingRight=3;rotatable=0;labelPosition=right;points=[];portConstraint=eastwest;" parent="zznQSsJsS7UD_fJxzLRp-21" vertex="1">
          <mxGeometry y="55" width="300" height="8" as="geometry" />
        </mxCell>
        <mxCell id="zznQSsJsS7UD_fJxzLRp-23" value="operations" style="text;html=1;strokeColor=none;fillColor=none;align=center;verticalAlign=middle;spacingLeft=4;spacingRight=4;overflow=hidden;rotatable=0;points=[[0,0.5],[1,0.5]];portConstraint=eastwest;whiteSpace=wrap;" parent="zznQSsJsS7UD_fJxzLRp-21" vertex="1">
          <mxGeometry y="63" width="300" height="20" as="geometry" />
        </mxCell>
        <mxCell id="zznQSsJsS7UD_fJxzLRp-24" value="+deviceBlockRequest(BlockCardModel):&amp;nbsp;&lt;div&gt;IncludeDeviceBlockRequestDto&lt;br&gt;+walletBlocksResp(&lt;span style=&quot;background-color: transparent; color: light-dark(rgb(0, 0, 0), rgb(255, 255, 255));&quot;&gt;GetDeviceLockSuccessResponse) : BlockCardModel&lt;br&gt;&lt;/span&gt;&lt;/div&gt;" style="text;html=1;strokeColor=none;fillColor=none;align=left;verticalAlign=middle;spacingLeft=4;spacingRight=4;overflow=hidden;rotatable=0;points=[[0,0.5],[1,0.5]];portConstraint=eastwest;whiteSpace=wrap;" parent="zznQSsJsS7UD_fJxzLRp-21" vertex="1">
          <mxGeometry y="83" width="300" height="67" as="geometry" />
        </mxCell>
        <mxCell id="Rf5Mfqxlge6q0srYDeox-0" value="" style="endArrow=open;endSize=12;dashed=1;html=1;rounded=0;" parent="TqTWGrb2bTzUi5G6ksyU-1" source="zznQSsJsS7UD_fJxzLRp-21" target="zznQSsJsS7UD_fJxzLRp-2" edge="1">
          <mxGeometry width="160" relative="1" as="geometry">
            <mxPoint x="1465" y="1246" as="sourcePoint" />
            <mxPoint x="695" y="1220" as="targetPoint" />
          </mxGeometry>
        </mxCell>
        <mxCell id="Rf5Mfqxlge6q0srYDeox-15" value="Use" style="endArrow=open;endSize=12;dashed=1;html=1;rounded=0;" parent="TqTWGrb2bTzUi5G6ksyU-1" source="TqTWGrb2bTzUi5G6ksyU-36" target="Rf5Mfqxlge6q0srYDeox-22" edge="1">
          <mxGeometry width="160" relative="1" as="geometry">
            <mxPoint x="1658" y="774" as="sourcePoint" />
            <mxPoint x="1260" y="950" as="targetPoint" />
          </mxGeometry>
        </mxCell>
        <mxCell id="Rf5Mfqxlge6q0srYDeox-18" value="Use" style="endArrow=open;endSize=12;dashed=1;html=1;rounded=0;" parent="TqTWGrb2bTzUi5G6ksyU-1" source="N7KQ2YR4q44mEdK_9DSB-34" target="zznQSsJsS7UD_fJxzLRp-21" edge="1">
          <mxGeometry width="160" relative="1" as="geometry">
            <mxPoint x="1649" y="1051" as="sourcePoint" />
            <mxPoint x="1600" y="1188" as="targetPoint" />
          </mxGeometry>
        </mxCell>
        <mxCell id="wKwZeMfkoOWU7Sykeua5-1" value="" style="endArrow=block;startArrow=none;endFill=0;startFill=0;endSize=8;html=1;verticalAlign=bottom;dashed=1;labelBackgroundColor=none;rounded=0;jumpStyle=arc;jumpSize=12;edgeStyle=orthogonalEdgeStyle;" parent="TqTWGrb2bTzUi5G6ksyU-1" source="N7KQ2YR4q44mEdK_9DSB-34" target="N7KQ2YR4q44mEdK_9DSB-44" edge="1">
          <mxGeometry width="160" relative="1" as="geometry">
            <mxPoint x="2264" y="1017" as="sourcePoint" />
            <mxPoint x="2580" y="725" as="targetPoint" />
          </mxGeometry>
        </mxCell>
        <mxCell id="Rf5Mfqxlge6q0srYDeox-22" value="1" style="ellipse;whiteSpace=wrap;html=1;aspect=fixed;" parent="TqTWGrb2bTzUi5G6ksyU-1" vertex="1">
          <mxGeometry x="1560" y="900" width="20" height="20" as="geometry" />
        </mxCell>
        <mxCell id="Rf5Mfqxlge6q0srYDeox-27" value="Use" style="endArrow=open;endSize=12;dashed=1;html=1;rounded=0;" parent="TqTWGrb2bTzUi5G6ksyU-1" source="Rf5Mfqxlge6q0srYDeox-28" target="N7KQ2YR4q44mEdK_9DSB-34" edge="1">
          <mxGeometry width="160" relative="1" as="geometry">
            <mxPoint x="1424" y="1110" as="sourcePoint" />
            <mxPoint x="1424" y="1062" as="targetPoint" />
          </mxGeometry>
        </mxCell>
        <mxCell id="Rf5Mfqxlge6q0srYDeox-28" value="1" style="ellipse;whiteSpace=wrap;html=1;aspect=fixed;" parent="TqTWGrb2bTzUi5G6ksyU-1" vertex="1">
          <mxGeometry x="1681" y="1100" width="20" height="20" as="geometry" />
        </mxCell>
        <mxCell id="Rf5Mfqxlge6q0srYDeox-31" value="1" style="ellipse;whiteSpace=wrap;html=1;aspect=fixed;" parent="TqTWGrb2bTzUi5G6ksyU-1" vertex="1">
          <mxGeometry x="1899" y="1100" width="20" height="20" as="geometry" />
        </mxCell>
        <mxCell id="Rf5Mfqxlge6q0srYDeox-32" value="Use" style="endArrow=open;endSize=12;dashed=1;html=1;rounded=0;" parent="TqTWGrb2bTzUi5G6ksyU-1" source="Rf5Mfqxlge6q0srYDeox-31" target="uKvE9XzDcgqIhU-lzOA2-2" edge="1">
          <mxGeometry width="160" relative="1" as="geometry">
            <mxPoint x="1706" y="1110" as="sourcePoint" />
            <mxPoint x="1906" y="1052.75" as="targetPoint" />
          </mxGeometry>
        </mxCell>
        <mxCell id="Rf5Mfqxlge6q0srYDeox-33" value="1" style="ellipse;whiteSpace=wrap;html=1;aspect=fixed;" parent="TqTWGrb2bTzUi5G6ksyU-1" vertex="1">
          <mxGeometry x="2151" y="1100" width="20" height="20" as="geometry" />
        </mxCell>
        <mxCell id="Rf5Mfqxlge6q0srYDeox-34" value="Use" style="endArrow=open;endSize=12;dashed=1;html=1;rounded=0;" parent="TqTWGrb2bTzUi5G6ksyU-1" source="Rf5Mfqxlge6q0srYDeox-33" target="TqTWGrb2bTzUi5G6ksyU-53" edge="1">
          <mxGeometry x="-0.0084" width="160" relative="1" as="geometry">
            <mxPoint x="2041" y="1108.75" as="sourcePoint" />
            <mxPoint x="2173" y="1178" as="targetPoint" />
            <mxPoint as="offset" />
          </mxGeometry>
        </mxCell>
        <mxCell id="7rTWBJlFRRSO-gipg-cF-0" value="rest" style="shape=folder;fontStyle=1;spacingTop=10;tabWidth=40;tabHeight=14;tabPosition=left;html=1;whiteSpace=wrap;align=left;verticalAlign=top;" parent="TqTWGrb2bTzUi5G6ksyU-1" vertex="1">
          <mxGeometry x="1470" y="2330" width="100" height="60" as="geometry" />
        </mxCell>
        <mxCell id="69Sb1QgLDkjK3XFCIqs0-16" value="config" style="shape=folder;fontStyle=1;spacingTop=10;tabWidth=40;tabHeight=14;tabPosition=left;html=1;whiteSpace=wrap;align=left;verticalAlign=top;" parent="TqTWGrb2bTzUi5G6ksyU-1" vertex="1">
          <mxGeometry x="1172" y="633.5" width="200" height="206.5" as="geometry" />
        </mxCell>
        <mxCell id="69Sb1QgLDkjK3XFCIqs0-17" value="RedisConfig" style="swimlane;fontStyle=1;align=center;verticalAlign=middle;childLayout=stackLayout;horizontal=1;startSize=29;horizontalStack=0;resizeParent=1;resizeParentMax=0;resizeLast=0;collapsible=0;marginBottom=0;html=1;whiteSpace=wrap;" parent="TqTWGrb2bTzUi5G6ksyU-1" vertex="1">
          <mxGeometry x="1182" y="678.75" width="180" height="54" as="geometry" />
        </mxCell>
        <mxCell id="69Sb1QgLDkjK3XFCIqs0-18" value="&amp;lt;&amp;lt;Java Component&amp;gt;&amp;gt;" style="text;html=1;strokeColor=none;fillColor=none;align=center;verticalAlign=middle;spacingLeft=4;spacingRight=4;overflow=hidden;rotatable=0;points=[[0,0.5],[1,0.5]];portConstraint=eastwest;whiteSpace=wrap;" parent="69Sb1QgLDkjK3XFCIqs0-17" vertex="1">
          <mxGeometry y="29" width="180" height="25" as="geometry" />
        </mxCell>
        <mxCell id="69Sb1QgLDkjK3XFCIqs0-19" value="FeignConfig" style="swimlane;fontStyle=1;align=center;verticalAlign=middle;childLayout=stackLayout;horizontal=1;startSize=29;horizontalStack=0;resizeParent=1;resizeParentMax=0;resizeLast=0;collapsible=0;marginBottom=0;html=1;whiteSpace=wrap;" parent="TqTWGrb2bTzUi5G6ksyU-1" vertex="1">
          <mxGeometry x="1182" y="743" width="180" height="54" as="geometry" />
        </mxCell>
        <mxCell id="69Sb1QgLDkjK3XFCIqs0-20" value="&amp;lt;&amp;lt;Java Component&amp;gt;&amp;gt;" style="text;html=1;strokeColor=none;fillColor=none;align=center;verticalAlign=middle;spacingLeft=4;spacingRight=4;overflow=hidden;rotatable=0;points=[[0,0.5],[1,0.5]];portConstraint=eastwest;whiteSpace=wrap;" parent="69Sb1QgLDkjK3XFCIqs0-19" vertex="1">
          <mxGeometry y="29" width="180" height="25" as="geometry" />
        </mxCell>
        <mxCell id="NS-fCNeuC-YKiaKMK2Co-0" value="config" style="shape=folder;fontStyle=1;spacingTop=10;tabWidth=40;tabHeight=14;tabPosition=left;html=1;whiteSpace=wrap;align=left;verticalAlign=top;" parent="TqTWGrb2bTzUi5G6ksyU-1" vertex="1">
          <mxGeometry x="1360" y="2180" width="100" height="60" as="geometry" />
        </mxCell>
        <mxCell id="_Mu_EOZKArq2v12zgWaS-0" value="&amp;lt;&amp;lt;Interface&amp;gt;&amp;gt;&lt;br&gt;&lt;b style=&quot;border-color: var(--border-color);&quot;&gt;I&lt;/b&gt;&lt;b style=&quot;border-color: var(--border-color);&quot;&gt;BlockCardInqWalletUserCaseService&lt;/b&gt;" style="swimlane;fontStyle=0;align=center;verticalAlign=top;childLayout=stackLayout;horizontal=1;startSize=55;horizontalStack=0;resizeParent=1;resizeParentMax=0;resizeLast=0;collapsible=0;marginBottom=0;html=1;whiteSpace=wrap;" parent="TqTWGrb2bTzUi5G6ksyU-1" vertex="1">
          <mxGeometry x="1700" y="605" width="230" height="110" as="geometry" />
        </mxCell>
        <mxCell id="_Mu_EOZKArq2v12zgWaS-1" value="" style="line;strokeWidth=1;fillColor=none;align=left;verticalAlign=middle;spacingTop=-1;spacingLeft=3;spacingRight=3;rotatable=0;labelPosition=right;points=[];portConstraint=eastwest;" parent="_Mu_EOZKArq2v12zgWaS-0" vertex="1">
          <mxGeometry y="55" width="230" height="8" as="geometry" />
        </mxCell>
        <mxCell id="_Mu_EOZKArq2v12zgWaS-2" value="operations" style="text;html=1;strokeColor=none;fillColor=none;align=center;verticalAlign=middle;spacingLeft=4;spacingRight=4;overflow=hidden;rotatable=0;points=[[0,0.5],[1,0.5]];portConstraint=eastwest;whiteSpace=wrap;" parent="_Mu_EOZKArq2v12zgWaS-0" vertex="1">
          <mxGeometry y="63" width="230" height="20" as="geometry" />
        </mxCell>
        <mxCell id="_Mu_EOZKArq2v12zgWaS-3" value="+getWalletBlocks(BlockCardModelDto)&lt;div&gt;&lt;div&gt;&lt;br&gt;&lt;/div&gt;&lt;/div&gt;" style="text;html=1;strokeColor=none;fillColor=none;align=left;verticalAlign=middle;spacingLeft=4;spacingRight=4;overflow=hidden;rotatable=0;points=[[0,0.5],[1,0.5]];portConstraint=eastwest;whiteSpace=wrap;" parent="_Mu_EOZKArq2v12zgWaS-0" vertex="1">
          <mxGeometry y="83" width="230" height="27" as="geometry" />
        </mxCell>
        <mxCell id="_Mu_EOZKArq2v12zgWaS-4" value="&lt;b style=&quot;border-color: var(--border-color);&quot;&gt;&lt;b style=&quot;border-color: var(--border-color);&quot;&gt;BlockCardInqWallet&lt;/b&gt;UserCaseService&lt;/b&gt;" style="swimlane;fontStyle=1;align=center;verticalAlign=middle;childLayout=stackLayout;horizontal=1;startSize=29;horizontalStack=0;resizeParent=1;resizeParentMax=0;resizeLast=0;collapsible=0;marginBottom=0;html=1;whiteSpace=wrap;" parent="TqTWGrb2bTzUi5G6ksyU-1" vertex="1">
          <mxGeometry x="1400" y="640" width="220" height="54" as="geometry" />
        </mxCell>
        <mxCell id="_Mu_EOZKArq2v12zgWaS-5" value="&amp;lt;&amp;lt;Java Component&amp;gt;&amp;gt;" style="text;html=1;strokeColor=none;fillColor=none;align=center;verticalAlign=middle;spacingLeft=4;spacingRight=4;overflow=hidden;rotatable=0;points=[[0,0.5],[1,0.5]];portConstraint=eastwest;whiteSpace=wrap;" parent="_Mu_EOZKArq2v12zgWaS-4" vertex="1">
          <mxGeometry y="29" width="220" height="25" as="geometry" />
        </mxCell>
        <mxCell id="_Mu_EOZKArq2v12zgWaS-6" value="" style="endArrow=block;startArrow=none;endFill=0;startFill=0;endSize=8;html=1;verticalAlign=bottom;dashed=1;labelBackgroundColor=none;rounded=0;" parent="TqTWGrb2bTzUi5G6ksyU-1" source="_Mu_EOZKArq2v12zgWaS-4" target="_Mu_EOZKArq2v12zgWaS-0" edge="1">
          <mxGeometry width="160" relative="1" as="geometry">
            <mxPoint x="1670" y="796" as="sourcePoint" />
            <mxPoint x="1740" y="794" as="targetPoint" />
          </mxGeometry>
        </mxCell>
        <mxCell id="_Mu_EOZKArq2v12zgWaS-7" value="RedisStreamSubscriberLmwm" style="swimlane;fontStyle=1;align=center;verticalAlign=middle;childLayout=stackLayout;horizontal=1;startSize=29;horizontalStack=0;resizeParent=1;resizeParentMax=0;resizeLast=0;collapsible=0;marginBottom=0;html=1;whiteSpace=wrap;" parent="TqTWGrb2bTzUi5G6ksyU-1" vertex="1">
          <mxGeometry x="1670" y="424" width="180" height="54" as="geometry" />
        </mxCell>
        <mxCell id="_Mu_EOZKArq2v12zgWaS-8" value="&amp;lt;&amp;lt;Java Component&amp;gt;&amp;gt;" style="text;html=1;strokeColor=none;fillColor=none;align=center;verticalAlign=middle;spacingLeft=4;spacingRight=4;overflow=hidden;rotatable=0;points=[[0,0.5],[1,0.5]];portConstraint=eastwest;whiteSpace=wrap;" parent="_Mu_EOZKArq2v12zgWaS-7" vertex="1">
          <mxGeometry y="29" width="180" height="25" as="geometry" />
        </mxCell>
        <mxCell id="pou2Jwp8Wj67lGFZ1KCe-0" value="Use" style="endArrow=open;endSize=12;dashed=1;html=1;rounded=0;" parent="TqTWGrb2bTzUi5G6ksyU-1" source="_Mu_EOZKArq2v12zgWaS-7" target="TqTWGrb2bTzUi5G6ksyU-45" edge="1">
          <mxGeometry width="160" relative="1" as="geometry">
            <mxPoint x="1591" y="434" as="sourcePoint" />
            <mxPoint x="1642" y="310" as="targetPoint" />
          </mxGeometry>
        </mxCell>
        <mxCell id="pou2Jwp8Wj67lGFZ1KCe-1" value="2" style="ellipse;whiteSpace=wrap;html=1;aspect=fixed;" parent="TqTWGrb2bTzUi5G6ksyU-1" vertex="1">
          <mxGeometry x="1495" y="726.75" width="20" height="20" as="geometry" />
        </mxCell>
        <mxCell id="pou2Jwp8Wj67lGFZ1KCe-2" value="Use" style="endArrow=open;endSize=12;dashed=1;html=1;rounded=0;entryX=0.5;entryY=0;entryDx=0;entryDy=0;" parent="TqTWGrb2bTzUi5G6ksyU-1" source="_Mu_EOZKArq2v12zgWaS-4" target="pou2Jwp8Wj67lGFZ1KCe-1" edge="1">
          <mxGeometry width="160" relative="1" as="geometry">
            <mxPoint x="1580" y="824" as="sourcePoint" />
            <mxPoint x="1579" y="949" as="targetPoint" />
          </mxGeometry>
        </mxCell>
        <mxCell id="2I_Y38K1CHtRoM8ujtRL-3" value="&lt;span style=&quot;text-align: left;&quot;&gt;GetDeviceLockSuccessResponse&lt;/span&gt;" style="swimlane;fontStyle=1;align=center;verticalAlign=middle;childLayout=stackLayout;horizontal=1;startSize=29;horizontalStack=0;resizeParent=1;resizeParentMax=0;resizeLast=0;collapsible=0;marginBottom=0;html=1;whiteSpace=wrap;" parent="TqTWGrb2bTzUi5G6ksyU-1" vertex="1">
          <mxGeometry x="1636" y="1431" width="200" height="53" as="geometry" />
        </mxCell>
        <mxCell id="2I_Y38K1CHtRoM8ujtRL-4" value="&amp;lt;&amp;lt;Java Bean&amp;gt;&amp;gt;" style="text;html=1;strokeColor=none;fillColor=none;align=center;verticalAlign=middle;spacingLeft=4;spacingRight=4;overflow=hidden;rotatable=0;points=[[0,0.5],[1,0.5]];portConstraint=eastwest;whiteSpace=wrap;" parent="2I_Y38K1CHtRoM8ujtRL-3" vertex="1">
          <mxGeometry y="29" width="200" height="24" as="geometry" />
        </mxCell>
        <mxCell id="2I_Y38K1CHtRoM8ujtRL-5" value="" style="endArrow=open;endSize=12;dashed=1;html=1;rounded=0;" parent="TqTWGrb2bTzUi5G6ksyU-1" source="zznQSsJsS7UD_fJxzLRp-21" target="2I_Y38K1CHtRoM8ujtRL-3" edge="1">
          <mxGeometry width="160" relative="1" as="geometry">
            <mxPoint x="1608" y="1328" as="sourcePoint" />
            <mxPoint x="1608" y="1441" as="targetPoint" />
          </mxGeometry>
        </mxCell>
        <mxCell id="I__HJgpKBBhGNwVAmU3c-0" value="2" style="ellipse;whiteSpace=wrap;html=1;aspect=fixed;" parent="TqTWGrb2bTzUi5G6ksyU-1" vertex="1">
          <mxGeometry x="1931" y="1100" width="20" height="20" as="geometry" />
        </mxCell>
        <mxCell id="I__HJgpKBBhGNwVAmU3c-1" value="Use" style="endArrow=open;endSize=12;dashed=1;html=1;rounded=0;" parent="TqTWGrb2bTzUi5G6ksyU-1" source="I__HJgpKBBhGNwVAmU3c-0" target="uKvE9XzDcgqIhU-lzOA2-2" edge="1">
          <mxGeometry width="160" relative="1" as="geometry">
            <mxPoint x="1931" y="1130" as="sourcePoint" />
            <mxPoint x="1931" y="1188" as="targetPoint" />
          </mxGeometry>
        </mxCell>
        <mxCell id="I__HJgpKBBhGNwVAmU3c-2" value="2" style="ellipse;whiteSpace=wrap;html=1;aspect=fixed;" parent="TqTWGrb2bTzUi5G6ksyU-1" vertex="1">
          <mxGeometry x="2191" y="1100" width="20" height="20" as="geometry" />
        </mxCell>
        <mxCell id="I__HJgpKBBhGNwVAmU3c-3" value="Use" style="endArrow=open;endSize=12;dashed=1;html=1;rounded=0;" parent="TqTWGrb2bTzUi5G6ksyU-1" source="I__HJgpKBBhGNwVAmU3c-2" target="TqTWGrb2bTzUi5G6ksyU-53" edge="1">
          <mxGeometry width="160" relative="1" as="geometry">
            <mxPoint x="2173" y="1130" as="sourcePoint" />
            <mxPoint x="2183" y="1188" as="targetPoint" />
          </mxGeometry>
        </mxCell>
        <mxCell id="I__HJgpKBBhGNwVAmU3c-4" value="2" style="ellipse;whiteSpace=wrap;html=1;aspect=fixed;" parent="TqTWGrb2bTzUi5G6ksyU-1" vertex="1">
          <mxGeometry x="1717" y="1100" width="20" height="20" as="geometry" />
        </mxCell>
        <mxCell id="I__HJgpKBBhGNwVAmU3c-5" value="Use" style="endArrow=open;endSize=12;dashed=1;html=1;rounded=0;" parent="TqTWGrb2bTzUi5G6ksyU-1" source="I__HJgpKBBhGNwVAmU3c-4" target="N7KQ2YR4q44mEdK_9DSB-34" edge="1">
          <mxGeometry width="160" relative="1" as="geometry">
            <mxPoint x="1699" y="1110" as="sourcePoint" />
            <mxPoint x="1687" y="1062" as="targetPoint" />
          </mxGeometry>
        </mxCell>
      </root>
    </mxGraphModel>
  </diagram>
  <diagram id="xzMOAq8O50djE-sIStqB" name="Secuencia device-block MPA2">
    <mxGraphModel dx="-3255" dy="524" grid="1" gridSize="10" guides="1" tooltips="1" connect="1" arrows="1" fold="1" page="1" pageScale="1" pageWidth="827" pageHeight="1169" math="0" shadow="0">
      <root>
        <mxCell id="0" />
        <mxCell id="1" parent="0" />
        <mxCell id="u_ikIUAgD8pRpMzlzjLt-1" value="BlockCardModel" style="shape=umlLifeline;perimeter=lifelinePerimeter;whiteSpace=wrap;html=1;container=1;dropTarget=0;collapsible=0;recursiveResize=0;outlineConnect=0;portConstraint=eastwest;newEdgeStyle={&quot;curved&quot;:0,&quot;rounded&quot;:0};" parent="1" vertex="1">
          <mxGeometry x="6060" y="478.5" width="130" height="691.5" as="geometry" />
        </mxCell>
        <mxCell id="u_ikIUAgD8pRpMzlzjLt-2" value="" style="html=1;points=[[0,0,0,0,5],[0,1,0,0,-5],[1,0,0,0,5],[1,1,0,0,-5]];perimeter=orthogonalPerimeter;outlineConnect=0;targetShapes=umlLifeline;portConstraint=eastwest;newEdgeStyle={&quot;curved&quot;:0,&quot;rounded&quot;:0};" parent="u_ikIUAgD8pRpMzlzjLt-1" vertex="1">
          <mxGeometry x="60" y="270" width="10" height="390" as="geometry" />
        </mxCell>
        <mxCell id="u_ikIUAgD8pRpMzlzjLt-3" value="BlockCardModelDto" style="shape=umlLifeline;perimeter=lifelinePerimeter;whiteSpace=wrap;html=1;container=1;dropTarget=0;collapsible=0;recursiveResize=0;outlineConnect=0;portConstraint=eastwest;newEdgeStyle={&quot;curved&quot;:0,&quot;rounded&quot;:0};" parent="1" vertex="1">
          <mxGeometry x="5680" y="479.5" width="130" height="690.5" as="geometry" />
        </mxCell>
        <mxCell id="u_ikIUAgD8pRpMzlzjLt-4" value="" style="html=1;points=[[0,0,0,0,5],[0,1,0,0,-5],[1,0,0,0,5],[1,1,0,0,-5]];perimeter=orthogonalPerimeter;outlineConnect=0;targetShapes=umlLifeline;portConstraint=eastwest;newEdgeStyle={&quot;curved&quot;:0,&quot;rounded&quot;:0};" parent="u_ikIUAgD8pRpMzlzjLt-3" vertex="1">
          <mxGeometry x="60" y="198.5" width="10" height="30" as="geometry" />
        </mxCell>
        <mxCell id="u_ikIUAgD8pRpMzlzjLt-5" value="&lt;span style=&quot;border-color: var(--border-color);&quot;&gt;MessageTranslator&lt;/span&gt;" style="shape=umlLifeline;perimeter=lifelinePerimeter;whiteSpace=wrap;html=1;container=1;dropTarget=0;collapsible=0;recursiveResize=0;outlineConnect=0;portConstraint=eastwest;newEdgeStyle={&quot;curved&quot;:0,&quot;rounded&quot;:0};" parent="1" vertex="1">
          <mxGeometry x="5500" y="479.5" width="140" height="690.5" as="geometry" />
        </mxCell>
        <mxCell id="u_ikIUAgD8pRpMzlzjLt-6" value="" style="html=1;points=[[0,0,0,0,5],[0,1,0,0,-5],[1,0,0,0,5],[1,1,0,0,-5]];perimeter=orthogonalPerimeter;outlineConnect=0;targetShapes=umlLifeline;portConstraint=eastwest;newEdgeStyle={&quot;curved&quot;:0,&quot;rounded&quot;:0};" parent="u_ikIUAgD8pRpMzlzjLt-5" vertex="1">
          <mxGeometry x="65" y="186.5" width="10" height="63.5" as="geometry" />
        </mxCell>
        <mxCell id="u_ikIUAgD8pRpMzlzjLt-7" value="create()" style="html=1;verticalAlign=bottom;endArrow=block;curved=0;rounded=0;" parent="u_ikIUAgD8pRpMzlzjLt-5" target="u_ikIUAgD8pRpMzlzjLt-4" edge="1">
          <mxGeometry relative="1" as="geometry">
            <mxPoint x="75" y="206.5" as="sourcePoint" />
            <mxPoint x="240" y="206.5" as="targetPoint" />
          </mxGeometry>
        </mxCell>
        <mxCell id="u_ikIUAgD8pRpMzlzjLt-8" value="&lt;div&gt;&lt;span style=&quot;font-weight: 400;&quot;&gt;Device Life Cycle&lt;/span&gt;&lt;br&gt;&lt;/div&gt;&lt;span style=&quot;font-weight: 400;&quot;&gt;&amp;lt;&amp;lt;API PLARD&amp;gt;&amp;gt;&lt;/span&gt;" style="shape=umlLifeline;perimeter=lifelinePerimeter;whiteSpace=wrap;html=1;container=1;dropTarget=0;collapsible=0;recursiveResize=0;outlineConnect=0;portConstraint=eastwest;newEdgeStyle={&quot;curved&quot;:0,&quot;rounded&quot;:0};fontStyle=1;fillColor=#dae8fc;strokeColor=#6c8ebf;" parent="1" vertex="1">
          <mxGeometry x="6800" y="481" width="100" height="689" as="geometry" />
        </mxCell>
        <mxCell id="u_ikIUAgD8pRpMzlzjLt-9" value="" style="html=1;points=[[0,0,0,0,5],[0,1,0,0,-5],[1,0,0,0,5],[1,1,0,0,-5]];perimeter=orthogonalPerimeter;outlineConnect=0;targetShapes=umlLifeline;portConstraint=eastwest;newEdgeStyle={&quot;curved&quot;:0,&quot;rounded&quot;:0};" parent="u_ikIUAgD8pRpMzlzjLt-8" vertex="1">
          <mxGeometry x="45" y="406.25" width="10" height="44" as="geometry" />
        </mxCell>
        <mxCell id="u_ikIUAgD8pRpMzlzjLt-10" value="RedisStreamSubscriber" style="shape=umlLifeline;perimeter=lifelinePerimeter;whiteSpace=wrap;html=1;container=1;dropTarget=0;collapsible=0;recursiveResize=0;outlineConnect=0;portConstraint=eastwest;newEdgeStyle={&quot;curved&quot;:0,&quot;rounded&quot;:0};" parent="1" vertex="1">
          <mxGeometry x="5320" y="480.5" width="140" height="689.5" as="geometry" />
        </mxCell>
        <mxCell id="u_ikIUAgD8pRpMzlzjLt-11" value="" style="html=1;points=[[0,0,0,0,5],[0,1,0,0,-5],[1,0,0,0,5],[1,1,0,0,-5]];perimeter=orthogonalPerimeter;outlineConnect=0;targetShapes=umlLifeline;portConstraint=eastwest;newEdgeStyle={&quot;curved&quot;:0,&quot;rounded&quot;:0};" parent="u_ikIUAgD8pRpMzlzjLt-10" vertex="1">
          <mxGeometry x="65" y="70" width="10" height="230" as="geometry" />
        </mxCell>
        <mxCell id="u_ikIUAgD8pRpMzlzjLt-12" value="&lt;span style=&quot;border-color: var(--border-color);&quot;&gt;BlockCardUserCaseService&lt;/span&gt;" style="shape=umlLifeline;perimeter=lifelinePerimeter;whiteSpace=wrap;html=1;container=1;dropTarget=0;collapsible=0;recursiveResize=0;outlineConnect=0;portConstraint=eastwest;newEdgeStyle={&quot;curved&quot;:0,&quot;rounded&quot;:0};" parent="1" vertex="1">
          <mxGeometry x="5850" y="478.5" width="170" height="691.5" as="geometry" />
        </mxCell>
        <mxCell id="u_ikIUAgD8pRpMzlzjLt-13" value="" style="html=1;points=[[0,0,0,0,5],[0,1,0,0,-5],[1,0,0,0,5],[1,1,0,0,-5]];perimeter=orthogonalPerimeter;outlineConnect=0;targetShapes=umlLifeline;portConstraint=eastwest;newEdgeStyle={&quot;curved&quot;:0,&quot;rounded&quot;:0};" parent="u_ikIUAgD8pRpMzlzjLt-12" vertex="1">
          <mxGeometry x="80" y="257" width="10" height="403" as="geometry" />
        </mxCell>
        <mxCell id="u_ikIUAgD8pRpMzlzjLt-14" value="&lt;span style=&quot;font-size: 11px; text-align: left; text-wrap: wrap; background-color: rgb(251, 251, 251);&quot;&gt;addBlock(BlockCardModelDto)&lt;/span&gt;" style="html=1;verticalAlign=bottom;endArrow=block;curved=0;rounded=0;fontSize=11;" parent="1" edge="1">
          <mxGeometry width="80" relative="1" as="geometry">
            <mxPoint x="5394.999999999999" y="749.5" as="sourcePoint" />
            <mxPoint x="5930" y="749.5" as="targetPoint" />
            <mxPoint as="offset" />
          </mxGeometry>
        </mxCell>
        <mxCell id="u_ikIUAgD8pRpMzlzjLt-15" value="setBlock(BlockCardModel)" style="html=1;verticalAlign=bottom;endArrow=block;curved=0;rounded=0;" parent="1" target="u_ikIUAgD8pRpMzlzjLt-17" edge="1">
          <mxGeometry width="80" relative="1" as="geometry">
            <mxPoint x="5940" y="813" as="sourcePoint" />
            <mxPoint x="6631" y="813" as="targetPoint" />
          </mxGeometry>
        </mxCell>
        <mxCell id="u_ikIUAgD8pRpMzlzjLt-16" value="DeviceLifeCycleClient" style="shape=umlLifeline;perimeter=lifelinePerimeter;whiteSpace=wrap;html=1;container=1;dropTarget=0;collapsible=0;recursiveResize=0;outlineConnect=0;portConstraint=eastwest;newEdgeStyle={&quot;curved&quot;:0,&quot;rounded&quot;:0};" parent="1" vertex="1">
          <mxGeometry x="6230" y="479.25" width="130" height="690.75" as="geometry" />
        </mxCell>
        <mxCell id="u_ikIUAgD8pRpMzlzjLt-17" value="" style="html=1;points=[[0,0,0,0,5],[0,1,0,0,-5],[1,0,0,0,5],[1,1,0,0,-5]];perimeter=orthogonalPerimeter;outlineConnect=0;targetShapes=umlLifeline;portConstraint=eastwest;newEdgeStyle={&quot;curved&quot;:0,&quot;rounded&quot;:0};" parent="u_ikIUAgD8pRpMzlzjLt-16" vertex="1">
          <mxGeometry x="61" y="316.5" width="10" height="147.5" as="geometry" />
        </mxCell>
        <mxCell id="u_ikIUAgD8pRpMzlzjLt-19" value="&lt;span style=&quot;border-color: var(--border-color); font-weight: normal;&quot;&gt;EventKafkaPublisher&lt;/span&gt;" style="shape=umlLifeline;perimeter=lifelinePerimeter;whiteSpace=wrap;html=1;container=1;dropTarget=0;collapsible=0;recursiveResize=0;outlineConnect=0;portConstraint=eastwest;newEdgeStyle={&quot;curved&quot;:0,&quot;rounded&quot;:0};fontStyle=1" parent="1" vertex="1">
          <mxGeometry x="7320" y="482.25" width="120" height="687.75" as="geometry" />
        </mxCell>
        <mxCell id="u_ikIUAgD8pRpMzlzjLt-20" value="Canal Santander" style="shape=umlLifeline;perimeter=lifelinePerimeter;whiteSpace=wrap;html=1;container=1;dropTarget=0;collapsible=0;recursiveResize=0;outlineConnect=0;portConstraint=eastwest;newEdgeStyle={&quot;curved&quot;:0,&quot;rounded&quot;:0};" parent="1" vertex="1">
          <mxGeometry x="4600" y="479.5" width="140" height="690.5" as="geometry" />
        </mxCell>
        <mxCell id="u_ikIUAgD8pRpMzlzjLt-21" value="" style="html=1;points=[[0,0,0,0,5],[0,1,0,0,-5],[1,0,0,0,5],[1,1,0,0,-5]];perimeter=orthogonalPerimeter;outlineConnect=0;targetShapes=umlLifeline;portConstraint=eastwest;newEdgeStyle={&quot;curved&quot;:0,&quot;rounded&quot;:0};" parent="u_ikIUAgD8pRpMzlzjLt-20" vertex="1">
          <mxGeometry x="65" y="70" width="10" height="540" as="geometry" />
        </mxCell>
        <mxCell id="u_ikIUAgD8pRpMzlzjLt-22" value="MQ Canal" style="shape=umlLifeline;perimeter=lifelinePerimeter;whiteSpace=wrap;html=1;container=1;dropTarget=0;collapsible=0;recursiveResize=0;outlineConnect=0;portConstraint=eastwest;newEdgeStyle={&quot;curved&quot;:0,&quot;rounded&quot;:0};" parent="1" vertex="1">
          <mxGeometry x="4780" y="480" width="140" height="690" as="geometry" />
        </mxCell>
        <mxCell id="u_ikIUAgD8pRpMzlzjLt-23" value="" style="html=1;points=[[0,0,0,0,5],[0,1,0,0,-5],[1,0,0,0,5],[1,1,0,0,-5]];perimeter=orthogonalPerimeter;outlineConnect=0;targetShapes=umlLifeline;portConstraint=eastwest;newEdgeStyle={&quot;curved&quot;:0,&quot;rounded&quot;:0};" parent="u_ikIUAgD8pRpMzlzjLt-22" vertex="1">
          <mxGeometry x="65" y="70" width="10" height="540" as="geometry" />
        </mxCell>
        <mxCell id="u_ikIUAgD8pRpMzlzjLt-24" value="Launcher&lt;div&gt;&amp;lt;&amp;lt;microservicio&amp;gt;&amp;gt;&lt;/div&gt;" style="shape=umlLifeline;perimeter=lifelinePerimeter;whiteSpace=wrap;html=1;container=1;dropTarget=0;collapsible=0;recursiveResize=0;outlineConnect=0;portConstraint=eastwest;newEdgeStyle={&quot;curved&quot;:0,&quot;rounded&quot;:0};" parent="1" vertex="1">
          <mxGeometry x="4960" y="479.25" width="140" height="690.75" as="geometry" />
        </mxCell>
        <mxCell id="u_ikIUAgD8pRpMzlzjLt-25" value="" style="html=1;points=[[0,0,0,0,5],[0,1,0,0,-5],[1,0,0,0,5],[1,1,0,0,-5]];perimeter=orthogonalPerimeter;outlineConnect=0;targetShapes=umlLifeline;portConstraint=eastwest;newEdgeStyle={&quot;curved&quot;:0,&quot;rounded&quot;:0};" parent="u_ikIUAgD8pRpMzlzjLt-24" vertex="1">
          <mxGeometry x="65" y="70" width="10" height="110" as="geometry" />
        </mxCell>
        <mxCell id="u_ikIUAgD8pRpMzlzjLt-26" value="" style="html=1;points=[[0,0,0,0,5],[0,1,0,0,-5],[1,0,0,0,5],[1,1,0,0,-5]];perimeter=orthogonalPerimeter;outlineConnect=0;targetShapes=umlLifeline;portConstraint=eastwest;newEdgeStyle={&quot;curved&quot;:0,&quot;rounded&quot;:0};" parent="u_ikIUAgD8pRpMzlzjLt-24" vertex="1">
          <mxGeometry x="65" y="545.75" width="10" height="44.25" as="geometry" />
        </mxCell>
        <mxCell id="u_ikIUAgD8pRpMzlzjLt-27" value="Redis Stream" style="shape=umlLifeline;perimeter=lifelinePerimeter;whiteSpace=wrap;html=1;container=1;dropTarget=0;collapsible=0;recursiveResize=0;outlineConnect=0;portConstraint=eastwest;newEdgeStyle={&quot;curved&quot;:0,&quot;rounded&quot;:0};fillColor=#dae8fc;strokeColor=#6c8ebf;" parent="1" vertex="1">
          <mxGeometry x="5140" y="480.5" width="140" height="689.5" as="geometry" />
        </mxCell>
        <mxCell id="u_ikIUAgD8pRpMzlzjLt-28" value="" style="html=1;points=[[0,0,0,0,5],[0,1,0,0,-5],[1,0,0,0,5],[1,1,0,0,-5]];perimeter=orthogonalPerimeter;outlineConnect=0;targetShapes=umlLifeline;portConstraint=eastwest;newEdgeStyle={&quot;curved&quot;:0,&quot;rounded&quot;:0};" parent="u_ikIUAgD8pRpMzlzjLt-27" vertex="1">
          <mxGeometry x="65" y="70" width="10" height="130" as="geometry" />
        </mxCell>
        <mxCell id="u_ikIUAgD8pRpMzlzjLt-29" value="" style="html=1;points=[[0,0,0,0,5],[0,1,0,0,-5],[1,0,0,0,5],[1,1,0,0,-5]];perimeter=orthogonalPerimeter;outlineConnect=0;targetShapes=umlLifeline;portConstraint=eastwest;newEdgeStyle={&quot;curved&quot;:0,&quot;rounded&quot;:0};" parent="u_ikIUAgD8pRpMzlzjLt-27" vertex="1">
          <mxGeometry x="65" y="530" width="10" height="40" as="geometry" />
        </mxCell>
        <mxCell id="u_ikIUAgD8pRpMzlzjLt-30" value="Envía mensaje bloqueo&lt;div&gt;&amp;nbsp;(MPA2 trx )&lt;/div&gt;" style="html=1;verticalAlign=bottom;endArrow=block;curved=0;rounded=0;" parent="1" edge="1">
          <mxGeometry x="0.0046" width="80" relative="1" as="geometry">
            <mxPoint x="4675" y="562.5" as="sourcePoint" />
            <mxPoint x="4845" y="562.5" as="targetPoint" />
            <mxPoint as="offset" />
          </mxGeometry>
        </mxCell>
        <mxCell id="u_ikIUAgD8pRpMzlzjLt-31" value="lee mensaje (MPA2 trx)" style="html=1;verticalAlign=bottom;endArrow=block;curved=0;rounded=0;" parent="1" edge="1">
          <mxGeometry x="0.0046" width="80" relative="1" as="geometry">
            <mxPoint x="5025" y="574.2500000000005" as="sourcePoint" />
            <mxPoint x="4855" y="574.2500000000005" as="targetPoint" />
            <mxPoint as="offset" />
          </mxGeometry>
        </mxCell>
        <mxCell id="u_ikIUAgD8pRpMzlzjLt-32" value="valida si es tarjeta PLARD" style="html=1;align=left;spacingLeft=2;endArrow=block;rounded=0;edgeStyle=orthogonalEdgeStyle;curved=0;rounded=0;" parent="1" edge="1">
          <mxGeometry relative="1" as="geometry">
            <mxPoint x="5030" y="590" as="sourcePoint" />
            <Array as="points">
              <mxPoint x="5060" y="620" />
            </Array>
            <mxPoint x="5035" y="620.0588235294117" as="targetPoint" />
          </mxGeometry>
        </mxCell>
        <mxCell id="u_ikIUAgD8pRpMzlzjLt-33" value="publica evento (MPA2 trx + deviceId)" style="html=1;verticalAlign=bottom;endArrow=block;curved=0;rounded=0;" parent="1" edge="1">
          <mxGeometry x="0.0046" width="80" relative="1" as="geometry">
            <mxPoint x="5035" y="647.2500000000005" as="sourcePoint" />
            <mxPoint x="5205" y="647.2500000000005" as="targetPoint" />
            <mxPoint as="offset" />
          </mxGeometry>
        </mxCell>
        <mxCell id="u_ikIUAgD8pRpMzlzjLt-34" value="suscribirse Stream" style="html=1;verticalAlign=bottom;endArrow=block;curved=0;rounded=0;" parent="1" edge="1">
          <mxGeometry x="0.0046" width="80" relative="1" as="geometry">
            <mxPoint x="5385" y="564.5" as="sourcePoint" />
            <mxPoint x="5215" y="564.5" as="targetPoint" />
            <mxPoint as="offset" />
          </mxGeometry>
        </mxCell>
        <mxCell id="u_ikIUAgD8pRpMzlzjLt-35" value="leer evento (MPA2 trx + deviceId)" style="html=1;verticalAlign=bottom;endArrow=block;curved=0;rounded=0;" parent="1" edge="1">
          <mxGeometry x="0.0046" width="80" relative="1" as="geometry">
            <mxPoint x="5385" y="661.5" as="sourcePoint" />
            <mxPoint x="5215" y="661.5" as="targetPoint" />
            <mxPoint as="offset" />
          </mxGeometry>
        </mxCell>
        <mxCell id="u_ikIUAgD8pRpMzlzjLt-36" value="&lt;div style=&quot;text-align: left;&quot;&gt;&lt;span style=&quot;background-color: rgb(251, 251, 251); text-wrap: wrap;&quot;&gt;messageToBlockCard()&lt;/span&gt;&lt;br&gt;&lt;/div&gt;" style="html=1;verticalAlign=bottom;endArrow=block;curved=0;rounded=0;fontSize=11;" parent="1" edge="1">
          <mxGeometry width="80" relative="1" as="geometry">
            <mxPoint x="5395" y="679.0000000000005" as="sourcePoint" />
            <mxPoint x="5565" y="679.0000000000005" as="targetPoint" />
            <mxPoint as="offset" />
          </mxGeometry>
        </mxCell>
        <mxCell id="u_ikIUAgD8pRpMzlzjLt-37" value="return" style="html=1;verticalAlign=bottom;endArrow=open;dashed=1;endSize=8;curved=0;rounded=0;" parent="1" edge="1">
          <mxGeometry relative="1" as="geometry">
            <mxPoint x="5395" y="713.0000000000005" as="targetPoint" />
            <mxPoint x="5565" y="713.0000000000005" as="sourcePoint" />
          </mxGeometry>
        </mxCell>
        <mxCell id="u_ikIUAgD8pRpMzlzjLt-38" value="return" style="html=1;verticalAlign=bottom;endArrow=open;dashed=1;endSize=8;curved=0;rounded=0;exitX=0;exitY=1;exitDx=0;exitDy=-5;" parent="1" source="u_ikIUAgD8pRpMzlzjLt-4" target="u_ikIUAgD8pRpMzlzjLt-6" edge="1">
          <mxGeometry relative="1" as="geometry">
            <mxPoint x="5675" y="787" as="targetPoint" />
          </mxGeometry>
        </mxCell>
        <mxCell id="u_ikIUAgD8pRpMzlzjLt-39" value="guardar datos en modelo de dominio" style="html=1;verticalAlign=bottom;endArrow=block;curved=0;rounded=0;" parent="1" edge="1">
          <mxGeometry relative="1" as="geometry">
            <mxPoint x="5940" y="765" as="sourcePoint" />
            <mxPoint x="6120" y="765" as="targetPoint" />
          </mxGeometry>
        </mxCell>
        <mxCell id="u_ikIUAgD8pRpMzlzjLt-40" value="(Post) /life-cycle/v3/devices/blocks" style="html=1;verticalAlign=bottom;endArrow=block;curved=0;rounded=0;align=center;spacing=2;" parent="1" edge="1">
          <mxGeometry width="80" relative="1" as="geometry">
            <mxPoint x="6301" y="899.25" as="sourcePoint" />
            <mxPoint x="6845" y="899.25" as="targetPoint" />
            <mxPoint as="offset" />
          </mxGeometry>
        </mxCell>
        <mxCell id="u_ikIUAgD8pRpMzlzjLt-48" value="Device Translator" style="shape=umlLifeline;perimeter=lifelinePerimeter;whiteSpace=wrap;html=1;container=1;dropTarget=0;collapsible=0;recursiveResize=0;outlineConnect=0;portConstraint=eastwest;newEdgeStyle={&quot;curved&quot;:0,&quot;rounded&quot;:0};" parent="1" vertex="1">
          <mxGeometry x="6450" y="482.25" width="130" height="687.75" as="geometry" />
        </mxCell>
        <mxCell id="u_ikIUAgD8pRpMzlzjLt-49" value="" style="html=1;points=[[0,0,0,0,5],[0,1,0,0,-5],[1,0,0,0,5],[1,1,0,0,-5]];perimeter=orthogonalPerimeter;outlineConnect=0;targetShapes=umlLifeline;portConstraint=eastwest;newEdgeStyle={&quot;curved&quot;:0,&quot;rounded&quot;:0};" parent="u_ikIUAgD8pRpMzlzjLt-48" vertex="1">
          <mxGeometry x="61" y="338.5" width="10" height="45.5" as="geometry" />
        </mxCell>
        <mxCell id="u_ikIUAgD8pRpMzlzjLt-50" value="&lt;span style=&quot;font-size: 11px; text-align: left; text-wrap: wrap; background-color: rgb(251, 251, 251);&quot;&gt;DeviceBlockRequest(BlockCardModel)&lt;/span&gt;" style="html=1;verticalAlign=bottom;endArrow=block;curved=0;rounded=0;fontSize=11;" parent="1" edge="1">
          <mxGeometry width="80" relative="1" as="geometry">
            <mxPoint x="6301" y="830.5" as="sourcePoint" />
            <mxPoint x="6511" y="830.5" as="targetPoint" />
          </mxGeometry>
        </mxCell>
        <mxCell id="u_ikIUAgD8pRpMzlzjLt-51" value="DeviceBlockDTO" style="shape=umlLifeline;perimeter=lifelinePerimeter;whiteSpace=wrap;html=1;container=1;dropTarget=0;collapsible=0;recursiveResize=0;outlineConnect=0;portConstraint=eastwest;newEdgeStyle={&quot;curved&quot;:0,&quot;rounded&quot;:0};" parent="1" vertex="1">
          <mxGeometry x="6630" y="481.75" width="130" height="688.25" as="geometry" />
        </mxCell>
        <mxCell id="u_ikIUAgD8pRpMzlzjLt-52" value="" style="html=1;points=[[0,0,0,0,5],[0,1,0,0,-5],[1,0,0,0,5],[1,1,0,0,-5]];perimeter=orthogonalPerimeter;outlineConnect=0;targetShapes=umlLifeline;portConstraint=eastwest;newEdgeStyle={&quot;curved&quot;:0,&quot;rounded&quot;:0};" parent="u_ikIUAgD8pRpMzlzjLt-51" vertex="1">
          <mxGeometry x="61" y="345.5" width="10" height="28.5" as="geometry" />
        </mxCell>
        <mxCell id="u_ikIUAgD8pRpMzlzjLt-53" value="crear" style="html=1;verticalAlign=bottom;endArrow=block;curved=0;rounded=0;" parent="1" target="u_ikIUAgD8pRpMzlzjLt-52" edge="1">
          <mxGeometry width="80" relative="1" as="geometry">
            <mxPoint x="6521" y="843.75" as="sourcePoint" />
            <mxPoint x="6694.5" y="843.75" as="targetPoint" />
          </mxGeometry>
        </mxCell>
        <mxCell id="u_ikIUAgD8pRpMzlzjLt-54" value="return" style="html=1;verticalAlign=bottom;endArrow=open;dashed=1;endSize=8;curved=0;rounded=0;" parent="1" edge="1">
          <mxGeometry relative="1" as="geometry">
            <mxPoint x="6511" y="851.5" as="sourcePoint" />
            <mxPoint x="6301" y="851.5" as="targetPoint" />
          </mxGeometry>
        </mxCell>
        <mxCell id="u_ikIUAgD8pRpMzlzjLt-55" value="return" style="html=1;verticalAlign=bottom;endArrow=open;dashed=1;endSize=8;curved=0;rounded=0;" parent="1" edge="1">
          <mxGeometry relative="1" as="geometry">
            <mxPoint x="6845" y="920.25" as="sourcePoint" />
            <mxPoint x="6301" y="920.25" as="targetPoint" />
          </mxGeometry>
        </mxCell>
        <mxCell id="u_ikIUAgD8pRpMzlzjLt-56" value="&lt;span style=&quot;border-color: var(--border-color); font-weight: normal;&quot;&gt;RedisStreamPublisher&lt;/span&gt;" style="shape=umlLifeline;perimeter=lifelinePerimeter;whiteSpace=wrap;html=1;container=1;dropTarget=0;collapsible=0;recursiveResize=0;outlineConnect=0;portConstraint=eastwest;newEdgeStyle={&quot;curved&quot;:0,&quot;rounded&quot;:0};fontStyle=1" parent="1" vertex="1">
          <mxGeometry x="6940" y="481.25" width="140" height="688.75" as="geometry" />
        </mxCell>
        <mxCell id="u_ikIUAgD8pRpMzlzjLt-57" value="" style="html=1;points=[[0,0,0,0,5],[0,1,0,0,-5],[1,0,0,0,5],[1,1,0,0,-5]];perimeter=orthogonalPerimeter;outlineConnect=0;targetShapes=umlLifeline;portConstraint=eastwest;newEdgeStyle={&quot;curved&quot;:0,&quot;rounded&quot;:0};" parent="u_ikIUAgD8pRpMzlzjLt-56" vertex="1">
          <mxGeometry x="65" y="493.5" width="10" height="94.5" as="geometry" />
        </mxCell>
        <mxCell id="u_ikIUAgD8pRpMzlzjLt-58" value="&lt;span style=&quot;border-color: var(--border-color); font-weight: normal;&quot;&gt;MessageTranslator&lt;/span&gt;" style="shape=umlLifeline;perimeter=lifelinePerimeter;whiteSpace=wrap;html=1;container=1;dropTarget=0;collapsible=0;recursiveResize=0;outlineConnect=0;portConstraint=eastwest;newEdgeStyle={&quot;curved&quot;:0,&quot;rounded&quot;:0};fontStyle=1" parent="1" vertex="1">
          <mxGeometry x="7140" y="482.25" width="140" height="687.75" as="geometry" />
        </mxCell>
        <mxCell id="u_ikIUAgD8pRpMzlzjLt-59" value="" style="html=1;points=[[0,0,0,0,5],[0,1,0,0,-5],[1,0,0,0,5],[1,1,0,0,-5]];perimeter=orthogonalPerimeter;outlineConnect=0;targetShapes=umlLifeline;portConstraint=eastwest;newEdgeStyle={&quot;curved&quot;:0,&quot;rounded&quot;:0};" parent="u_ikIUAgD8pRpMzlzjLt-58" vertex="1">
          <mxGeometry x="65" y="500.75" width="10" height="43.25" as="geometry" />
        </mxCell>
        <mxCell id="u_ikIUAgD8pRpMzlzjLt-60" value="xAdd(BlockCardModel)" style="html=1;verticalAlign=bottom;endArrow=block;curved=0;rounded=0;" parent="1" target="u_ikIUAgD8pRpMzlzjLt-57" edge="1">
          <mxGeometry width="80" relative="1" as="geometry">
            <mxPoint x="5940" y="982" as="sourcePoint" />
            <mxPoint x="7345" y="982" as="targetPoint" />
          </mxGeometry>
        </mxCell>
        <mxCell id="u_ikIUAgD8pRpMzlzjLt-61" value="BlockCardMessage(BlockCardModel)" style="html=1;verticalAlign=bottom;endArrow=block;curved=0;rounded=0;labelBackgroundColor=none;" parent="1" target="u_ikIUAgD8pRpMzlzjLt-59" edge="1">
          <mxGeometry width="80" relative="1" as="geometry">
            <mxPoint x="7015" y="993.7500000000005" as="sourcePoint" />
            <mxPoint x="7185" y="993.7500000000005" as="targetPoint" />
          </mxGeometry>
        </mxCell>
        <mxCell id="u_ikIUAgD8pRpMzlzjLt-62" value="&lt;font style=&quot;font-size: 11px;&quot;&gt;return&amp;nbsp;&lt;span style=&quot;text-align: left; text-wrap: wrap; background-color: rgb(251, 251, 251);&quot;&gt;message&lt;/span&gt;&lt;/font&gt;" style="html=1;verticalAlign=bottom;endArrow=open;dashed=1;endSize=8;curved=0;rounded=0;" parent="1" edge="1">
          <mxGeometry relative="1" as="geometry">
            <mxPoint x="7205" y="1015.625" as="sourcePoint" />
            <mxPoint x="7015" y="1015.625" as="targetPoint" />
          </mxGeometry>
        </mxCell>
        <mxCell id="u_ikIUAgD8pRpMzlzjLt-63" value="publicar mensaje (MPA2 trx Response)" style="html=1;verticalAlign=bottom;endArrow=block;curved=0;rounded=0;" parent="1" source="u_ikIUAgD8pRpMzlzjLt-57" edge="1">
          <mxGeometry x="0.0002" width="80" relative="1" as="geometry">
            <mxPoint x="7525" y="1030.25" as="sourcePoint" />
            <mxPoint x="5215" y="1030.25" as="targetPoint" />
            <mxPoint as="offset" />
          </mxGeometry>
        </mxCell>
        <mxCell id="u_ikIUAgD8pRpMzlzjLt-64" value="Obtener mensaje&amp;nbsp;&lt;div&gt;(MPA2 trx response)&lt;/div&gt;" style="html=1;verticalAlign=bottom;endArrow=block;curved=0;rounded=0;" parent="1" edge="1">
          <mxGeometry width="80" relative="1" as="geometry">
            <mxPoint x="5035" y="1038" as="sourcePoint" />
            <mxPoint x="5205" y="1038" as="targetPoint" />
          </mxGeometry>
        </mxCell>
        <mxCell id="u_ikIUAgD8pRpMzlzjLt-65" value="return MPA2 trx" style="html=1;verticalAlign=bottom;endArrow=open;dashed=1;endSize=8;curved=0;rounded=0;" parent="1" edge="1">
          <mxGeometry relative="1" as="geometry">
            <mxPoint x="5025" y="1049" as="sourcePoint" />
            <mxPoint x="4855" y="1049" as="targetPoint" />
          </mxGeometry>
        </mxCell>
        <mxCell id="u_ikIUAgD8pRpMzlzjLt-66" value="Obtiene mensaje respuesta&amp;nbsp;&lt;div&gt;bloqueo&amp;nbsp;&lt;span style=&quot;background-color: initial;&quot;&gt;&amp;nbsp;(MPA2 trx)&lt;/span&gt;&lt;/div&gt;" style="html=1;verticalAlign=bottom;endArrow=block;curved=0;rounded=0;labelBackgroundColor=none;" parent="1" edge="1">
          <mxGeometry x="0.0046" width="80" relative="1" as="geometry">
            <mxPoint x="4675" y="1069.5" as="sourcePoint" />
            <mxPoint x="4845" y="1069.5" as="targetPoint" />
            <mxPoint as="offset" />
          </mxGeometry>
        </mxCell>
        <mxCell id="u_ikIUAgD8pRpMzlzjLt-67" value="return" style="html=1;verticalAlign=bottom;endArrow=open;dashed=1;endSize=8;curved=0;rounded=0;" parent="1" source="u_ikIUAgD8pRpMzlzjLt-17" edge="1">
          <mxGeometry relative="1" as="geometry">
            <mxPoint x="6631" y="926.75" as="sourcePoint" />
            <mxPoint x="5940" y="926.75" as="targetPoint" />
          </mxGeometry>
        </mxCell>
        <mxCell id="u_ikIUAgD8pRpMzlzjLt-68" value="return" style="html=1;verticalAlign=bottom;endArrow=open;dashed=1;endSize=8;curved=0;rounded=0;" parent="1" source="u_ikIUAgD8pRpMzlzjLt-57" edge="1">
          <mxGeometry relative="1" as="geometry">
            <mxPoint x="7345" y="1050.25" as="sourcePoint" />
            <mxPoint x="5940" y="1050.25" as="targetPoint" />
          </mxGeometry>
        </mxCell>
        <mxCell id="u_ikIUAgD8pRpMzlzjLt-69" value="sendAuditoria(BlockCardModel)" style="html=1;verticalAlign=bottom;endArrow=block;curved=0;rounded=0;" parent="1" edge="1">
          <mxGeometry width="80" relative="1" as="geometry">
            <mxPoint x="5940" y="1097.5" as="sourcePoint" />
            <mxPoint x="7380" y="1098" as="targetPoint" />
          </mxGeometry>
        </mxCell>
        <mxCell id="u_ikIUAgD8pRpMzlzjLt-70" value="ref - Pista Auditoria" style="shape=umlFrame;whiteSpace=wrap;html=1;pointerEvents=0;width=120;height=22;" parent="1" vertex="1">
          <mxGeometry x="7325" y="1055.5" width="145" height="84.25" as="geometry" />
        </mxCell>
        <mxCell id="u_ikIUAgD8pRpMzlzjLt-71" value="return" style="html=1;verticalAlign=bottom;endArrow=open;dashed=1;endSize=8;curved=0;rounded=0;" parent="1" edge="1">
          <mxGeometry relative="1" as="geometry">
            <mxPoint x="7380" y="1119" as="sourcePoint" />
            <mxPoint x="5940" y="1118.8750000000005" as="targetPoint" />
          </mxGeometry>
        </mxCell>
        <mxCell id="u_ikIUAgD8pRpMzlzjLt-73" value="Actualizar información" style="html=1;verticalAlign=bottom;endArrow=block;curved=0;rounded=0;" parent="1" edge="1">
          <mxGeometry relative="1" as="geometry">
            <mxPoint x="5940" y="954" as="sourcePoint" />
            <mxPoint x="6120" y="954" as="targetPoint" />
          </mxGeometry>
        </mxCell>
      </root>
    </mxGraphModel>
  </diagram>
  <diagram name="Secuencia device-block LMWM" id="Lsdh_9sKn01bPAcsfVA1">
    <mxGraphModel dx="-615" dy="2096" grid="1" gridSize="10" guides="1" tooltips="1" connect="1" arrows="1" fold="1" page="1" pageScale="1" pageWidth="827" pageHeight="1169" math="0" shadow="0">
      <root>
        <mxCell id="5faNeci_8bafmysmDP6f-0" />
        <mxCell id="5faNeci_8bafmysmDP6f-1" parent="5faNeci_8bafmysmDP6f-0" />
        <mxCell id="5faNeci_8bafmysmDP6f-2" value="BlockCardModel" style="shape=umlLifeline;perimeter=lifelinePerimeter;whiteSpace=wrap;html=1;container=1;dropTarget=0;collapsible=0;recursiveResize=0;outlineConnect=0;portConstraint=eastwest;newEdgeStyle={&quot;curved&quot;:0,&quot;rounded&quot;:0};" vertex="1" parent="5faNeci_8bafmysmDP6f-1">
          <mxGeometry x="6120" y="478.5" width="130" height="801.5" as="geometry" />
        </mxCell>
        <mxCell id="5faNeci_8bafmysmDP6f-3" value="" style="html=1;points=[[0,0,0,0,5],[0,1,0,0,-5],[1,0,0,0,5],[1,1,0,0,-5]];perimeter=orthogonalPerimeter;outlineConnect=0;targetShapes=umlLifeline;portConstraint=eastwest;newEdgeStyle={&quot;curved&quot;:0,&quot;rounded&quot;:0};" vertex="1" parent="5faNeci_8bafmysmDP6f-2">
          <mxGeometry x="60" y="270" width="10" height="490" as="geometry" />
        </mxCell>
        <mxCell id="5faNeci_8bafmysmDP6f-4" value="BlockCardModelDto" style="shape=umlLifeline;perimeter=lifelinePerimeter;whiteSpace=wrap;html=1;container=1;dropTarget=0;collapsible=0;recursiveResize=0;outlineConnect=0;portConstraint=eastwest;newEdgeStyle={&quot;curved&quot;:0,&quot;rounded&quot;:0};" vertex="1" parent="5faNeci_8bafmysmDP6f-1">
          <mxGeometry x="5708" y="479.5" width="130" height="800.5" as="geometry" />
        </mxCell>
        <mxCell id="5faNeci_8bafmysmDP6f-5" value="" style="html=1;points=[[0,0,0,0,5],[0,1,0,0,-5],[1,0,0,0,5],[1,1,0,0,-5]];perimeter=orthogonalPerimeter;outlineConnect=0;targetShapes=umlLifeline;portConstraint=eastwest;newEdgeStyle={&quot;curved&quot;:0,&quot;rounded&quot;:0};" vertex="1" parent="5faNeci_8bafmysmDP6f-4">
          <mxGeometry x="60" y="198.5" width="10" height="30" as="geometry" />
        </mxCell>
        <mxCell id="5faNeci_8bafmysmDP6f-6" value="&lt;span style=&quot;border-color: var(--border-color);&quot;&gt;MessageTranslator&lt;/span&gt;" style="shape=umlLifeline;perimeter=lifelinePerimeter;whiteSpace=wrap;html=1;container=1;dropTarget=0;collapsible=0;recursiveResize=0;outlineConnect=0;portConstraint=eastwest;newEdgeStyle={&quot;curved&quot;:0,&quot;rounded&quot;:0};" vertex="1" parent="5faNeci_8bafmysmDP6f-1">
          <mxGeometry x="5528" y="479.5" width="140" height="800.5" as="geometry" />
        </mxCell>
        <mxCell id="5faNeci_8bafmysmDP6f-7" value="" style="html=1;points=[[0,0,0,0,5],[0,1,0,0,-5],[1,0,0,0,5],[1,1,0,0,-5]];perimeter=orthogonalPerimeter;outlineConnect=0;targetShapes=umlLifeline;portConstraint=eastwest;newEdgeStyle={&quot;curved&quot;:0,&quot;rounded&quot;:0};" vertex="1" parent="5faNeci_8bafmysmDP6f-6">
          <mxGeometry x="65" y="186.5" width="10" height="63.5" as="geometry" />
        </mxCell>
        <mxCell id="5faNeci_8bafmysmDP6f-8" value="create()" style="html=1;verticalAlign=bottom;endArrow=block;curved=0;rounded=0;" edge="1" parent="5faNeci_8bafmysmDP6f-6" target="5faNeci_8bafmysmDP6f-5">
          <mxGeometry relative="1" as="geometry">
            <mxPoint x="75" y="206.5" as="sourcePoint" />
            <mxPoint x="240" y="206.5" as="targetPoint" />
          </mxGeometry>
        </mxCell>
        <mxCell id="5faNeci_8bafmysmDP6f-9" value="&lt;div&gt;&lt;span style=&quot;font-weight: 400;&quot;&gt;Device Life Cycle&lt;/span&gt;&lt;br&gt;&lt;/div&gt;&lt;span style=&quot;font-weight: 400;&quot;&gt;&amp;lt;&amp;lt;API PLARD&amp;gt;&amp;gt;&lt;/span&gt;" style="shape=umlLifeline;perimeter=lifelinePerimeter;whiteSpace=wrap;html=1;container=1;dropTarget=0;collapsible=0;recursiveResize=0;outlineConnect=0;portConstraint=eastwest;newEdgeStyle={&quot;curved&quot;:0,&quot;rounded&quot;:0};fontStyle=1;fillColor=#dae8fc;strokeColor=#6c8ebf;" vertex="1" parent="5faNeci_8bafmysmDP6f-1">
          <mxGeometry x="6940" y="478.87" width="100" height="800.75" as="geometry" />
        </mxCell>
        <mxCell id="5faNeci_8bafmysmDP6f-10" value="" style="html=1;points=[[0,0,0,0,5],[0,1,0,0,-5],[1,0,0,0,5],[1,1,0,0,-5]];perimeter=orthogonalPerimeter;outlineConnect=0;targetShapes=umlLifeline;portConstraint=eastwest;newEdgeStyle={&quot;curved&quot;:0,&quot;rounded&quot;:0};" vertex="1" parent="5faNeci_8bafmysmDP6f-9">
          <mxGeometry x="45" y="325.25" width="10" height="44" as="geometry" />
        </mxCell>
        <mxCell id="5faNeci_8bafmysmDP6f-11" value="RedisStreamSubscriberLmwm" style="shape=umlLifeline;perimeter=lifelinePerimeter;whiteSpace=wrap;html=1;container=1;dropTarget=0;collapsible=0;recursiveResize=0;outlineConnect=0;portConstraint=eastwest;newEdgeStyle={&quot;curved&quot;:0,&quot;rounded&quot;:0};" vertex="1" parent="5faNeci_8bafmysmDP6f-1">
          <mxGeometry x="5320" y="480.5" width="170" height="799.5" as="geometry" />
        </mxCell>
        <mxCell id="5faNeci_8bafmysmDP6f-12" value="" style="html=1;points=[[0,0,0,0,5],[0,1,0,0,-5],[1,0,0,0,5],[1,1,0,0,-5]];perimeter=orthogonalPerimeter;outlineConnect=0;targetShapes=umlLifeline;portConstraint=eastwest;newEdgeStyle={&quot;curved&quot;:0,&quot;rounded&quot;:0};" vertex="1" parent="5faNeci_8bafmysmDP6f-11">
          <mxGeometry x="80" y="68.75" width="10" height="211.25" as="geometry" />
        </mxCell>
        <mxCell id="5faNeci_8bafmysmDP6f-13" value="BlockCardInqWalletUserCaseService" style="shape=umlLifeline;perimeter=lifelinePerimeter;whiteSpace=wrap;html=1;container=1;dropTarget=0;collapsible=0;recursiveResize=0;outlineConnect=0;portConstraint=eastwest;newEdgeStyle={&quot;curved&quot;:0,&quot;rounded&quot;:0};" vertex="1" parent="5faNeci_8bafmysmDP6f-1">
          <mxGeometry x="5878" y="478.5" width="202" height="801.5" as="geometry" />
        </mxCell>
        <mxCell id="5faNeci_8bafmysmDP6f-14" value="" style="html=1;points=[[0,0,0,0,5],[0,1,0,0,-5],[1,0,0,0,5],[1,1,0,0,-5]];perimeter=orthogonalPerimeter;outlineConnect=0;targetShapes=umlLifeline;portConstraint=eastwest;newEdgeStyle={&quot;curved&quot;:0,&quot;rounded&quot;:0};" vertex="1" parent="5faNeci_8bafmysmDP6f-13">
          <mxGeometry x="96" y="257" width="10" height="503" as="geometry" />
        </mxCell>
        <mxCell id="5faNeci_8bafmysmDP6f-15" value="&lt;span style=&quot;font-size: 11px; text-align: left; text-wrap: wrap; background-color: rgb(251, 251, 251);&quot;&gt;getWalletBlocks(BlockCardModelDto)&lt;/span&gt;" style="html=1;verticalAlign=bottom;endArrow=block;curved=0;rounded=0;fontSize=11;" edge="1" parent="5faNeci_8bafmysmDP6f-1">
          <mxGeometry width="80" relative="1" as="geometry">
            <mxPoint x="5410" y="746.5" as="sourcePoint" />
            <mxPoint x="5974" y="746.5" as="targetPoint" />
            <mxPoint as="offset" />
          </mxGeometry>
        </mxCell>
        <mxCell id="5faNeci_8bafmysmDP6f-16" value="getWalletBlocks (BlockCardModel)" style="html=1;verticalAlign=bottom;endArrow=block;curved=0;rounded=0;" edge="1" parent="5faNeci_8bafmysmDP6f-1" target="5faNeci_8bafmysmDP6f-18">
          <mxGeometry width="80" relative="1" as="geometry">
            <mxPoint x="5984" y="809.25" as="sourcePoint" />
            <mxPoint x="6319" y="809.25" as="targetPoint" />
          </mxGeometry>
        </mxCell>
        <mxCell id="5faNeci_8bafmysmDP6f-17" value="DeviceLifeCycleClient" style="shape=umlLifeline;perimeter=lifelinePerimeter;whiteSpace=wrap;html=1;container=1;dropTarget=0;collapsible=0;recursiveResize=0;outlineConnect=0;portConstraint=eastwest;newEdgeStyle={&quot;curved&quot;:0,&quot;rounded&quot;:0};" vertex="1" parent="5faNeci_8bafmysmDP6f-1">
          <mxGeometry x="6290" y="479.25" width="130" height="802.5" as="geometry" />
        </mxCell>
        <mxCell id="5faNeci_8bafmysmDP6f-18" value="" style="html=1;points=[[0,0,0,0,5],[0,1,0,0,-5],[1,0,0,0,5],[1,1,0,0,-5]];perimeter=orthogonalPerimeter;outlineConnect=0;targetShapes=umlLifeline;portConstraint=eastwest;newEdgeStyle={&quot;curved&quot;:0,&quot;rounded&quot;:0};" vertex="1" parent="5faNeci_8bafmysmDP6f-17">
          <mxGeometry x="61" y="316.5" width="10" height="143.5" as="geometry" />
        </mxCell>
        <mxCell id="5faNeci_8bafmysmDP6f-19" value="&lt;span style=&quot;border-color: var(--border-color); font-weight: normal;&quot;&gt;EventMessageTranslator&lt;/span&gt;" style="shape=umlLifeline;perimeter=lifelinePerimeter;whiteSpace=wrap;html=1;container=1;dropTarget=0;collapsible=0;recursiveResize=0;outlineConnect=0;portConstraint=eastwest;newEdgeStyle={&quot;curved&quot;:0,&quot;rounded&quot;:0};fontStyle=1" vertex="1" parent="5faNeci_8bafmysmDP6f-1">
          <mxGeometry x="7460" y="478.5" width="140" height="799.5" as="geometry" />
        </mxCell>
        <mxCell id="5faNeci_8bafmysmDP6f-20" value="Canal Santander" style="shape=umlLifeline;perimeter=lifelinePerimeter;whiteSpace=wrap;html=1;container=1;dropTarget=0;collapsible=0;recursiveResize=0;outlineConnect=0;portConstraint=eastwest;newEdgeStyle={&quot;curved&quot;:0,&quot;rounded&quot;:0};" vertex="1" parent="5faNeci_8bafmysmDP6f-1">
          <mxGeometry x="4600" y="479.5" width="140" height="800.5" as="geometry" />
        </mxCell>
        <mxCell id="5faNeci_8bafmysmDP6f-21" value="" style="html=1;points=[[0,0,0,0,5],[0,1,0,0,-5],[1,0,0,0,5],[1,1,0,0,-5]];perimeter=orthogonalPerimeter;outlineConnect=0;targetShapes=umlLifeline;portConstraint=eastwest;newEdgeStyle={&quot;curved&quot;:0,&quot;rounded&quot;:0};" vertex="1" parent="5faNeci_8bafmysmDP6f-20">
          <mxGeometry x="65" y="70" width="10" height="650" as="geometry" />
        </mxCell>
        <mxCell id="5faNeci_8bafmysmDP6f-22" value="MQ Canal" style="shape=umlLifeline;perimeter=lifelinePerimeter;whiteSpace=wrap;html=1;container=1;dropTarget=0;collapsible=0;recursiveResize=0;outlineConnect=0;portConstraint=eastwest;newEdgeStyle={&quot;curved&quot;:0,&quot;rounded&quot;:0};" vertex="1" parent="5faNeci_8bafmysmDP6f-1">
          <mxGeometry x="4780" y="480" width="140" height="800" as="geometry" />
        </mxCell>
        <mxCell id="5faNeci_8bafmysmDP6f-23" value="" style="html=1;points=[[0,0,0,0,5],[0,1,0,0,-5],[1,0,0,0,5],[1,1,0,0,-5]];perimeter=orthogonalPerimeter;outlineConnect=0;targetShapes=umlLifeline;portConstraint=eastwest;newEdgeStyle={&quot;curved&quot;:0,&quot;rounded&quot;:0};" vertex="1" parent="5faNeci_8bafmysmDP6f-22">
          <mxGeometry x="65" y="70" width="10" height="650" as="geometry" />
        </mxCell>
        <mxCell id="5faNeci_8bafmysmDP6f-24" value="Launcher&lt;div&gt;&amp;lt;&amp;lt;microservicio&amp;gt;&amp;gt;&lt;/div&gt;" style="shape=umlLifeline;perimeter=lifelinePerimeter;whiteSpace=wrap;html=1;container=1;dropTarget=0;collapsible=0;recursiveResize=0;outlineConnect=0;portConstraint=eastwest;newEdgeStyle={&quot;curved&quot;:0,&quot;rounded&quot;:0};" vertex="1" parent="5faNeci_8bafmysmDP6f-1">
          <mxGeometry x="4960" y="479.25" width="140" height="800.75" as="geometry" />
        </mxCell>
        <mxCell id="5faNeci_8bafmysmDP6f-25" value="" style="html=1;points=[[0,0,0,0,5],[0,1,0,0,-5],[1,0,0,0,5],[1,1,0,0,-5]];perimeter=orthogonalPerimeter;outlineConnect=0;targetShapes=umlLifeline;portConstraint=eastwest;newEdgeStyle={&quot;curved&quot;:0,&quot;rounded&quot;:0};" vertex="1" parent="5faNeci_8bafmysmDP6f-24">
          <mxGeometry x="65" y="70" width="10" height="110" as="geometry" />
        </mxCell>
        <mxCell id="5faNeci_8bafmysmDP6f-26" value="" style="html=1;points=[[0,0,0,0,5],[0,1,0,0,-5],[1,0,0,0,5],[1,1,0,0,-5]];perimeter=orthogonalPerimeter;outlineConnect=0;targetShapes=umlLifeline;portConstraint=eastwest;newEdgeStyle={&quot;curved&quot;:0,&quot;rounded&quot;:0};" vertex="1" parent="5faNeci_8bafmysmDP6f-24">
          <mxGeometry x="65" y="545.75" width="10" height="44.25" as="geometry" />
        </mxCell>
        <mxCell id="5faNeci_8bafmysmDP6f-27" value="Redis Stream" style="shape=umlLifeline;perimeter=lifelinePerimeter;whiteSpace=wrap;html=1;container=1;dropTarget=0;collapsible=0;recursiveResize=0;outlineConnect=0;portConstraint=eastwest;newEdgeStyle={&quot;curved&quot;:0,&quot;rounded&quot;:0};fillColor=#dae8fc;strokeColor=#6c8ebf;" vertex="1" parent="5faNeci_8bafmysmDP6f-1">
          <mxGeometry x="5140" y="480.5" width="140" height="799.5" as="geometry" />
        </mxCell>
        <mxCell id="5faNeci_8bafmysmDP6f-28" value="" style="html=1;points=[[0,0,0,0,5],[0,1,0,0,-5],[1,0,0,0,5],[1,1,0,0,-5]];perimeter=orthogonalPerimeter;outlineConnect=0;targetShapes=umlLifeline;portConstraint=eastwest;newEdgeStyle={&quot;curved&quot;:0,&quot;rounded&quot;:0};" vertex="1" parent="5faNeci_8bafmysmDP6f-27">
          <mxGeometry x="65" y="70" width="10" height="130" as="geometry" />
        </mxCell>
        <mxCell id="5faNeci_8bafmysmDP6f-29" value="" style="html=1;points=[[0,0,0,0,5],[0,1,0,0,-5],[1,0,0,0,5],[1,1,0,0,-5]];perimeter=orthogonalPerimeter;outlineConnect=0;targetShapes=umlLifeline;portConstraint=eastwest;newEdgeStyle={&quot;curved&quot;:0,&quot;rounded&quot;:0};" vertex="1" parent="5faNeci_8bafmysmDP6f-27">
          <mxGeometry x="65" y="530" width="10" height="40" as="geometry" />
        </mxCell>
        <mxCell id="5faNeci_8bafmysmDP6f-30" value="Envía mensaje bloqueo&lt;div&gt;&amp;nbsp;(LMWM trx )&lt;/div&gt;" style="html=1;verticalAlign=bottom;endArrow=block;curved=0;rounded=0;" edge="1" parent="5faNeci_8bafmysmDP6f-1">
          <mxGeometry x="0.0046" width="80" relative="1" as="geometry">
            <mxPoint x="4675" y="562.5" as="sourcePoint" />
            <mxPoint x="4845" y="562.5" as="targetPoint" />
            <mxPoint as="offset" />
          </mxGeometry>
        </mxCell>
        <mxCell id="5faNeci_8bafmysmDP6f-31" value="lee mensaje (LMWM trx)" style="html=1;verticalAlign=bottom;endArrow=block;curved=0;rounded=0;" edge="1" parent="5faNeci_8bafmysmDP6f-1">
          <mxGeometry x="0.0046" width="80" relative="1" as="geometry">
            <mxPoint x="5025" y="574.2500000000005" as="sourcePoint" />
            <mxPoint x="4855" y="574.2500000000005" as="targetPoint" />
            <mxPoint as="offset" />
          </mxGeometry>
        </mxCell>
        <mxCell id="5faNeci_8bafmysmDP6f-32" value="valida si es tarjeta PLARD" style="html=1;align=left;spacingLeft=2;endArrow=block;rounded=0;edgeStyle=orthogonalEdgeStyle;curved=0;rounded=0;" edge="1" parent="5faNeci_8bafmysmDP6f-1">
          <mxGeometry relative="1" as="geometry">
            <mxPoint x="5030" y="590" as="sourcePoint" />
            <Array as="points">
              <mxPoint x="5060" y="620" />
            </Array>
            <mxPoint x="5035" y="620.0588235294117" as="targetPoint" />
          </mxGeometry>
        </mxCell>
        <mxCell id="5faNeci_8bafmysmDP6f-33" value="publica evento (LMWM trx + deviceId)" style="html=1;verticalAlign=bottom;endArrow=block;curved=0;rounded=0;" edge="1" parent="5faNeci_8bafmysmDP6f-1">
          <mxGeometry x="0.0046" width="80" relative="1" as="geometry">
            <mxPoint x="5035" y="647.2500000000005" as="sourcePoint" />
            <mxPoint x="5205" y="647.2500000000005" as="targetPoint" />
            <mxPoint as="offset" />
          </mxGeometry>
        </mxCell>
        <mxCell id="5faNeci_8bafmysmDP6f-34" value="suscribirse Stream" style="html=1;verticalAlign=bottom;endArrow=block;curved=0;rounded=0;" edge="1" parent="5faNeci_8bafmysmDP6f-1" source="5faNeci_8bafmysmDP6f-12">
          <mxGeometry x="0.0046" width="80" relative="1" as="geometry">
            <mxPoint x="5385" y="564.5" as="sourcePoint" />
            <mxPoint x="5215" y="564.5" as="targetPoint" />
            <mxPoint as="offset" />
          </mxGeometry>
        </mxCell>
        <mxCell id="5faNeci_8bafmysmDP6f-35" value="leer evento (LMWM trx + deviceId)" style="html=1;verticalAlign=bottom;endArrow=block;curved=0;rounded=0;" edge="1" parent="5faNeci_8bafmysmDP6f-1" source="5faNeci_8bafmysmDP6f-12">
          <mxGeometry x="0.0046" width="80" relative="1" as="geometry">
            <mxPoint x="5385" y="661.5" as="sourcePoint" />
            <mxPoint x="5215" y="661.5" as="targetPoint" />
            <mxPoint as="offset" />
          </mxGeometry>
        </mxCell>
        <mxCell id="5faNeci_8bafmysmDP6f-36" value="&lt;div style=&quot;text-align: left;&quot;&gt;&lt;span style=&quot;font-size: 12px; text-wrap: wrap; background-color: rgb(251, 251, 251);&quot;&gt;messageToBlocksInqWallet(string):&lt;/span&gt;&lt;br&gt;&lt;/div&gt;" style="html=1;verticalAlign=bottom;endArrow=block;curved=0;rounded=0;fontSize=11;" edge="1" parent="5faNeci_8bafmysmDP6f-1">
          <mxGeometry x="0.0004" width="80" relative="1" as="geometry">
            <mxPoint x="5410" y="674" as="sourcePoint" />
            <mxPoint x="5593" y="674" as="targetPoint" />
            <mxPoint as="offset" />
          </mxGeometry>
        </mxCell>
        <mxCell id="5faNeci_8bafmysmDP6f-37" value="return" style="html=1;verticalAlign=bottom;endArrow=open;dashed=1;endSize=8;curved=0;rounded=0;" edge="1" parent="5faNeci_8bafmysmDP6f-1">
          <mxGeometry relative="1" as="geometry">
            <mxPoint x="5410" y="716.75" as="targetPoint" />
            <mxPoint x="5593" y="716.75" as="sourcePoint" />
          </mxGeometry>
        </mxCell>
        <mxCell id="5faNeci_8bafmysmDP6f-38" value="return" style="html=1;verticalAlign=bottom;endArrow=open;dashed=1;endSize=8;curved=0;rounded=0;exitX=0;exitY=1;exitDx=0;exitDy=-5;" edge="1" parent="5faNeci_8bafmysmDP6f-1" source="5faNeci_8bafmysmDP6f-5" target="5faNeci_8bafmysmDP6f-7">
          <mxGeometry relative="1" as="geometry">
            <mxPoint x="5703" y="787" as="targetPoint" />
          </mxGeometry>
        </mxCell>
        <mxCell id="5faNeci_8bafmysmDP6f-39" value="guardar datos en modelo de dominio" style="html=1;verticalAlign=bottom;endArrow=block;curved=0;rounded=0;" edge="1" parent="5faNeci_8bafmysmDP6f-1">
          <mxGeometry relative="1" as="geometry">
            <mxPoint x="5984" y="765" as="sourcePoint" />
            <mxPoint x="6180" y="765" as="targetPoint" />
          </mxGeometry>
        </mxCell>
        <mxCell id="5faNeci_8bafmysmDP6f-40" value="(Get) /life-cycle/v3/devices/blocks" style="html=1;verticalAlign=bottom;endArrow=block;curved=0;rounded=0;align=center;spacing=2;" edge="1" parent="5faNeci_8bafmysmDP6f-1" target="5faNeci_8bafmysmDP6f-10">
          <mxGeometry width="80" relative="1" as="geometry">
            <mxPoint x="6361" y="818.25" as="sourcePoint" />
            <mxPoint x="6905" y="818.25" as="targetPoint" />
            <mxPoint as="offset" />
          </mxGeometry>
        </mxCell>
        <mxCell id="5faNeci_8bafmysmDP6f-41" value="Device Translator" style="shape=umlLifeline;perimeter=lifelinePerimeter;whiteSpace=wrap;html=1;container=1;dropTarget=0;collapsible=0;recursiveResize=0;outlineConnect=0;portConstraint=eastwest;newEdgeStyle={&quot;curved&quot;:0,&quot;rounded&quot;:0};" vertex="1" parent="5faNeci_8bafmysmDP6f-1">
          <mxGeometry x="6590" y="478.5" width="130" height="799.5" as="geometry" />
        </mxCell>
        <mxCell id="5faNeci_8bafmysmDP6f-42" value="" style="html=1;points=[[0,0,0,0,5],[0,1,0,0,-5],[1,0,0,0,5],[1,1,0,0,-5]];perimeter=orthogonalPerimeter;outlineConnect=0;targetShapes=umlLifeline;portConstraint=eastwest;newEdgeStyle={&quot;curved&quot;:0,&quot;rounded&quot;:0};" vertex="1" parent="5faNeci_8bafmysmDP6f-41">
          <mxGeometry x="61" y="380.5" width="10" height="45.5" as="geometry" />
        </mxCell>
        <mxCell id="5faNeci_8bafmysmDP6f-43" value="&lt;span style=&quot;font-size: 12px; text-align: left; text-wrap: wrap; background-color: rgb(251, 251, 251);&quot;&gt;walletBlocksResp(&lt;/span&gt;&lt;span style=&quot;color: light-dark(rgb(0, 0, 0), rgb(255, 255, 255)); font-size: 12px; text-align: left; text-wrap: wrap; background-color: transparent;&quot;&gt;GetDeviceLockSuccessResponse)&lt;/span&gt;" style="html=1;verticalAlign=bottom;endArrow=block;curved=0;rounded=0;fontSize=11;" edge="1" parent="5faNeci_8bafmysmDP6f-1" target="5faNeci_8bafmysmDP6f-42">
          <mxGeometry width="80" relative="1" as="geometry">
            <mxPoint x="6361" y="872.5" as="sourcePoint" />
            <mxPoint x="6571" y="872.5" as="targetPoint" />
          </mxGeometry>
        </mxCell>
        <mxCell id="5faNeci_8bafmysmDP6f-44" value="DeviceBlockDTO" style="shape=umlLifeline;perimeter=lifelinePerimeter;whiteSpace=wrap;html=1;container=1;dropTarget=0;collapsible=0;recursiveResize=0;outlineConnect=0;portConstraint=eastwest;newEdgeStyle={&quot;curved&quot;:0,&quot;rounded&quot;:0};" vertex="1" parent="5faNeci_8bafmysmDP6f-1">
          <mxGeometry x="6770" y="478.5" width="130" height="800" as="geometry" />
        </mxCell>
        <mxCell id="5faNeci_8bafmysmDP6f-45" value="" style="html=1;points=[[0,0,0,0,5],[0,1,0,0,-5],[1,0,0,0,5],[1,1,0,0,-5]];perimeter=orthogonalPerimeter;outlineConnect=0;targetShapes=umlLifeline;portConstraint=eastwest;newEdgeStyle={&quot;curved&quot;:0,&quot;rounded&quot;:0};" vertex="1" parent="5faNeci_8bafmysmDP6f-44">
          <mxGeometry x="61" y="387.5" width="10" height="28.5" as="geometry" />
        </mxCell>
        <mxCell id="5faNeci_8bafmysmDP6f-46" value="crear" style="html=1;verticalAlign=bottom;endArrow=block;curved=0;rounded=0;" edge="1" parent="5faNeci_8bafmysmDP6f-1" target="5faNeci_8bafmysmDP6f-45">
          <mxGeometry width="80" relative="1" as="geometry">
            <mxPoint x="6661" y="885.75" as="sourcePoint" />
            <mxPoint x="6834.5" y="885.75" as="targetPoint" />
          </mxGeometry>
        </mxCell>
        <mxCell id="5faNeci_8bafmysmDP6f-47" value="return" style="html=1;verticalAlign=bottom;endArrow=open;dashed=1;endSize=8;curved=0;rounded=0;" edge="1" parent="5faNeci_8bafmysmDP6f-1" source="5faNeci_8bafmysmDP6f-42">
          <mxGeometry relative="1" as="geometry">
            <mxPoint x="6571" y="893.5" as="sourcePoint" />
            <mxPoint x="6361" y="893.5" as="targetPoint" />
          </mxGeometry>
        </mxCell>
        <mxCell id="5faNeci_8bafmysmDP6f-48" value="return" style="html=1;verticalAlign=bottom;endArrow=open;dashed=1;endSize=8;curved=0;rounded=0;" edge="1" parent="5faNeci_8bafmysmDP6f-1" source="5faNeci_8bafmysmDP6f-10">
          <mxGeometry relative="1" as="geometry">
            <mxPoint x="6905" y="839.25" as="sourcePoint" />
            <mxPoint x="6361" y="839.25" as="targetPoint" />
          </mxGeometry>
        </mxCell>
        <mxCell id="5faNeci_8bafmysmDP6f-49" value="&lt;span style=&quot;border-color: var(--border-color); font-weight: normal;&quot;&gt;RedisStreamPublisher&lt;/span&gt;" style="shape=umlLifeline;perimeter=lifelinePerimeter;whiteSpace=wrap;html=1;container=1;dropTarget=0;collapsible=0;recursiveResize=0;outlineConnect=0;portConstraint=eastwest;newEdgeStyle={&quot;curved&quot;:0,&quot;rounded&quot;:0};fontStyle=1" vertex="1" parent="5faNeci_8bafmysmDP6f-1">
          <mxGeometry x="7080" y="479" width="140" height="800.5" as="geometry" />
        </mxCell>
        <mxCell id="5faNeci_8bafmysmDP6f-51" value="&lt;span style=&quot;border-color: var(--border-color); font-weight: normal;&quot;&gt;MessageTranslator&lt;/span&gt;" style="shape=umlLifeline;perimeter=lifelinePerimeter;whiteSpace=wrap;html=1;container=1;dropTarget=0;collapsible=0;recursiveResize=0;outlineConnect=0;portConstraint=eastwest;newEdgeStyle={&quot;curved&quot;:0,&quot;rounded&quot;:0};fontStyle=1" vertex="1" parent="5faNeci_8bafmysmDP6f-1">
          <mxGeometry x="7280" y="478.5" width="140" height="799.5" as="geometry" />
        </mxCell>
        <mxCell id="5faNeci_8bafmysmDP6f-52" value="" style="html=1;points=[[0,0,0,0,5],[0,1,0,0,-5],[1,0,0,0,5],[1,1,0,0,-5]];perimeter=orthogonalPerimeter;outlineConnect=0;targetShapes=umlLifeline;portConstraint=eastwest;newEdgeStyle={&quot;curved&quot;:0,&quot;rounded&quot;:0};" vertex="1" parent="5faNeci_8bafmysmDP6f-51">
          <mxGeometry x="65" y="500.75" width="10" height="43.25" as="geometry" />
        </mxCell>
        <mxCell id="5faNeci_8bafmysmDP6f-53" value="blockCardMessageLmwm(BlockCardModel)" style="html=1;verticalAlign=bottom;endArrow=block;curved=0;rounded=0;" edge="1" parent="5faNeci_8bafmysmDP6f-1" target="5faNeci_8bafmysmDP6f-52" source="5faNeci_8bafmysmDP6f-14">
          <mxGeometry width="80" relative="1" as="geometry">
            <mxPoint x="5968" y="982" as="sourcePoint" />
            <mxPoint x="7373" y="982" as="targetPoint" />
          </mxGeometry>
        </mxCell>
        <mxCell id="5faNeci_8bafmysmDP6f-56" value="publicar mensaje (LMWM trx Response)" style="html=1;verticalAlign=bottom;endArrow=block;curved=0;rounded=0;" edge="1" parent="5faNeci_8bafmysmDP6f-1" source="5faNeci_8bafmysmDP6f-14">
          <mxGeometry x="0.0002" width="80" relative="1" as="geometry">
            <mxPoint x="7145" y="1030.2499999999998" as="sourcePoint" />
            <mxPoint x="5215" y="1030.25" as="targetPoint" />
            <mxPoint as="offset" />
          </mxGeometry>
        </mxCell>
        <mxCell id="5faNeci_8bafmysmDP6f-57" value="Obtener mensaje&amp;nbsp;&lt;div&gt;(LMWM trx response)&lt;/div&gt;" style="html=1;verticalAlign=bottom;endArrow=block;curved=0;rounded=0;" edge="1" parent="5faNeci_8bafmysmDP6f-1">
          <mxGeometry width="80" relative="1" as="geometry">
            <mxPoint x="5035" y="1038" as="sourcePoint" />
            <mxPoint x="5205" y="1038" as="targetPoint" />
          </mxGeometry>
        </mxCell>
        <mxCell id="5faNeci_8bafmysmDP6f-58" value="return LMWM trx" style="html=1;verticalAlign=bottom;endArrow=open;dashed=1;endSize=8;curved=0;rounded=0;" edge="1" parent="5faNeci_8bafmysmDP6f-1">
          <mxGeometry relative="1" as="geometry">
            <mxPoint x="5025" y="1049" as="sourcePoint" />
            <mxPoint x="4855" y="1049" as="targetPoint" />
          </mxGeometry>
        </mxCell>
        <mxCell id="5faNeci_8bafmysmDP6f-59" value="Obtiene mensaje respuesta&amp;nbsp;&lt;div&gt;bloqueo&amp;nbsp;&lt;span style=&quot;background-color: initial;&quot;&gt;&amp;nbsp;(LMWM trx)&lt;/span&gt;&lt;/div&gt;" style="html=1;verticalAlign=bottom;endArrow=block;curved=0;rounded=0;labelBackgroundColor=none;" edge="1" parent="5faNeci_8bafmysmDP6f-1">
          <mxGeometry x="0.0046" width="80" relative="1" as="geometry">
            <mxPoint x="4675" y="1069.5" as="sourcePoint" />
            <mxPoint x="4845" y="1069.5" as="targetPoint" />
            <mxPoint as="offset" />
          </mxGeometry>
        </mxCell>
        <mxCell id="5faNeci_8bafmysmDP6f-60" value="return" style="html=1;verticalAlign=bottom;endArrow=open;dashed=1;endSize=8;curved=0;rounded=0;" edge="1" parent="5faNeci_8bafmysmDP6f-1">
          <mxGeometry relative="1" as="geometry">
            <mxPoint x="6351" y="916.5" as="sourcePoint" />
            <mxPoint x="5978.7307692307695" y="916.5" as="targetPoint" />
          </mxGeometry>
        </mxCell>
        <mxCell id="5faNeci_8bafmysmDP6f-61" value="return" style="html=1;verticalAlign=bottom;endArrow=open;dashed=1;endSize=8;curved=0;rounded=0;" edge="1" parent="5faNeci_8bafmysmDP6f-1" source="5faNeci_8bafmysmDP6f-52" target="5faNeci_8bafmysmDP6f-14">
          <mxGeometry relative="1" as="geometry">
            <mxPoint x="7033" y="1057" as="sourcePoint" />
            <mxPoint x="5984" y="1057" as="targetPoint" />
          </mxGeometry>
        </mxCell>
        <mxCell id="5faNeci_8bafmysmDP6f-62" value="auditoriaToEvent(BlockCardModel)" style="html=1;verticalAlign=bottom;endArrow=block;curved=0;rounded=0;" edge="1" parent="5faNeci_8bafmysmDP6f-1" target="5faNeci_8bafmysmDP6f-19">
          <mxGeometry width="80" relative="1" as="geometry">
            <mxPoint x="5984" y="1090" as="sourcePoint" />
            <mxPoint x="7519.5" y="1090" as="targetPoint" />
          </mxGeometry>
        </mxCell>
        <mxCell id="5faNeci_8bafmysmDP6f-63" value="ref - Pista Auditoria" style="shape=umlFrame;whiteSpace=wrap;html=1;pointerEvents=0;width=120;height=22;" vertex="1" parent="5faNeci_8bafmysmDP6f-1">
          <mxGeometry x="7465" y="1055.5" width="145" height="84.25" as="geometry" />
        </mxCell>
        <mxCell id="5faNeci_8bafmysmDP6f-64" value="return" style="html=1;verticalAlign=bottom;endArrow=open;dashed=1;endSize=8;curved=0;rounded=0;" edge="1" parent="5faNeci_8bafmysmDP6f-1" source="5faNeci_8bafmysmDP6f-19">
          <mxGeometry relative="1" as="geometry">
            <mxPoint x="7519.5" y="1113" as="sourcePoint" />
            <mxPoint x="5984" y="1113" as="targetPoint" />
          </mxGeometry>
        </mxCell>
        <mxCell id="5faNeci_8bafmysmDP6f-65" value="Actualizar información" style="html=1;verticalAlign=bottom;endArrow=block;curved=0;rounded=0;" edge="1" parent="5faNeci_8bafmysmDP6f-1">
          <mxGeometry relative="1" as="geometry">
            <mxPoint x="5984" y="948" as="sourcePoint" />
            <mxPoint x="6180" y="948" as="targetPoint" />
          </mxGeometry>
        </mxCell>
      </root>
    </mxGraphModel>
  </diagram>
  <diagram name="Secuencia Pista Auditoria" id="LVRcIrL30zRHygb5Q_N4">
    <mxGraphModel dx="-3255" dy="-645" grid="1" gridSize="10" guides="1" tooltips="1" connect="1" arrows="1" fold="1" page="1" pageScale="1" pageWidth="827" pageHeight="1169" math="0" shadow="0">
      <root>
        <mxCell id="g7XyAKS_kJUbJekLOuSM-0" />
        <mxCell id="g7XyAKS_kJUbJekLOuSM-1" parent="g7XyAKS_kJUbJekLOuSM-0" />
        <mxCell id="0gGVaYivu6WsniwJrcBJ-0" value="EventKafkaPublisher" style="shape=umlLifeline;perimeter=lifelinePerimeter;whiteSpace=wrap;html=1;container=1;dropTarget=0;collapsible=0;recursiveResize=0;outlineConnect=0;portConstraint=eastwest;newEdgeStyle={&quot;curved&quot;:0,&quot;rounded&quot;:0};fontStyle=0" vertex="1" parent="g7XyAKS_kJUbJekLOuSM-1">
          <mxGeometry x="4400" y="1269" width="130" height="251" as="geometry" />
        </mxCell>
        <mxCell id="0gGVaYivu6WsniwJrcBJ-1" value="" style="html=1;points=[[0,0,0,0,5],[0,1,0,0,-5],[1,0,0,0,5],[1,1,0,0,-5]];perimeter=orthogonalPerimeter;outlineConnect=0;targetShapes=umlLifeline;portConstraint=eastwest;newEdgeStyle={&quot;curved&quot;:0,&quot;rounded&quot;:0};" vertex="1" parent="0gGVaYivu6WsniwJrcBJ-0">
          <mxGeometry x="60" y="60" width="10" height="160" as="geometry" />
        </mxCell>
        <mxCell id="0gGVaYivu6WsniwJrcBJ-2" value="sendAudit(BlockCardModel)" style="html=1;verticalAlign=bottom;endArrow=block;curved=0;rounded=0;" edge="1" parent="g7XyAKS_kJUbJekLOuSM-1" target="0gGVaYivu6WsniwJrcBJ-1">
          <mxGeometry width="80" relative="1" as="geometry">
            <mxPoint x="4280" y="1340" as="sourcePoint" />
            <mxPoint x="4470" y="1340" as="targetPoint" />
            <mxPoint as="offset" />
          </mxGeometry>
        </mxCell>
        <mxCell id="0gGVaYivu6WsniwJrcBJ-3" value="&lt;div&gt;&lt;span style=&quot;font-weight: 400;&quot;&gt;Kafka&lt;/span&gt;&lt;/div&gt;" style="shape=umlLifeline;perimeter=lifelinePerimeter;whiteSpace=wrap;html=1;container=1;dropTarget=0;collapsible=0;recursiveResize=0;outlineConnect=0;portConstraint=eastwest;newEdgeStyle={&quot;curved&quot;:0,&quot;rounded&quot;:0};fontStyle=1;fillColor=#dae8fc;strokeColor=#6c8ebf;" vertex="1" parent="g7XyAKS_kJUbJekLOuSM-1">
          <mxGeometry x="4770" y="1269" width="100" height="251" as="geometry" />
        </mxCell>
        <mxCell id="0gGVaYivu6WsniwJrcBJ-4" value="" style="html=1;points=[[0,0,0,0,5],[0,1,0,0,-5],[1,0,0,0,5],[1,1,0,0,-5]];perimeter=orthogonalPerimeter;outlineConnect=0;targetShapes=umlLifeline;portConstraint=eastwest;newEdgeStyle={&quot;curved&quot;:0,&quot;rounded&quot;:0};" vertex="1" parent="0gGVaYivu6WsniwJrcBJ-3">
          <mxGeometry x="45" y="151" width="10" height="44.25" as="geometry" />
        </mxCell>
        <mxCell id="0gGVaYivu6WsniwJrcBJ-5" value="&lt;span style=&quot;font-size: 11px; text-align: left; text-wrap: wrap; background-color: rgb(251, 251, 251);&quot;&gt;auditoriaToEvent(BlockCardModel)&lt;/span&gt;" style="html=1;verticalAlign=bottom;endArrow=block;curved=0;rounded=0;fontSize=11;" edge="1" parent="g7XyAKS_kJUbJekLOuSM-1" target="0gGVaYivu6WsniwJrcBJ-8">
          <mxGeometry x="-0.0027" width="80" relative="1" as="geometry">
            <mxPoint x="4470" y="1377" as="sourcePoint" />
            <mxPoint x="4630" y="1377" as="targetPoint" />
            <mxPoint as="offset" />
          </mxGeometry>
        </mxCell>
        <mxCell id="0gGVaYivu6WsniwJrcBJ-6" value="return" style="html=1;verticalAlign=bottom;endArrow=open;dashed=1;endSize=8;curved=0;rounded=0;" edge="1" parent="g7XyAKS_kJUbJekLOuSM-1">
          <mxGeometry relative="1" as="geometry">
            <mxPoint x="4815" y="1453.125" as="sourcePoint" />
            <mxPoint x="4470" y="1453.125" as="targetPoint" />
          </mxGeometry>
        </mxCell>
        <mxCell id="0gGVaYivu6WsniwJrcBJ-7" value="EventMessageTranslator" style="shape=umlLifeline;perimeter=lifelinePerimeter;whiteSpace=wrap;html=1;container=1;dropTarget=0;collapsible=0;recursiveResize=0;outlineConnect=0;portConstraint=eastwest;newEdgeStyle={&quot;curved&quot;:0,&quot;rounded&quot;:0};fontStyle=0" vertex="1" parent="g7XyAKS_kJUbJekLOuSM-1">
          <mxGeometry x="4590" y="1269" width="140" height="251" as="geometry" />
        </mxCell>
        <mxCell id="0gGVaYivu6WsniwJrcBJ-8" value="" style="html=1;points=[[0,0,0,0,5],[0,1,0,0,-5],[1,0,0,0,5],[1,1,0,0,-5]];perimeter=orthogonalPerimeter;outlineConnect=0;targetShapes=umlLifeline;portConstraint=eastwest;newEdgeStyle={&quot;curved&quot;:0,&quot;rounded&quot;:0};" vertex="1" parent="0gGVaYivu6WsniwJrcBJ-7">
          <mxGeometry x="65" y="100" width="10" height="40" as="geometry" />
        </mxCell>
        <mxCell id="0gGVaYivu6WsniwJrcBJ-9" value="publicar evento" style="html=1;verticalAlign=bottom;endArrow=block;curved=0;rounded=0;" edge="1" parent="g7XyAKS_kJUbJekLOuSM-1">
          <mxGeometry x="-0.0027" width="80" relative="1" as="geometry">
            <mxPoint x="4470" y="1433" as="sourcePoint" />
            <mxPoint x="4815" y="1433" as="targetPoint" />
            <mxPoint as="offset" />
          </mxGeometry>
        </mxCell>
        <mxCell id="0gGVaYivu6WsniwJrcBJ-10" value="return string" style="html=1;verticalAlign=bottom;endArrow=open;dashed=1;endSize=8;curved=0;rounded=0;" edge="1" parent="g7XyAKS_kJUbJekLOuSM-1" source="0gGVaYivu6WsniwJrcBJ-8">
          <mxGeometry relative="1" as="geometry">
            <mxPoint x="4750" y="1396.75" as="sourcePoint" />
            <mxPoint x="4470" y="1396.75" as="targetPoint" />
          </mxGeometry>
        </mxCell>
        <mxCell id="0gGVaYivu6WsniwJrcBJ-11" value="return" style="html=1;verticalAlign=bottom;endArrow=open;dashed=1;endSize=8;curved=0;rounded=0;" edge="1" parent="g7XyAKS_kJUbJekLOuSM-1" source="0gGVaYivu6WsniwJrcBJ-1">
          <mxGeometry relative="1" as="geometry">
            <mxPoint x="4460" y="1613" as="sourcePoint" />
            <mxPoint x="4280" y="1480" as="targetPoint" />
          </mxGeometry>
        </mxCell>
      </root>
    </mxGraphModel>
  </diagram>
  <diagram name="Secuencia Pista Auditoria Librería" id="86D36tCH8U1XvasNY2eB">
    <mxGraphModel dx="-3255" dy="-645" grid="1" gridSize="10" guides="1" tooltips="1" connect="1" arrows="1" fold="1" page="1" pageScale="1" pageWidth="827" pageHeight="1169" math="0" shadow="0">
      <root>
        <mxCell id="JSXRDFscZoYU7lZe1YLb-0" />
        <mxCell id="JSXRDFscZoYU7lZe1YLb-1" parent="JSXRDFscZoYU7lZe1YLb-0" />
        <mxCell id="4DeJgLBiDchn6utC-gEI-0" value="...Use&lt;span style=&quot;border-color: var(--border-color);&quot;&gt;CaseService&lt;/span&gt;" style="shape=umlLifeline;perimeter=lifelinePerimeter;whiteSpace=wrap;html=1;container=1;dropTarget=0;collapsible=0;recursiveResize=0;outlineConnect=0;portConstraint=eastwest;newEdgeStyle={&quot;curved&quot;:0,&quot;rounded&quot;:0};fontStyle=0" vertex="1" parent="JSXRDFscZoYU7lZe1YLb-1">
          <mxGeometry x="4370" y="1560" width="130" height="251" as="geometry" />
        </mxCell>
        <mxCell id="4DeJgLBiDchn6utC-gEI-1" value="" style="html=1;points=[[0,0,0,0,5],[0,1,0,0,-5],[1,0,0,0,5],[1,1,0,0,-5]];perimeter=orthogonalPerimeter;outlineConnect=0;targetShapes=umlLifeline;portConstraint=eastwest;newEdgeStyle={&quot;curved&quot;:0,&quot;rounded&quot;:0};" vertex="1" parent="4DeJgLBiDchn6utC-gEI-0">
          <mxGeometry x="60" y="60" width="10" height="160" as="geometry" />
        </mxCell>
        <mxCell id="4DeJgLBiDchn6utC-gEI-2" value="&lt;div&gt;&lt;span style=&quot;font-weight: 400;&quot;&gt;Kafka&lt;/span&gt;&lt;/div&gt;" style="shape=umlLifeline;perimeter=lifelinePerimeter;whiteSpace=wrap;html=1;container=1;dropTarget=0;collapsible=0;recursiveResize=0;outlineConnect=0;portConstraint=eastwest;newEdgeStyle={&quot;curved&quot;:0,&quot;rounded&quot;:0};fontStyle=1;fillColor=#dae8fc;strokeColor=#6c8ebf;" vertex="1" parent="JSXRDFscZoYU7lZe1YLb-1">
          <mxGeometry x="4740" y="1560" width="100" height="251" as="geometry" />
        </mxCell>
        <mxCell id="4DeJgLBiDchn6utC-gEI-3" value="" style="html=1;points=[[0,0,0,0,5],[0,1,0,0,-5],[1,0,0,0,5],[1,1,0,0,-5]];perimeter=orthogonalPerimeter;outlineConnect=0;targetShapes=umlLifeline;portConstraint=eastwest;newEdgeStyle={&quot;curved&quot;:0,&quot;rounded&quot;:0};" vertex="1" parent="4DeJgLBiDchn6utC-gEI-2">
          <mxGeometry x="45" y="151" width="10" height="44.25" as="geometry" />
        </mxCell>
        <mxCell id="4DeJgLBiDchn6utC-gEI-4" value="&lt;span style=&quot;font-size: 11px; text-align: left; text-wrap: wrap; background-color: rgb(251, 251, 251);&quot;&gt;auditoriaToEvent(BlockCardModel)&lt;/span&gt;" style="html=1;verticalAlign=bottom;endArrow=block;curved=0;rounded=0;fontSize=11;" edge="1" parent="JSXRDFscZoYU7lZe1YLb-1" target="4DeJgLBiDchn6utC-gEI-7">
          <mxGeometry x="-0.0027" width="80" relative="1" as="geometry">
            <mxPoint x="4440" y="1668" as="sourcePoint" />
            <mxPoint x="4600" y="1668" as="targetPoint" />
            <mxPoint as="offset" />
          </mxGeometry>
        </mxCell>
        <mxCell id="4DeJgLBiDchn6utC-gEI-5" value="return" style="html=1;verticalAlign=bottom;endArrow=open;dashed=1;endSize=8;curved=0;rounded=0;" edge="1" parent="JSXRDFscZoYU7lZe1YLb-1">
          <mxGeometry relative="1" as="geometry">
            <mxPoint x="4785" y="1744.125" as="sourcePoint" />
            <mxPoint x="4440" y="1744.125" as="targetPoint" />
          </mxGeometry>
        </mxCell>
        <mxCell id="4DeJgLBiDchn6utC-gEI-6" value="EventMessageTranslator" style="shape=umlLifeline;perimeter=lifelinePerimeter;whiteSpace=wrap;html=1;container=1;dropTarget=0;collapsible=0;recursiveResize=0;outlineConnect=0;portConstraint=eastwest;newEdgeStyle={&quot;curved&quot;:0,&quot;rounded&quot;:0};fontStyle=0" vertex="1" parent="JSXRDFscZoYU7lZe1YLb-1">
          <mxGeometry x="4560" y="1560" width="140" height="251" as="geometry" />
        </mxCell>
        <mxCell id="4DeJgLBiDchn6utC-gEI-7" value="" style="html=1;points=[[0,0,0,0,5],[0,1,0,0,-5],[1,0,0,0,5],[1,1,0,0,-5]];perimeter=orthogonalPerimeter;outlineConnect=0;targetShapes=umlLifeline;portConstraint=eastwest;newEdgeStyle={&quot;curved&quot;:0,&quot;rounded&quot;:0};" vertex="1" parent="4DeJgLBiDchn6utC-gEI-6">
          <mxGeometry x="65" y="100" width="10" height="40" as="geometry" />
        </mxCell>
        <mxCell id="4DeJgLBiDchn6utC-gEI-8" value="publicar evento" style="html=1;verticalAlign=bottom;endArrow=block;curved=0;rounded=0;" edge="1" parent="JSXRDFscZoYU7lZe1YLb-1">
          <mxGeometry x="-0.0027" width="80" relative="1" as="geometry">
            <mxPoint x="4440" y="1724" as="sourcePoint" />
            <mxPoint x="4785" y="1724" as="targetPoint" />
            <mxPoint as="offset" />
          </mxGeometry>
        </mxCell>
        <mxCell id="4DeJgLBiDchn6utC-gEI-9" value="return string" style="html=1;verticalAlign=bottom;endArrow=open;dashed=1;endSize=8;curved=0;rounded=0;" edge="1" parent="JSXRDFscZoYU7lZe1YLb-1" source="4DeJgLBiDchn6utC-gEI-7">
          <mxGeometry relative="1" as="geometry">
            <mxPoint x="4720" y="1687.75" as="sourcePoint" />
            <mxPoint x="4440" y="1687.75" as="targetPoint" />
          </mxGeometry>
        </mxCell>
      </root>
    </mxGraphModel>
  </diagram>
  <diagram id="VvcP6XwEMIgoFSUVEXWQ" name="Página-3">
    <mxGraphModel dx="1707" dy="1693" grid="1" gridSize="10" guides="1" tooltips="1" connect="1" arrows="1" fold="1" page="1" pageScale="1" pageWidth="827" pageHeight="1169" math="0" shadow="0">
      <root>
        <mxCell id="0" />
        <mxCell id="1" parent="0" />
        <mxCell id="wvUbvpHRSlOhX4_D2AbW-9" value="" style="rounded=0;whiteSpace=wrap;html=1;" parent="1" vertex="1">
          <mxGeometry x="-280" y="550" width="580" height="290" as="geometry" />
        </mxCell>
        <mxCell id="wvUbvpHRSlOhX4_D2AbW-7" value="" style="rounded=0;whiteSpace=wrap;html=1;" parent="1" vertex="1">
          <mxGeometry x="-500" y="160" width="390" height="290" as="geometry" />
        </mxCell>
        <mxCell id="wvUbvpHRSlOhX4_D2AbW-4" value="" style="rounded=0;whiteSpace=wrap;html=1;" parent="1" vertex="1">
          <mxGeometry x="-90" y="160" width="630" height="290" as="geometry" />
        </mxCell>
        <mxCell id="wvUbvpHRSlOhX4_D2AbW-1" value="" style="rounded=0;whiteSpace=wrap;html=1;" parent="1" vertex="1">
          <mxGeometry x="560" y="160" width="480" height="290" as="geometry" />
        </mxCell>
        <mxCell id="QBIB89FZP9qFeEcfaNMu-34" value="" style="rounded=0;whiteSpace=wrap;html=1;" parent="1" vertex="1">
          <mxGeometry x="-240" y="670" width="510" height="145" as="geometry" />
        </mxCell>
        <mxCell id="QBIB89FZP9qFeEcfaNMu-1" value="&amp;lt;trx&amp;gt;&lt;div&gt;MP3C&lt;/div&gt;" style="rounded=0;whiteSpace=wrap;html=1;" parent="1" vertex="1">
          <mxGeometry x="-190" y="700" width="120" height="60" as="geometry" />
        </mxCell>
        <mxCell id="QBIB89FZP9qFeEcfaNMu-2" value="&amp;lt;trx&amp;gt;&lt;div&gt;MPA2&lt;/div&gt;" style="rounded=0;whiteSpace=wrap;html=1;" parent="1" vertex="1">
          <mxGeometry x="-50" y="700" width="120" height="60" as="geometry" />
        </mxCell>
        <mxCell id="QBIB89FZP9qFeEcfaNMu-3" value="&amp;lt;trx&amp;gt;&lt;div&gt;MPA4&lt;/div&gt;" style="rounded=0;whiteSpace=wrap;html=1;" parent="1" vertex="1">
          <mxGeometry x="90" y="700" width="120" height="60" as="geometry" />
        </mxCell>
        <mxCell id="QBIB89FZP9qFeEcfaNMu-4" value="&lt;div style=&quot;font-size: medium; text-align: start;&quot; data-ccp-timestamp=&quot;1729102305782&quot;&gt;&lt;br&gt;&lt;/div&gt;&lt;div style=&quot;font-size: medium; text-align: start;&quot; data-ccp-timestamp=&quot;1729102305782&quot;&gt;&lt;b&gt;MPA2&lt;/b&gt;&lt;br&gt;&lt;table style=&quot;border-collapse: collapse; width: 58pt;&quot; width=&quot;77&quot;&gt;&lt;colgroup&gt;&lt;col style=&quot;width: 58pt;&quot; width=&quot;77&quot;&gt;&lt;/colgroup&gt;&lt;tbody&gt;&lt;tr style=&quot;height: 10.5pt;&quot; height=&quot;14&quot;&gt;&lt;td style=&quot;padding-top: 1px; padding-right: 1px; padding-left: 1px; font-size: 8pt; font-family: &amp;quot;Courier New&amp;quot;, monospace; vertical-align: bottom; border: none; text-wrap: nowrap; width: 58pt; height: 10.5pt;&quot; class=&quot;xl20&quot; height=&quot;14&quot; width=&quot;77&quot;&gt;&amp;nbsp;&amp;nbsp; CAMPO____LITERAL______________DELIM_ATT_LNG__TIP_RUTINA__VRUT_LIT4700_AYU&amp;nbsp;&lt;/td&gt;&lt;/tr&gt;&lt;tr style=&quot;height: 10.5pt;&quot; height=&quot;14&quot;&gt;&lt;td style=&quot;padding-top: 1px; padding-right: 1px; padding-left: 1px; font-size: 8pt; font-family: &amp;quot;Courier New&amp;quot;, monospace; vertical-align: bottom; border: none; text-wrap: nowrap; height: 10.5pt;&quot; class=&quot;xl20&quot; height=&quot;14&quot;&gt;01 PAN&amp;nbsp;&amp;nbsp;&amp;nbsp;&amp;nbsp;&amp;nbsp; PAN DE TARJETA&amp;nbsp;&amp;nbsp;&amp;nbsp;&amp;nbsp;&amp;nbsp;&amp;nbsp;&amp;nbsp; 01&amp;nbsp;&amp;nbsp;&amp;nbsp; A&amp;nbsp;&amp;nbsp; 22&amp;nbsp;&amp;nbsp;&amp;nbsp; O&amp;nbsp;&amp;nbsp;&amp;nbsp;&amp;nbsp;&amp;nbsp;&amp;nbsp;&amp;nbsp;&amp;nbsp;&amp;nbsp;&amp;nbsp;&amp;nbsp; N&amp;nbsp;&amp;nbsp;&amp;nbsp;&amp;nbsp;&amp;nbsp;&amp;nbsp;&amp;nbsp;&amp;nbsp;&amp;nbsp;&amp;nbsp; N&amp;nbsp;&lt;/td&gt;&lt;/tr&gt;&lt;tr style=&quot;height: 10.5pt;&quot; height=&quot;14&quot;&gt;&lt;td style=&quot;padding-top: 1px; padding-right: 1px; padding-left: 1px; font-size: 8pt; font-family: &amp;quot;Courier New&amp;quot;, monospace; vertical-align: bottom; border: none; text-wrap: nowrap; height: 10.5pt;&quot; class=&quot;xl20&quot; height=&quot;14&quot;&gt;02 CODBLQ&amp;nbsp;&amp;nbsp; CODIGO BLOQUEO&amp;nbsp;&amp;nbsp;&amp;nbsp;&amp;nbsp;&amp;nbsp;&amp;nbsp;&amp;nbsp; 02&amp;nbsp;&amp;nbsp;&amp;nbsp; N&amp;nbsp;&amp;nbsp;&amp;nbsp; 2&amp;nbsp;&amp;nbsp;&amp;nbsp; O&amp;nbsp;&amp;nbsp;&amp;nbsp;&amp;nbsp;&amp;nbsp;&amp;nbsp;&amp;nbsp;&amp;nbsp;&amp;nbsp;&amp;nbsp;&amp;nbsp; N&amp;nbsp;&amp;nbsp;&amp;nbsp;&amp;nbsp;&amp;nbsp;&amp;nbsp;&amp;nbsp;&amp;nbsp;&amp;nbsp;&amp;nbsp; N&amp;nbsp;&lt;/td&gt;&lt;/tr&gt;&lt;tr style=&quot;height: 10.5pt;&quot; height=&quot;14&quot;&gt;&lt;td style=&quot;padding-top: 1px; padding-right: 1px; padding-left: 1px; font-size: 8pt; font-family: &amp;quot;Courier New&amp;quot;, monospace; vertical-align: bottom; border: none; text-wrap: nowrap; height: 10.5pt;&quot; class=&quot;xl20&quot; height=&quot;14&quot;&gt;03 TEXBLQ&amp;nbsp;&amp;nbsp; TEXTO BLOQUEO&amp;nbsp;&amp;nbsp;&amp;nbsp;&amp;nbsp;&amp;nbsp;&amp;nbsp;&amp;nbsp;&amp;nbsp; 03&amp;nbsp;&amp;nbsp;&amp;nbsp; A&amp;nbsp;&amp;nbsp; 30&amp;nbsp;&amp;nbsp;&amp;nbsp; O&amp;nbsp;&amp;nbsp;&amp;nbsp;&amp;nbsp;&amp;nbsp;&amp;nbsp;&amp;nbsp;&amp;nbsp;&amp;nbsp;&amp;nbsp;&amp;nbsp; N&amp;nbsp;&amp;nbsp;&amp;nbsp;&amp;nbsp;&amp;nbsp;&amp;nbsp;&amp;nbsp;&amp;nbsp;&amp;nbsp;&amp;nbsp; N&amp;nbsp;&lt;/td&gt;&lt;/tr&gt;&lt;/tbody&gt;&lt;/table&gt;&lt;/div&gt;" style="text;html=1;align=center;verticalAlign=middle;whiteSpace=wrap;rounded=0;" parent="1" vertex="1">
          <mxGeometry x="-500" y="-110" width="500" height="110" as="geometry" />
        </mxCell>
        <mxCell id="QBIB89FZP9qFeEcfaNMu-7" value="&lt;font style=&quot;font-size: 12px;&quot;&gt;&amp;lt;API&amp;gt;&lt;/font&gt;&lt;div style=&quot;&quot;&gt;&lt;font style=&quot;font-size: 12px;&quot;&gt;Device Life Cycle&lt;/font&gt;&lt;/div&gt;&lt;div style=&quot;&quot;&gt;&lt;a style=&quot;box-sizing: border-box; display: inline; color: rgb(59, 65, 81); cursor: pointer; text-decoration-line: inherit; font-weight: 600; text-align: start;&quot; class=&quot;nostyle&quot;&gt;&lt;span style=&quot;box-sizing: border-box;&quot;&gt;&lt;font style=&quot;font-size: 12px;&quot;&gt;(Post)&amp;nbsp;&lt;/font&gt;&lt;/span&gt;&lt;/a&gt;&lt;a style=&quot;box-sizing: border-box; display: inline; color: rgb(59, 65, 81); cursor: pointer; text-decoration-line: inherit; font-size: 16px; text-align: start;&quot; class=&quot;nostyle&quot;&gt;&lt;span style=&quot;box-sizing: border-box;&quot;&gt;&lt;font style=&quot;font-size: 12px;&quot; face=&quot;Helvetica&quot;&gt;&lt;b&gt;/life-cycle&lt;wbr style=&quot;box-sizing: border-box;&quot;&gt;/v3&lt;wbr style=&quot;box-sizing: border-box;&quot;&gt;/devices&lt;wbr style=&quot;box-sizing: border-box;&quot;&gt;/blocks&lt;/b&gt;&lt;/font&gt;&lt;/span&gt;&lt;/a&gt;&lt;br&gt;&lt;/div&gt;" style="rounded=0;whiteSpace=wrap;html=1;fillColor=#1ba1e2;fontColor=#ffffff;strokeColor=#006EAF;" parent="1" vertex="1">
          <mxGeometry x="827" y="275" width="120" height="70" as="geometry" />
        </mxCell>
        <mxCell id="QBIB89FZP9qFeEcfaNMu-14" style="edgeStyle=orthogonalEdgeStyle;rounded=0;orthogonalLoop=1;jettySize=auto;html=1;" parent="1" source="QBIB89FZP9qFeEcfaNMu-8" target="QBIB89FZP9qFeEcfaNMu-10" edge="1">
          <mxGeometry relative="1" as="geometry" />
        </mxCell>
        <mxCell id="QBIB89FZP9qFeEcfaNMu-8" value="&amp;lt;&amp;lt;Microservicio&amp;gt;&amp;gt;&lt;div&gt;&lt;b style=&quot;color: rgb(0, 0, 0);&quot;&gt;BlockCard&lt;/b&gt;&lt;br&gt;&lt;/div&gt;" style="rounded=0;whiteSpace=wrap;html=1;fillColor=#60a917;fontColor=#ffffff;strokeColor=#2D7600;" parent="1" vertex="1">
          <mxGeometry x="400" y="280" width="120" height="60" as="geometry" />
        </mxCell>
        <mxCell id="QBIB89FZP9qFeEcfaNMu-13" style="rounded=0;orthogonalLoop=1;jettySize=auto;html=1;" parent="1" source="QBIB89FZP9qFeEcfaNMu-10" target="QBIB89FZP9qFeEcfaNMu-7" edge="1">
          <mxGeometry relative="1" as="geometry" />
        </mxCell>
        <mxCell id="QBIB89FZP9qFeEcfaNMu-10" value="API Gateway&lt;div&gt;PLARD&lt;/div&gt;" style="shape=hexagon;perimeter=hexagonPerimeter2;whiteSpace=wrap;html=1;fixedSize=1;" parent="1" vertex="1">
          <mxGeometry x="580" y="270" width="120" height="80" as="geometry" />
        </mxCell>
        <mxCell id="QBIB89FZP9qFeEcfaNMu-22" style="edgeStyle=orthogonalEdgeStyle;rounded=0;orthogonalLoop=1;jettySize=auto;html=1;" parent="1" source="QBIB89FZP9qFeEcfaNMu-15" target="QBIB89FZP9qFeEcfaNMu-18" edge="1">
          <mxGeometry relative="1" as="geometry" />
        </mxCell>
        <mxCell id="QBIB89FZP9qFeEcfaNMu-31" style="edgeStyle=orthogonalEdgeStyle;rounded=0;orthogonalLoop=1;jettySize=auto;html=1;" parent="1" source="QBIB89FZP9qFeEcfaNMu-15" target="QBIB89FZP9qFeEcfaNMu-29" edge="1">
          <mxGeometry relative="1" as="geometry" />
        </mxCell>
        <mxCell id="QBIB89FZP9qFeEcfaNMu-15" value="&amp;lt;&amp;lt;Microservicio&amp;gt;&amp;gt;&lt;div&gt;Launcher&lt;/div&gt;" style="rounded=0;whiteSpace=wrap;html=1;" parent="1" vertex="1">
          <mxGeometry x="-50" y="280" width="120" height="60" as="geometry" />
        </mxCell>
        <mxCell id="QBIB89FZP9qFeEcfaNMu-20" style="edgeStyle=orthogonalEdgeStyle;rounded=0;orthogonalLoop=1;jettySize=auto;html=1;" parent="1" source="QBIB89FZP9qFeEcfaNMu-18" target="QBIB89FZP9qFeEcfaNMu-8" edge="1">
          <mxGeometry relative="1" as="geometry" />
        </mxCell>
        <mxCell id="QBIB89FZP9qFeEcfaNMu-18" value="&amp;lt;&amp;lt;MQ&amp;gt;&amp;gt;" style="shape=hexagon;perimeter=hexagonPerimeter2;whiteSpace=wrap;html=1;fixedSize=1;" parent="1" vertex="1">
          <mxGeometry x="170" y="270" width="120" height="80" as="geometry" />
        </mxCell>
        <mxCell id="QBIB89FZP9qFeEcfaNMu-24" style="edgeStyle=orthogonalEdgeStyle;rounded=0;orthogonalLoop=1;jettySize=auto;html=1;" parent="1" source="QBIB89FZP9qFeEcfaNMu-23" target="QBIB89FZP9qFeEcfaNMu-1" edge="1">
          <mxGeometry relative="1" as="geometry" />
        </mxCell>
        <mxCell id="QBIB89FZP9qFeEcfaNMu-25" style="edgeStyle=orthogonalEdgeStyle;rounded=0;orthogonalLoop=1;jettySize=auto;html=1;" parent="1" source="QBIB89FZP9qFeEcfaNMu-23" target="QBIB89FZP9qFeEcfaNMu-2" edge="1">
          <mxGeometry relative="1" as="geometry" />
        </mxCell>
        <mxCell id="QBIB89FZP9qFeEcfaNMu-26" style="edgeStyle=orthogonalEdgeStyle;rounded=0;orthogonalLoop=1;jettySize=auto;html=1;" parent="1" source="QBIB89FZP9qFeEcfaNMu-23" target="QBIB89FZP9qFeEcfaNMu-3" edge="1">
          <mxGeometry relative="1" as="geometry" />
        </mxCell>
        <mxCell id="QBIB89FZP9qFeEcfaNMu-23" value="&amp;lt;&amp;lt;MQ&amp;gt;&amp;gt;" style="shape=hexagon;perimeter=hexagonPerimeter2;whiteSpace=wrap;html=1;fixedSize=1;" parent="1" vertex="1">
          <mxGeometry x="-50" y="580" width="120" height="80" as="geometry" />
        </mxCell>
        <mxCell id="QBIB89FZP9qFeEcfaNMu-27" value="" style="endArrow=classic;html=1;rounded=0;" parent="1" source="QBIB89FZP9qFeEcfaNMu-15" target="QBIB89FZP9qFeEcfaNMu-23" edge="1">
          <mxGeometry width="50" height="50" relative="1" as="geometry">
            <mxPoint x="170" y="500" as="sourcePoint" />
            <mxPoint x="220" y="450" as="targetPoint" />
          </mxGeometry>
        </mxCell>
        <mxCell id="QBIB89FZP9qFeEcfaNMu-30" style="edgeStyle=orthogonalEdgeStyle;rounded=0;orthogonalLoop=1;jettySize=auto;html=1;" parent="1" source="QBIB89FZP9qFeEcfaNMu-28" target="QBIB89FZP9qFeEcfaNMu-29" edge="1">
          <mxGeometry relative="1" as="geometry" />
        </mxCell>
        <mxCell id="QBIB89FZP9qFeEcfaNMu-28" value="&amp;lt;&amp;lt;Canal&amp;gt;&amp;gt;&lt;div&gt;ATM&lt;/div&gt;" style="rounded=0;whiteSpace=wrap;html=1;" parent="1" vertex="1">
          <mxGeometry x="-480" y="280" width="120" height="60" as="geometry" />
        </mxCell>
        <mxCell id="QBIB89FZP9qFeEcfaNMu-29" value="&amp;lt;&amp;lt;MQ&amp;gt;&amp;gt;&lt;div&gt;Agave&lt;/div&gt;" style="shape=hexagon;perimeter=hexagonPerimeter2;whiteSpace=wrap;html=1;fixedSize=1;" parent="1" vertex="1">
          <mxGeometry x="-290" y="270" width="120" height="80" as="geometry" />
        </mxCell>
        <mxCell id="QBIB89FZP9qFeEcfaNMu-33" style="edgeStyle=orthogonalEdgeStyle;rounded=0;orthogonalLoop=1;jettySize=auto;html=1;" parent="1" source="QBIB89FZP9qFeEcfaNMu-32" target="QBIB89FZP9qFeEcfaNMu-29" edge="1">
          <mxGeometry relative="1" as="geometry" />
        </mxCell>
        <mxCell id="QBIB89FZP9qFeEcfaNMu-32" value="&amp;lt;&amp;lt;Canal&amp;gt;&amp;gt;&lt;div&gt;TF (Sucursales)&lt;/div&gt;" style="rounded=0;whiteSpace=wrap;html=1;" parent="1" vertex="1">
          <mxGeometry x="-480" y="200" width="120" height="60" as="geometry" />
        </mxCell>
        <mxCell id="QBIB89FZP9qFeEcfaNMu-35" value="390 Mainframe" style="text;html=1;align=center;verticalAlign=middle;whiteSpace=wrap;rounded=0;" parent="1" vertex="1">
          <mxGeometry x="210" y="785" width="60" height="30" as="geometry" />
        </mxCell>
        <mxCell id="wvUbvpHRSlOhX4_D2AbW-3" value="PLARD" style="text;html=1;align=center;verticalAlign=middle;whiteSpace=wrap;rounded=0;fontStyle=1" parent="1" vertex="1">
          <mxGeometry x="980" y="160" width="60" height="30" as="geometry" />
        </mxCell>
        <mxCell id="wvUbvpHRSlOhX4_D2AbW-5" value="Capa de integración" style="text;html=1;align=center;verticalAlign=middle;whiteSpace=wrap;rounded=0;fontStyle=1" parent="1" vertex="1">
          <mxGeometry x="410" y="160" width="130" height="30" as="geometry" />
        </mxCell>
        <mxCell id="wvUbvpHRSlOhX4_D2AbW-8" value="Canales" style="text;html=1;align=center;verticalAlign=middle;whiteSpace=wrap;rounded=0;fontStyle=1" parent="1" vertex="1">
          <mxGeometry x="-180" y="160" width="70" height="30" as="geometry" />
        </mxCell>
        <mxCell id="wvUbvpHRSlOhX4_D2AbW-10" value="Mainframe" style="text;html=1;align=center;verticalAlign=middle;whiteSpace=wrap;rounded=0;fontStyle=1" parent="1" vertex="1">
          <mxGeometry x="230" y="550" width="70" height="30" as="geometry" />
        </mxCell>
        <mxCell id="wvUbvpHRSlOhX4_D2AbW-11" value="&lt;div&gt;&lt;b&gt;/life-cycle/v3/devices/blocks&lt;/b&gt;&lt;/div&gt;&lt;div&gt;&lt;br&gt;&lt;/div&gt;&lt;div&gt;&amp;nbsp; &quot;blockCode&quot;: 92,&lt;/div&gt;&lt;div&gt;&amp;nbsp; &quot;profileType&quot;: &quot;M&quot;,&lt;/div&gt;&lt;div&gt;&amp;nbsp; &quot;blockComment&quot;: &quot;My comment&quot;,&lt;/div&gt;&lt;div&gt;&amp;nbsp; &quot;lastChannelUserUpdate&quot;: &quot;MBB&quot;,&lt;/div&gt;&lt;div&gt;&amp;nbsp; &quot;deviceId&quot;: &quot;457300-0728-2ec996f5-c76f-4b09-a3ef-1b0a44b1f2d7&quot;&lt;/div&gt;" style="text;html=1;align=left;verticalAlign=middle;whiteSpace=wrap;rounded=0;" parent="1" vertex="1">
          <mxGeometry x="947" y="-90" width="580" height="110" as="geometry" />
        </mxCell>
      </root>
    </mxGraphModel>
  </diagram>
  <diagram id="eBoqM_s480iNO9sGWxyx" name="Página-9">
    <mxGraphModel dx="880" dy="524" grid="1" gridSize="10" guides="1" tooltips="1" connect="1" arrows="1" fold="1" page="1" pageScale="1" pageWidth="827" pageHeight="1169" math="0" shadow="0">
      <root>
        <mxCell id="0" />
        <mxCell id="1" parent="0" />
        <mxCell id="IL6ISFk0US0HSpXFHz0B-2" style="edgeStyle=orthogonalEdgeStyle;rounded=0;orthogonalLoop=1;jettySize=auto;html=1;" edge="1" parent="1" source="IL6ISFk0US0HSpXFHz0B-1">
          <mxGeometry relative="1" as="geometry">
            <mxPoint x="330" y="110" as="targetPoint" />
          </mxGeometry>
        </mxCell>
        <mxCell id="IL6ISFk0US0HSpXFHz0B-1" value="Canal" style="rounded=0;whiteSpace=wrap;html=1;" vertex="1" parent="1">
          <mxGeometry x="120" y="80" width="120" height="60" as="geometry" />
        </mxCell>
        <mxCell id="IL6ISFk0US0HSpXFHz0B-5" style="edgeStyle=orthogonalEdgeStyle;rounded=0;orthogonalLoop=1;jettySize=auto;html=1;" edge="1" parent="1" source="IL6ISFk0US0HSpXFHz0B-3" target="IL6ISFk0US0HSpXFHz0B-4">
          <mxGeometry relative="1" as="geometry" />
        </mxCell>
        <mxCell id="IL6ISFk0US0HSpXFHz0B-3" value="Launcher" style="rounded=0;whiteSpace=wrap;html=1;" vertex="1" parent="1">
          <mxGeometry x="330" y="80" width="120" height="60" as="geometry" />
        </mxCell>
        <mxCell id="IL6ISFk0US0HSpXFHz0B-4" value="LMCH&lt;div&gt;Consulta de Ribs&lt;/div&gt;" style="rounded=1;whiteSpace=wrap;html=1;" vertex="1" parent="1">
          <mxGeometry x="330" y="200" width="120" height="60" as="geometry" />
        </mxCell>
        <mxCell id="IL6ISFk0US0HSpXFHz0B-6" style="edgeStyle=orthogonalEdgeStyle;rounded=0;orthogonalLoop=1;jettySize=auto;html=1;" edge="1" parent="1" source="IL6ISFk0US0HSpXFHz0B-7">
          <mxGeometry relative="1" as="geometry">
            <mxPoint x="320" y="400" as="targetPoint" />
          </mxGeometry>
        </mxCell>
        <mxCell id="IL6ISFk0US0HSpXFHz0B-7" value="Canal" style="rounded=0;whiteSpace=wrap;html=1;" vertex="1" parent="1">
          <mxGeometry x="110" y="370" width="120" height="60" as="geometry" />
        </mxCell>
        <mxCell id="IL6ISFk0US0HSpXFHz0B-8" style="edgeStyle=orthogonalEdgeStyle;rounded=0;orthogonalLoop=1;jettySize=auto;html=1;" edge="1" parent="1" source="IL6ISFk0US0HSpXFHz0B-11" target="IL6ISFk0US0HSpXFHz0B-10">
          <mxGeometry relative="1" as="geometry" />
        </mxCell>
        <mxCell id="IL6ISFk0US0HSpXFHz0B-12" style="edgeStyle=orthogonalEdgeStyle;rounded=0;orthogonalLoop=1;jettySize=auto;html=1;" edge="1" parent="1" source="IL6ISFk0US0HSpXFHz0B-9" target="IL6ISFk0US0HSpXFHz0B-11">
          <mxGeometry relative="1" as="geometry" />
        </mxCell>
        <mxCell id="IL6ISFk0US0HSpXFHz0B-9" value="Launcher" style="rounded=0;whiteSpace=wrap;html=1;" vertex="1" parent="1">
          <mxGeometry x="320" y="370" width="120" height="60" as="geometry" />
        </mxCell>
        <mxCell id="IL6ISFk0US0HSpXFHz0B-10" value="LMCH&lt;div&gt;Consulta de Ribs&lt;/div&gt;" style="rounded=1;whiteSpace=wrap;html=1;" vertex="1" parent="1">
          <mxGeometry x="510" y="490" width="120" height="60" as="geometry" />
        </mxCell>
        <mxCell id="IL6ISFk0US0HSpXFHz0B-11" value="Capa de integración" style="rounded=0;whiteSpace=wrap;html=1;" vertex="1" parent="1">
          <mxGeometry x="510" y="370" width="120" height="60" as="geometry" />
        </mxCell>
        <mxCell id="IL6ISFk0US0HSpXFHz0B-13" value="OPCIÓN 1" style="text;html=1;align=center;verticalAlign=middle;whiteSpace=wrap;rounded=0;fontStyle=1" vertex="1" parent="1">
          <mxGeometry x="120" y="40" width="60" height="30" as="geometry" />
        </mxCell>
        <mxCell id="IL6ISFk0US0HSpXFHz0B-14" value="OPCIÓN 2" style="text;html=1;align=center;verticalAlign=middle;whiteSpace=wrap;rounded=0;fontStyle=1" vertex="1" parent="1">
          <mxGeometry x="110" y="330" width="60" height="30" as="geometry" />
        </mxCell>
        <mxCell id="IL6ISFk0US0HSpXFHz0B-15" value="" style="endArrow=none;dashed=1;html=1;rounded=0;" edge="1" parent="1">
          <mxGeometry width="50" height="50" relative="1" as="geometry">
            <mxPoint x="110" y="300" as="sourcePoint" />
            <mxPoint x="660" y="300" as="targetPoint" />
          </mxGeometry>
        </mxCell>
      </root>
    </mxGraphModel>
  </diagram>
</mxfile>
